<svg id="a48e4ca6-3771-48c7-aa52-6f9a88e11289" data-name="Слой 1" xmlns="http://www.w3.org/2000/svg" viewBox="0 0 438.23 344.24"><defs><style>.a357f274-fb35-47d0-870f-ba0e2fcf54f5,.a55d2f59-584a-469c-988d-8f25596a06b7,.ad871d37-ee33-488b-963b-be68bf38d83a,.b1f3adc9-1fa6-4922-8305-015e19b458a9,.b6181cbe-cb7a-444a-b05c-c695fe9ed3d0,.bb322ac1-01c2-41be-8a5c-f9810da73f75,.bf955e9a-c2d2-4a1f-8e7f-cd9e702ae1c3,.e5351082-ba18-4a62-96bf-47f19a8bdf4c,.f113da5a-24ba-43a1-b57e-27d898e87f74,.f4fd2693-f1a6-4d44-8e4e-1a6e924351d2{fill:none;stroke-linecap:round;}.a55d2f59-584a-469c-988d-8f25596a06b7,.bf955e9a-c2d2-4a1f-8e7f-cd9e702ae1c3,.f4fd2693-f1a6-4d44-8e4e-1a6e924351d2{stroke:#1c1c1c;}.ad871d37-ee33-488b-963b-be68bf38d83a,.b6181cbe-cb7a-444a-b05c-c695fe9ed3d0,.bb322ac1-01c2-41be-8a5c-f9810da73f75,.bf955e9a-c2d2-4a1f-8e7f-cd9e702ae1c3,.e5351082-ba18-4a62-96bf-47f19a8bdf4c,.f4fd2693-f1a6-4d44-8e4e-1a6e924351d2{stroke-miterlimit:10;}.bf955e9a-c2d2-4a1f-8e7f-cd9e702ae1c3{stroke-width:1.69px;}.ad871d37-ee33-488b-963b-be68bf38d83a,.e5351082-ba18-4a62-96bf-47f19a8bdf4c,.f4fd2693-f1a6-4d44-8e4e-1a6e924351d2{stroke-width:1.46px;}.b1f3adc9-1fa6-4922-8305-015e19b458a9,.e5351082-ba18-4a62-96bf-47f19a8bdf4c{stroke:#caffe4;}.a357f274-fb35-47d0-870f-ba0e2fcf54f5,.ad871d37-ee33-488b-963b-be68bf38d83a{stroke:#ffd524;}.a357f274-fb35-47d0-870f-ba0e2fcf54f5,.b1f3adc9-1fa6-4922-8305-015e19b458a9{stroke-miterlimit:10;}.a357f274-fb35-47d0-870f-ba0e2fcf54f5{stroke-width:1.55px;}.b1f3adc9-1fa6-4922-8305-015e19b458a9{stroke-width:1.46px;}.b6181cbe-cb7a-444a-b05c-c695fe9ed3d0,.bb322ac1-01c2-41be-8a5c-f9810da73f75{stroke:#29e289;}.bb322ac1-01c2-41be-8a5c-f9810da73f75{stroke-width:1.82px;}.b6181cbe-cb7a-444a-b05c-c695fe9ed3d0{stroke-width:1.78px;}.bd980394-3ec5-4cf9-9d64-6f9d771a0522{fill:#1c1c1c;}.a5807f32-6777-46e8-832f-5e0317735581{fill:#29e289;}.be653022-b409-4fe4-9eb9-5521f82232ba{fill:#fff;}.a8259d91-a666-4e53-8c24-414bcd18af68{fill:#ff5c45;}.ba3d414f-0eba-41a8-b7b3-650b7cf7bcc1{fill:#ffd524;}.ea6842be-f36b-4b12-9fcb-de0eb6604387{fill:#323987;}.f113da5a-24ba-43a1-b57e-27d898e87f74{stroke:#fff;stroke-width:1.55px;}.a55d2f59-584a-469c-988d-8f25596a06b7,.f113da5a-24ba-43a1-b57e-27d898e87f74{stroke-linejoin:round;}.bef02044-1292-4c41-af27-45e201742015{fill:#feafaf;}.a8d9c78c-160e-4589-9a6f-05b266992c92{fill:#ffc7a1;}.ae8ebc35-a126-4c1e-b26c-5637d1ed63b2{fill:#caffe4;}.a55d2f59-584a-469c-988d-8f25596a06b7{stroke-width:1.09px;}</style></defs><line class="bf955e9a-c2d2-4a1f-8e7f-cd9e702ae1c3" x1="14.28" y1="340.63" x2="437.38" y2="340.63"/><circle class="bf955e9a-c2d2-4a1f-8e7f-cd9e702ae1c3" cx="413.28" cy="257.83" r="7.9"/><polyline class="bf955e9a-c2d2-4a1f-8e7f-cd9e702ae1c3" points="371.18 228.53 354.18 338.63 408.68 264.23"/><path class="bf955e9a-c2d2-4a1f-8e7f-cd9e702ae1c3" d="M354.2,338.6l43.3-42.1s6.7,27.9,4.9,44.1L389,304.8" transform="translate(-0.02 0.03)"/><path class="bf955e9a-c2d2-4a1f-8e7f-cd9e702ae1c3" d="M358.7,334.2l-14.2-84.3-2-11.9s-17,26.8-17,65.8l19.2-53" transform="translate(-0.02 0.03)"/><circle class="f4fd2693-f1a6-4d44-8e4e-1a6e924351d2" cx="373.38" cy="218.13" r="10.7"/><path class="f4fd2693-f1a6-4d44-8e4e-1a6e924351d2" d="M103.1,340.6s3-17.1,22.8-17.1c22.2,0,24.7,17.1,24.7,17.1" transform="translate(-0.02 0.03)"/><path class="e5351082-ba18-4a62-96bf-47f19a8bdf4c" d="M68.1,25.4a5.5,5.5,0,1,1-5.5-5.5h0A5.42,5.42,0,0,1,68.1,25.4Z" transform="translate(-0.02 0.03)"/><path class="e5351082-ba18-4a62-96bf-47f19a8bdf4c" d="M197.8,55.2a5.5,5.5,0,1,1-5.5-5.5,5.48,5.48,0,0,1,5.5,5.5Z" transform="translate(-0.02 0.03)"/><rect class="a357f274-fb35-47d0-870f-ba0e2fcf54f5" x="3.14" y="186.39" width="9.8" height="9.8" transform="translate(-132.92 61.74) rotate(-45)"/><rect class="b1f3adc9-1fa6-4922-8305-015e19b458a9" x="333.86" y="168.16" width="22.6" height="22.6" transform="translate(-25.82 296.66) rotate(-45)"/><path class="e5351082-ba18-4a62-96bf-47f19a8bdf4c" d="M103.1,47.6s11.1-15.4,27.2-7.3S158.5,35,158.5,35" transform="translate(-0.02 0.03)"/><polygon class="ad871d37-ee33-488b-963b-be68bf38d83a" points="267.98 1.33 264.58 15.63 278.08 9.93 267.98 1.33"/><path class="bb322ac1-01c2-41be-8a5c-f9810da73f75" d="M316.1,29h79.5a5.93,5.93,0,0,1,5.8,6.1V145.9H317.5Z" transform="translate(-0.02 0.03)"/><path class="b6181cbe-cb7a-444a-b05c-c695fe9ed3d0" d="M316.1,29h79.5a5.8,5.8,0,0,1,5.8,5.8h0a5.8,5.8,0,0,1-5.8,5.8H316.3Z" transform="translate(-0.02 0.03)"/><path class="bd980394-3ec5-4cf9-9d64-6f9d771a0522" d="M325.3,34.8a1.3,1.3,0,1,1-1.3-1.3h0a1.32,1.32,0,0,1,1.3,1.3Z" transform="translate(-0.02 0.03)"/><path class="bd980394-3ec5-4cf9-9d64-6f9d771a0522" d="M331.8,34.8a1.3,1.3,0,1,1-1.3-1.3,1.32,1.32,0,0,1,1.3,1.3Z" transform="translate(-0.02 0.03)"/><path class="bd980394-3ec5-4cf9-9d64-6f9d771a0522" d="M338.3,34.8a1.3,1.3,0,1,1-1.3-1.3,1.32,1.32,0,0,1,1.3,1.3Z" transform="translate(-0.02 0.03)"/><path class="a5807f32-6777-46e8-832f-5e0317735581" d="M332.5,49.6h53.3a3.33,3.33,0,0,1,3.3,3.3V84.8a3.33,3.33,0,0,1-3.3,3.3H332.5a3.33,3.33,0,0,1-3.3-3.3v-32A3.24,3.24,0,0,1,332.5,49.6Z" transform="translate(-0.02 0.03)"/><polygon class="be653022-b409-4fe4-9eb9-5521f82232ba" points="352.08 59.13 352.08 76.03 366.28 67.63 352.08 59.13"/><path class="b6181cbe-cb7a-444a-b05c-c695fe9ed3d0" d="M384,108.9H334.3a5,5,0,0,1-5-5h0a5,5,0,0,1,5-5H384a5,5,0,0,1,5,5h0A5,5,0,0,1,384,108.9Z" transform="translate(-0.02 0.03)"/><path class="b6181cbe-cb7a-444a-b05c-c695fe9ed3d0" d="M384,128.6H334.3a5,5,0,0,1-5-5h0a5,5,0,0,1,5-5H384a5,5,0,0,1,5,5h0A5,5,0,0,1,384,128.6Z" transform="translate(-0.02 0.03)"/><path class="f4fd2693-f1a6-4d44-8e4e-1a6e924351d2" d="M174.7,71.1H48.1L77.2,268.8H203.8Z" transform="translate(-0.02 0.03)"/><polyline class="f4fd2693-f1a6-4d44-8e4e-1a6e924351d2" points="88.08 342.23 48.08 71.13 48.08 340.63"/><line class="f4fd2693-f1a6-4d44-8e4e-1a6e924351d2" x1="214.28" y1="340.63" x2="186.98" y2="154.93"/><line class="f4fd2693-f1a6-4d44-8e4e-1a6e924351d2" x1="74.08" y1="247.83" x2="200.68" y2="247.83"/><path class="a8259d91-a666-4e53-8c24-414bcd18af68" d="M151.5,115.9a31.81,31.81,0,0,1-12.1,24.9l-16.2-18.1-2.1,24.8h-1.3a31.7,31.7,0,1,1,31.7-31.6Z" transform="translate(-0.02 0.03)"/><polygon class="a5807f32-6777-46e8-832f-5e0317735581" points="148.08 221.93 103.78 221.93 98.88 177.53 118.58 177.53 116.78 200.23 143.88 183.43 148.08 221.93"/><path class="bd980394-3ec5-4cf9-9d64-6f9d771a0522" d="M139.4,140.8a31.08,31.08,0,0,1-18.3,6.7l2.1-24.8Z" transform="translate(-0.02 0.03)"/><polygon class="bd980394-3ec5-4cf9-9d64-6f9d771a0522" points="143.88 183.43 116.78 200.23 118.58 177.53 143.18 177.53 143.88 183.43"/><path class="ba3d414f-0eba-41a8-b7b3-650b7cf7bcc1" d="M165.5,169.9l-21.7,13.4-.6-5.8H118.6l2.5-30a32.28,32.28,0,0,0,18.3-6.7Z" transform="translate(-0.02 0.03)"/><polygon class="bd980394-3ec5-4cf9-9d64-6f9d771a0522" points="232.88 315.03 231.08 330.53 211.28 337.53 211.28 340.63 247.38 340.63 252.38 315.03 232.88 315.03"/><polygon class="bd980394-3ec5-4cf9-9d64-6f9d771a0522" points="315.28 318.83 322.68 330.53 302.88 337.53 302.88 340.63 338.88 340.63 339.88 329.63 331.78 308.33 315.28 318.83"/><path class="a8259d91-a666-4e53-8c24-414bcd18af68" d="M312.7,148s11.9,37.6-18.2,52.9-53.9,2.2-50.4-39.5C279.6,153.1,312.7,148,312.7,148Z" transform="translate(-0.02 0.03)"/><ellipse class="ea6842be-f36b-4b12-9fcb-de0eb6604387" cx="289.58" cy="232.73" rx="23.8" ry="27"/><polygon class="a8259d91-a666-4e53-8c24-414bcd18af68" points="312.68 226.33 314.88 163.83 257.68 169.03 265.68 232.73 312.68 226.33"/><polygon class="a8259d91-a666-4e53-8c24-414bcd18af68" points="310.38 218.13 342.58 302.53 315.78 319.53 268.48 243.43 310.38 218.13"/><ellipse class="a8259d91-a666-4e53-8c24-414bcd18af68" cx="290.68" cy="232.93" rx="23.8" ry="27"/><ellipse class="a8259d91-a666-4e53-8c24-414bcd18af68" cx="263.58" cy="230.83" rx="23.8" ry="27"/><polygon class="a8259d91-a666-4e53-8c24-414bcd18af68" points="287.38 229.93 300.78 169.23 243.88 161.03 240.28 225.23 287.38 229.93"/><polygon class="a8259d91-a666-4e53-8c24-414bcd18af68" points="286.98 238.23 262.68 325.93 232.58 318.93 240.78 226.23 286.98 238.23"/><ellipse class="a8259d91-a666-4e53-8c24-414bcd18af68" cx="263.58" cy="234.73" rx="23.8" ry="27"/><path class="f113da5a-24ba-43a1-b57e-27d898e87f74" d="M255,183.7l5.9,10.7s-1.9,11.3,2.5,33.2c3.1,15.5,24,46.3,24,46.3" transform="translate(-0.02 0.03)"/><path class="f113da5a-24ba-43a1-b57e-27d898e87f74" d="M287,162.1s3.9,19.4,19.6,17.4" transform="translate(-0.02 0.03)"/><polyline class="f113da5a-24ba-43a1-b57e-27d898e87f74" points="239.88 233.23 266.88 238.03 312.48 221.93"/><circle class="bef02044-1292-4c41-af27-45e201742015" cx="232.78" cy="145.93" r="16.1"/><rect class="a8d9c78c-160e-4589-9a6f-05b266992c92" x="219.57" y="110.63" width="40.6" height="32.3" transform="translate(37.99 308.09) rotate(-69.78)"/><path class="a8d9c78c-160e-4589-9a6f-05b266992c92" d="M238.5,128a16.16,16.16,0,1,1-22.7,2.6A16.19,16.19,0,0,1,238.5,128Z" transform="translate(-0.02 0.03)"/><path class="bef02044-1292-4c41-af27-45e201742015" d="M193.3,99.4a9.25,9.25,0,1,1-13,1.5,9.33,9.33,0,0,1,13-1.5Z" transform="translate(-0.02 0.03)"/><polygon class="a8d9c78c-160e-4589-9a6f-05b266992c92" points="238.58 128.03 218.38 153.23 179.88 111.83 192.38 98.83 238.58 128.03"/><path class="bd980394-3ec5-4cf9-9d64-6f9d771a0522" d="M186.4,86.4l-32.6,22.3a1.69,1.69,0,0,1-1,.3l-2.4.1a.82.82,0,0,1-.9-.8.6.6,0,0,1,.1-.4l1-2.2a2.41,2.41,0,0,1,.6-.8l32.6-22.3a2.25,2.25,0,0,1,3.1.6h0a2.35,2.35,0,0,1-.5,3.2Z" transform="translate(-0.02 0.03)"/><path class="a8d9c78c-160e-4589-9a6f-05b266992c92" d="M192.4,98.8C182,85.5,179.4,86,174,89.6s-.7,13.5,5,20.4S192.4,98.8,192.4,98.8Z" transform="translate(-0.02 0.03)"/><path class="a8d9c78c-160e-4589-9a6f-05b266992c92" d="M179.9,87.4c-4.6-1.7-13.5,3.8-18.2,6.3s-4.2,6.6,1.4,3.7S179.9,87.4,179.9,87.4Z" transform="translate(-0.02 0.03)"/><path class="a8d9c78c-160e-4589-9a6f-05b266992c92" d="M182.9,106.6a28.13,28.13,0,0,1-10.9-4c-5.8-1-8.5-.8-10.1-1.5s-1.8-3.8,2.4-3.8c7.2,0,7.4-4.7,7.4-4.7Z" transform="translate(-0.02 0.03)"/><path class="ae8ebc35-a126-4c1e-b26c-5637d1ed63b2" d="M245.4,85.1s-8.9,2.6-15.9,19.5a97.5,97.5,0,0,0-4.4,13.9l22.9,14Z" transform="translate(-0.02 0.03)"/><line class="a55d2f59-584a-469c-988d-8f25596a06b7" x1="223.68" y1="118.63" x2="242.78" y2="129.33"/><path class="ae8ebc35-a126-4c1e-b26c-5637d1ed63b2" d="M257.7,77.4c21.4-11.9,39.5-19.5,46-1.3S317.3,153,317.3,153L244,167.2s-1.8-61.6-2.1-71.1S246.4,83.7,257.7,77.4Z" transform="translate(-0.02 0.03)"/><path class="a8d9c78c-160e-4589-9a6f-05b266992c92" d="M269.1,71.4c1.4,6.7-6.8,17-13.6,19.8s-4.1-10.3-4.1-10.3Z" transform="translate(-0.02 0.03)"/><path class="a8259d91-a666-4e53-8c24-414bcd18af68" d="M248.7,82.8l1.2,28.7,19.2-5.8S271.5,75,285.2,66c6.1-3.4,9.8,0,9.8,0s-9.6,4.9-15.3,32.7c-1.7,8.3.9,19.4.9,19.4l31.5-3.2,5.4,38.1L244,167.2s-1.8-66.9-2.2-77.5A13,13,0,0,1,248.7,82.8Z" transform="translate(-0.02 0.03)"/><polygon class="f4fd2693-f1a6-4d44-8e4e-1a6e924351d2" points="247.08 123.23 275.28 115.93 278.58 148.93 247.98 151.53 247.08 123.23"/><path class="f4fd2693-f1a6-4d44-8e4e-1a6e924351d2" d="M245.4,85.1s-3.2-.3-3.2,8v8.3l1.2,42" transform="translate(-0.02 0.03)"/><line class="f4fd2693-f1a6-4d44-8e4e-1a6e924351d2" x1="246.08" y1="112.33" x2="274.08" y2="104.33"/><path class="a8d9c78c-160e-4589-9a6f-05b266992c92" d="M255.9,49.2c-4.5-8-11.2-9.6-19.7-4.6s-5.8,14-1.1,21.2,3.2,5.1,4.7,7.3,3.2,3.3,7.4,0l4.4,7.8h0l17.6-9.5C259.6,55.5,259.6,55.6,255.9,49.2Z" transform="translate(-0.02 0.03)"/><path class="bd980394-3ec5-4cf9-9d64-6f9d771a0522" d="M231.4,58.2s-8.4-5.9-5.3-14.7c3.4-9.8,16.6-7.3,16.6-7.3s4.3-5.4,9.9-3.3,6.4,15,6.4,15L249.9,53s-8-8.8-17-5.7C229.7,51.3,231.4,58.2,231.4,58.2Z" transform="translate(-0.02 0.03)"/><path class="a8d9c78c-160e-4589-9a6f-05b266992c92" d="M253.6,48.7s-.2-4.8,4.1-5,6.5,8.8.8,11.9S253.4,50.6,253.6,48.7Z" transform="translate(-0.02 0.03)"/><path class="a55d2f59-584a-469c-988d-8f25596a06b7" d="M257.7,46.1c-2.4,1.1-2.4,5.1-.8,7.3" transform="translate(-0.02 0.03)"/><path class="a55d2f59-584a-469c-988d-8f25596a06b7" d="M256,51.3a1.47,1.47,0,1,1,2.9-.5" transform="translate(-0.02 0.03)"/><path class="bd980394-3ec5-4cf9-9d64-6f9d771a0522" d="M247.1,73.1c5.3-4,7.2-7,7.2-7a12.86,12.86,0,0,1-2.9,14.8Z" transform="translate(-0.02 0.03)"/><circle class="bd980394-3ec5-4cf9-9d64-6f9d771a0522" cx="238.98" cy="56.33" r="1.1"/><path class="a55d2f59-584a-469c-988d-8f25596a06b7" d="M235.2,53.4s-.2-2.7,3.1-2.1" transform="translate(-0.02 0.03)"/><path class="a55d2f59-584a-469c-988d-8f25596a06b7" d="M242.6,64.8a2.62,2.62,0,0,0,2.7-2.6" transform="translate(-0.02 0.03)"/><path class="a55d2f59-584a-469c-988d-8f25596a06b7" d="M232.2,58.2s1.6-.1,2.1,3.1c.2,1.8.5,3.3.7,4.3a1,1,0,0,0,1.2.8c.1,0,.1,0,.2-.1l2.9-1" transform="translate(-0.02 0.03)"/><path class="bd980394-3ec5-4cf9-9d64-6f9d771a0522" d="M327,114.3c.3,11.4-12.2,18.4-26.8,16.3s-14-15.5,3.1-18.3S327,114.3,327,114.3Z" transform="translate(-0.02 0.03)"/><polygon class="a8d9c78c-160e-4589-9a6f-05b266992c92" points="253.88 150.63 295.28 115.93 315.78 140.73 260.38 169.43 253.88 150.63"/><circle class="bef02044-1292-4c41-af27-45e201742015" cx="306.68" cy="127.33" r="16.1"/><ellipse class="a8d9c78c-160e-4589-9a6f-05b266992c92" cx="257.74" cy="159.82" rx="9.9" ry="10" transform="translate(58.68 388.66) rotate(-80.78)"/><circle class="a8d9c78c-160e-4589-9a6f-05b266992c92" cx="306.68" cy="127.33" r="16.1"/><path class="a8d9c78c-160e-4589-9a6f-05b266992c92" d="M322.8,127.4s3.8-13.4-10-46L285.6,91l4.7,29.4Z" transform="translate(-0.02 0.03)"/><path class="ae8ebc35-a126-4c1e-b26c-5637d1ed63b2" d="M294.9,66.1c13.7,0,30.4,27.1,32.1,48.2-20.4-4-36.7,6-36.7,6s-4.1-21.6-5-32.8C284,71.1,294.9,66.1,294.9,66.1Z" transform="translate(-0.02 0.03)"/><line class="f4fd2693-f1a6-4d44-8e4e-1a6e924351d2" x1="286.18" y1="95.73" x2="290.28" y2="120.33"/><circle class="ba3d414f-0eba-41a8-b7b3-650b7cf7bcc1" cx="302.58" cy="86.63" r="7.8"/><path class="bd980394-3ec5-4cf9-9d64-6f9d771a0522" d="M246.4,144.1c20.9-4.7,31.3,3.5,15.2,13.2s-36,12.7-44,12.7-7.6-6.3-2.6-7.4,8.9-6.1,5.2-6.9S217.9,150.5,246.4,144.1Z" transform="translate(-0.02 0.03)"/><path class="ba3d414f-0eba-41a8-b7b3-650b7cf7bcc1" d="M244.9,142.6c20.9-4.7,31.3,3.5,15.2,13.2s-36,12.7-44,12.7-7.6-6.3-2.6-7.4,8.9-6.1,5.2-6.9S216.4,149,244.9,142.6Z" transform="translate(-0.02 0.03)"/><path class="a8259d91-a666-4e53-8c24-414bcd18af68" d="M234.1,151.4c.3,1.2-1.6,2.7-4.3,3.4s-5.1.2-5.4-1,1.6-2.7,4.3-3.4S233.8,150.2,234.1,151.4Z" transform="translate(-0.02 0.03)"/><ellipse class="a5807f32-6777-46e8-832f-5e0317735581" cx="226.1" cy="160.3" rx="3.8" ry="1.7" transform="translate(-32.08 59.48) rotate(-14)"/><path class="bd980394-3ec5-4cf9-9d64-6f9d771a0522" d="M253.2,145.2c.2.9-1.2,2.1-3.3,2.6s-3.9.2-4.1-.8,1.2-2.1,3.3-2.6S252.9,144.3,253.2,145.2Z" transform="translate(-0.02 0.03)"/><path class="a8d9c78c-160e-4589-9a6f-05b266992c92" d="M260.6,156.6a6.25,6.25,0,0,0-6.3-6.2c-4.2,0-9.6,0-12.5.2-5,.4-7.2,5.8-4,11.9,2.2,4.3,11.2,7.7,21.4,6.8A59.54,59.54,0,0,0,260.6,156.6Z" transform="translate(-0.02 0.03)"/><path class="f4fd2693-f1a6-4d44-8e4e-1a6e924351d2" d="M239.9,157a6.38,6.38,0,0,1,3.8-6.5" transform="translate(-0.02 0.03)"/><path class="f4fd2693-f1a6-4d44-8e4e-1a6e924351d2" d="M244.7,157a6.25,6.25,0,0,1,3.8-6.5" transform="translate(-0.02 0.03)"/><path class="f4fd2693-f1a6-4d44-8e4e-1a6e924351d2" d="M249.5,157a6.38,6.38,0,0,1,3.8-6.5" transform="translate(-0.02 0.03)"/><line class="f4fd2693-f1a6-4d44-8e4e-1a6e924351d2" x1="260.58" y1="155.53" x2="256.18" y2="158.33"/></svg>