<svg id="Слой_1" data-name="Слой 1" xmlns="http://www.w3.org/2000/svg" viewBox="0 0 438.26 344.23"><defs><style>.cls-1,.cls-14,.cls-18,.cls-2,.cls-3,.cls-4,.cls-5,.cls-6,.cls-7{fill:none;stroke-linecap:round;}.cls-1,.cls-18,.cls-2{stroke:#1c1c1c;}.cls-1,.cls-2,.cls-3,.cls-4,.cls-5,.cls-6,.cls-7{stroke-miterlimit:10;}.cls-1{stroke-width:1.69px;}.cls-2,.cls-3,.cls-5{stroke-width:1.46px;}.cls-3{stroke:#caffe4;}.cls-4,.cls-5{stroke:#ffd524;}.cls-4{stroke-width:1.55px;}.cls-6,.cls-7{stroke:#29e289;}.cls-6{stroke-width:1.82px;}.cls-7{stroke-width:1.78px;}.cls-8{fill:#1c1c1c;}.cls-9{fill:#29e289;}.cls-10{fill:#fff;}.cls-11{fill:#ff5c45;}.cls-12{fill:#ffd524;}.cls-13{fill:#323987;}.cls-14{stroke:#fff;stroke-width:1.55px;}.cls-14,.cls-18{stroke-linejoin:round;}.cls-15{fill:#feafaf;}.cls-16{fill:#ffc7a1;}.cls-17{fill:#caffe4;}.cls-18{stroke-width:1.09px;}</style></defs><line class="cls-1" x1="14.33" y1="340.63" x2="437.42" y2="340.63"/><circle class="cls-1" cx="443.81" cy="335.46" r="7.9" transform="translate(-125.06 117.74) rotate(-22.5)"/><polyline class="cls-1" points="371.2 228.54 354.2 338.57 408.68 264.2"/><path class="cls-1" d="M384.67,416.21,428,374.15s6.7,27.88,4.88,44.12l-13.38-35.86" transform="translate(-30.47 -77.64)"/><path class="cls-1" d="M389.16,411.85,375,327.56l-2-11.94s-17,26.83-17,65.84l19.16-53" transform="translate(-30.47 -77.64)"/><circle class="cls-2" cx="403.88" cy="295.71" r="10.7" transform="translate(-121.28 294.56) rotate(-45)"/><path class="cls-2" d="M133.6,418.27s3-17.1,22.82-17.1c22.18,0,24.74,17.1,24.74,17.1" transform="translate(-30.47 -77.64)"/><path class="cls-3" d="M98.58,103a5.5,5.5,0,1,1-5.49-5.49A5.49,5.49,0,0,1,98.58,103Z" transform="translate(-30.47 -77.64)"/><path class="cls-3" d="M228.31,132.84a5.49,5.49,0,1,1-5.49-5.5A5.49,5.49,0,0,1,228.31,132.84Z" transform="translate(-30.47 -77.64)"/><rect class="cls-4" x="33.59" y="264" width="9.78" height="9.78" transform="translate(-209.33 28.32) rotate(-45)"/><rect class="cls-3" x="364.33" y="245.88" width="22.56" height="22.56" transform="translate(-102.3 263.28) rotate(-45)"/><path class="cls-3" d="M133.6,125.21s11.07-15.44,27.18-7.31,28.2-5.29,28.2-5.29" transform="translate(-30.47 -77.64)"/><polygon class="cls-5" points="267.96 1.32 264.61 15.55 278.12 9.89 267.96 1.32"/><path class="cls-6" d="M346.53,106.64H426a6,6,0,0,1,5.83,6.1V223.52h-83.9Z" transform="translate(-30.47 -77.64)"/><path class="cls-7" d="M346.53,106.64H426a5.83,5.83,0,0,1,5.83,5.83h0A5.83,5.83,0,0,1,426,118.3H346.67Z" transform="translate(-30.47 -77.64)"/><path class="cls-8" d="M355.78,112.47a1.29,1.29,0,1,1-1.28-1.29A1.28,1.28,0,0,1,355.78,112.47Z" transform="translate(-30.47 -77.64)"/><path class="cls-8" d="M362.29,112.47a1.29,1.29,0,1,1-1.29-1.29A1.29,1.29,0,0,1,362.29,112.47Z" transform="translate(-30.47 -77.64)"/><path class="cls-8" d="M368.79,112.47a1.29,1.29,0,1,1-1.29-1.29A1.29,1.29,0,0,1,368.79,112.47Z" transform="translate(-30.47 -77.64)"/><rect class="cls-9" x="329.24" y="49.58" width="59.81" height="38.43" rx="3.26"/><polygon class="cls-10" points="352.07 59.09 352.07 76.02 366.3 67.56 352.07 59.09"/><path class="cls-7" d="M414.49,186.49H364.75a5,5,0,0,1-5-5h0a5,5,0,0,1,5-5h49.74a5,5,0,0,1,5,5h0A5,5,0,0,1,414.49,186.49Z" transform="translate(-30.47 -77.64)"/><path class="cls-7" d="M414.49,206.19H364.75a5,5,0,0,1-5-5h0a5,5,0,0,1,5-5h49.74a5,5,0,0,1,5,5h0A5,5,0,0,1,414.49,206.19Z" transform="translate(-30.47 -77.64)"/><path class="cls-2" d="M205.15,148.72H78.59L107.7,346.44H234.26Z" transform="translate(-30.47 -77.64)"/><polyline class="cls-2" points="88.1 342.23 48.12 71.09 48.12 340.63"/><line class="cls-2" x1="214.29" y1="340.63" x2="187.02" y2="154.9"/><line class="cls-2" x1="74.13" y1="247.76" x2="200.66" y2="247.76"/><path class="cls-11" d="M182,193.53a31.61,31.61,0,0,1-12.13,24.93L153.62,200.4l-2.05,24.8c-.43,0-.86,0-1.3,0a31.71,31.71,0,1,1,31.7-31.7Z" transform="translate(-30.47 -77.64)"/><polygon class="cls-9" points="148.13 221.88 103.78 221.88 98.87 177.53 118.63 177.53 116.75 200.19 143.87 183.37 148.13 221.88"/><path class="cls-8" d="M169.84,218.46a31.51,31.51,0,0,1-18.27,6.74l2.05-24.8Z" transform="translate(-30.47 -77.64)"/><polygon class="cls-8" points="143.87 183.37 116.75 200.19 118.63 177.53 143.22 177.53 143.87 183.37"/><path class="cls-12" d="M196,247.58,174.34,261l-.65-5.84h-24.6l2.48-30a31.51,31.51,0,0,0,18.27-6.74Z" transform="translate(-30.47 -77.64)"/><polygon class="cls-8" points="232.93 314.95 231.15 330.48 211.31 337.46 211.31 340.63 247.36 340.63 252.39 314.95 232.93 314.95"/><polygon class="cls-8" points="315.31 318.79 322.7 330.48 302.87 337.46 302.87 340.63 338.91 340.63 339.85 329.6 331.77 308.31 315.31 318.79"/><path class="cls-11" d="M343.15,225.66s11.93,37.64-18.25,52.87S271,280.73,274.48,239C310.06,230.73,343.15,225.66,343.15,225.66Z" transform="translate(-30.47 -77.64)"/><ellipse class="cls-13" cx="289.56" cy="232.67" rx="23.82" ry="27.04"/><polygon class="cls-11" points="312.71 226.31 314.87 163.77 257.69 168.97 265.74 232.68 312.71 226.31"/><polygon class="cls-11" points="310.4 218.08 342.57 302.5 315.77 319.54 268.54 243.45 310.4 218.08"/><ellipse class="cls-11" cx="290.69" cy="232.88" rx="23.82" ry="27.04"/><ellipse class="cls-11" cx="263.58" cy="230.78" rx="23.82" ry="27.04"/><polygon class="cls-11" points="287.39 229.93 300.78 169.21 243.87 161.01 240.27 225.24 287.39 229.93"/><polygon class="cls-11" points="287.03 238.18 262.66 325.9 232.58 318.87 240.75 226.25 287.03 238.18"/><ellipse class="cls-11" cx="263.59" cy="234.72" rx="23.82" ry="27.04"/><path class="cls-14" d="M285.47,261.33,291.36,272s-1.93,11.34,2.52,33.22c3.14,15.47,24,46.31,24,46.31" transform="translate(-30.47 -77.64)"/><path class="cls-14" d="M317.5,239.74s3.9,19.39,19.64,17.36" transform="translate(-30.47 -77.64)"/><polyline class="cls-14" points="239.85 233.21 266.88 237.98 312.46 221.88"/><circle class="cls-15" cx="263.31" cy="223.52" r="16.15" transform="translate(-99.91 53.31) rotate(-24.78)"/><rect class="cls-16" x="254.17" y="184.19" width="32.3" height="40.58" transform="translate(56.86 -158.47) rotate(20.22)"/><path class="cls-16" d="M269,205.62a16.15,16.15,0,1,1-22.7,2.56A16.16,16.16,0,0,1,269,205.62Z" transform="translate(-30.47 -77.64)"/><path class="cls-15" d="M223.75,177.06a9.24,9.24,0,1,1-13,1.47A9.24,9.24,0,0,1,223.75,177.06Z" transform="translate(-30.47 -77.64)"/><polygon class="cls-16" points="238.57 127.98 218.43 153.24 179.86 111.82 192.35 98.78 238.57 127.98"/><path class="cls-8" d="M216.87,164l-32.62,22.29a1.82,1.82,0,0,1-1,.33l-2.43.14a.83.83,0,0,1-.81-1.17l1-2.22a1.87,1.87,0,0,1,.65-.77l32.63-22.3a2.24,2.24,0,0,1,3.11.59h0A2.23,2.23,0,0,1,216.87,164Z" transform="translate(-30.47 -77.64)"/><path class="cls-16" d="M222.82,176.41c-10.43-13.34-13-12.78-18.44-9.24s-.7,13.5,5,20.43S222.82,176.41,222.82,176.41Z" transform="translate(-30.47 -77.64)"/><path class="cls-16" d="M210.33,165c-4.59-1.69-13.53,3.8-18.18,6.32s-4.16,6.57,1.42,3.72S210.33,165,210.33,165Z" transform="translate(-30.47 -77.64)"/><path class="cls-16" d="M213.41,184.29a28.14,28.14,0,0,1-10.9-4c-5.8-1-8.53-.84-10.12-1.49s-1.78-3.79,2.38-3.79c7.23,0,7.41-4.69,7.41-4.69Z" transform="translate(-30.47 -77.64)"/><path class="cls-17" d="M275.85,162.78S267,165.4,260,182.27a97.54,97.54,0,0,0-4.38,13.95l22.94,14Z" transform="translate(-30.47 -77.64)"/><line class="cls-18" x1="223.71" y1="118.59" x2="242.75" y2="129.32"/><path class="cls-17" d="M288.21,155c21.35-11.92,39.48-19.53,46-1.28s13.6,76.94,13.6,76.94l-73.33,14.15s-1.81-61.65-2.15-71.15S276.91,161.34,288.21,155Z" transform="translate(-30.47 -77.64)"/><path class="cls-16" d="M299.56,149.05c1.37,6.7-6.75,17-13.57,19.79s-4.06-10.31-4.06-10.31Z" transform="translate(-30.47 -77.64)"/><path class="cls-11" d="M279.17,160.44l1.16,28.73,19.17-5.8s2.39-30.73,16.09-39.68c6.14-3.35,9.75,0,9.75,0s-9.6,4.87-15.28,32.7c-1.69,8.31.9,19.45.9,19.45l31.48-3.25,5.37,38.1-73.33,14.15s-1.84-66.87-2.16-77.49A12.49,12.49,0,0,1,279.17,160.44Z" transform="translate(-30.47 -77.64)"/><polygon class="cls-2" points="247.12 123.17 275.26 115.89 278.64 148.91 248 151.46 247.12 123.17"/><path class="cls-2" d="M275.85,162.78s-3.23-.32-3.23,8v8.34l1.16,42" transform="translate(-30.47 -77.64)"/><line class="cls-2" x1="246.1" y1="112.3" x2="274.14" y2="104.33"/><path class="cls-16" d="M286.4,126.81c-4.55-8-11.24-9.63-19.74-4.6s-5.78,14-1.12,21.24,3.17,5.09,4.66,7.26,3.16,3.29,7.38,0l4.35,7.82h0l17.63-9.48C290.06,133.18,290.05,133.19,286.4,126.81Z" transform="translate(-30.47 -77.64)"/><path class="cls-8" d="M261.88,135.87s-8.45-5.85-5.34-14.71c3.41-9.75,16.57-7.27,16.57-7.27s4.29-5.4,9.88-3.35,6.39,15,6.39,15l-9.06,5.1s-8-8.82-17-5.65C260.2,128.93,261.88,135.87,261.88,135.87Z" transform="translate(-30.47 -77.64)"/><path class="cls-16" d="M284.11,126.31s-.25-4.84,4.1-5,6.46,8.82.81,11.92S283.86,128.24,284.11,126.31Z" transform="translate(-30.47 -77.64)"/><path class="cls-18" d="M288.21,123.7c-2.43,1.12-2.44,5.09-.81,7.33" transform="translate(-30.47 -77.64)"/><path class="cls-18" d="M286.46,128.93a1.48,1.48,0,0,1,2.92-.51" transform="translate(-30.47 -77.64)"/><path class="cls-8" d="M277.58,150.71c5.34-4,7.21-7,7.21-7a13,13,0,0,1-2.86,14.84Z" transform="translate(-30.47 -77.64)"/><circle class="cls-8" cx="239.02" cy="56.32" r="1.13"/><path class="cls-18" d="M265.66,131s-.19-2.7,3.07-2.1" transform="translate(-30.47 -77.64)"/><path class="cls-18" d="M273.11,142.45s2.74,0,2.74-2.61" transform="translate(-30.47 -77.64)"/><path class="cls-18" d="M262.71,135.87s1.63-.09,2.07,3.07c.25,1.81.5,3.34.67,4.33a1,1,0,0,0,1.34.77l2.9-1" transform="translate(-30.47 -77.64)"/><path class="cls-8" d="M357.48,191.94c.27,11.44-12.2,18.35-26.83,16.32s-13.95-15.51,3.12-18.33S357.48,191.94,357.48,191.94Z" transform="translate(-30.47 -77.64)"/><polygon class="cls-16" points="253.92 150.6 295.27 115.89 315.75 140.68 260.37 169.39 253.92 150.6"/><circle class="cls-15" cx="306.67" cy="127.32" r="16.15"/><circle class="cls-16" cx="257.73" cy="159.79" r="9.95"/><circle class="cls-16" cx="306.67" cy="127.32" r="16.15"/><path class="cls-16" d="M353.29,205s3.83-13.37-10-46l-27.24,9.56,4.67,29.37Z" transform="translate(-30.47 -77.64)"/><path class="cls-17" d="M325.34,143.69c13.72,0,30.38,27.11,32.14,48.25-20.36-4-36.71,6-36.71,6s-4.1-21.55-5-32.79C314.47,148.72,325.34,143.69,325.34,143.69Z" transform="translate(-30.47 -77.64)"/><line class="cls-2" x1="286.23" y1="95.65" x2="290.3" y2="120.27"/><circle class="cls-12" cx="302.65" cy="86.6" r="7.77"/><path class="cls-8" d="M276.86,221.79c20.93-4.67,31.27,3.52,15.17,13.2s-36,12.67-44,12.67-7.64-6.34-2.61-7.45,8.94-6.15,5.22-6.89S248.36,228.14,276.86,221.79Z" transform="translate(-30.47 -77.64)"/><path class="cls-12" d="M275.35,220.27c20.93-4.66,31.26,3.52,15.17,13.21s-36,12.67-44,12.67-7.64-6.34-2.61-7.45,8.94-6.15,5.21-6.9S246.85,226.63,275.35,220.27Z" transform="translate(-30.47 -77.64)"/><path class="cls-11" d="M264.6,229.08c.3,1.2-1.62,2.72-4.29,3.39s-5.07.22-5.37-1,1.61-2.73,4.28-3.4S264.3,227.87,264.6,229.08Z" transform="translate(-30.47 -77.64)"/><ellipse class="cls-9" cx="256.54" cy="237.91" rx="3.8" ry="1.72" transform="translate(-80.42 -8.48) rotate(-14)"/><path class="cls-8" d="M283.63,222.83c.23.92-1.23,2.08-3.27,2.59s-3.87.17-4.1-.75,1.24-2.08,3.27-2.59S283.4,221.91,283.63,222.83Z" transform="translate(-30.47 -77.64)"/><path class="cls-16" d="M291.11,234.28a6.33,6.33,0,0,0-6.28-6.24c-4.16,0-9.65,0-12.51.2-5,.4-7.22,5.8-4.05,11.95,2.22,4.3,11.18,7.71,21.42,6.83A62.9,62.9,0,0,0,291.11,234.28Z" transform="translate(-30.47 -77.64)"/><path class="cls-2" d="M270.32,234.67a6.38,6.38,0,0,1,3.82-6.54" transform="translate(-30.47 -77.64)"/><path class="cls-2" d="M275.15,234.67a6.37,6.37,0,0,1,3.82-6.54" transform="translate(-30.47 -77.64)"/><path class="cls-2" d="M280,234.67a6.38,6.38,0,0,1,3.82-6.54" transform="translate(-30.47 -77.64)"/><line class="cls-2" x1="260.64" y1="155.48" x2="256.22" y2="158.32"/></svg>