<svg id="Слой_1" data-name="Слой 1" xmlns="http://www.w3.org/2000/svg" viewBox="0 0 422.85 466.62"><defs><style>.cls-1{fill:#29e289;}.cls-2{fill:#ffd524;}.cls-3{fill:#ffc7a1;}.cls-4{fill:#1c1c1c;}.cls-5{fill:#bcbcbc;}.cls-6{fill:#fff;}.cls-7{fill:#ddd;}.cls-8{fill:#caffe4;}.cls-9{fill:#e5e8f5;}</style></defs><path class="cls-1" d="M198.6,214.23c-5,4.78-6.87,12.22-2.13,18,4.47,5.4,13.12,6.55,18.7,2.24,13.48-10.4-.57-29.6-15.11-25.62-2.69.73-2,4.57.64,4.72,4.25.24,8.8.41,12.2,3.39a8.84,8.84,0,0,1,.74,12.29c-7.93,9.75-21.7-4.6-13.37-13.32a1.18,1.18,0,0,0-1.67-1.67Z" transform="translate(-38.18 -3.75)"/><path class="cls-1" d="M337.41,230.7c1.83,6.77,3.84,13.47,5.92,20.18a2.12,2.12,0,0,0,3.42,1.17c5.44-3.7,10.89-7.34,16.05-11.43a2,2,0,0,0-.2-3.05c-6.05-4.15-14.21-10.27-21.87-10.31-2,0-3.31,2.73-1.34,3.87,3.1,1.78,6.8,2.42,10.11,3.8a54.94,54.94,0,0,1,11,5.85c.07-1.12.15-2.23.22-3.34C354.92,241,349.49,245,344,248.94l3.24.65c-2.34-6.62-4.74-13.19-7.34-19.72a1.33,1.33,0,0,0-2.49.83Z" transform="translate(-38.18 -3.75)"/><path class="cls-2" d="M375.65,266.59A157.3,157.3,0,0,0,399.33,253c2.68-1.92,0-5.67-2.79-4.19a154.12,154.12,0,0,0-22.35,14.74c-1.4,1.08-.37,3.9,1.46,3Z" transform="translate(-38.18 -3.75)"/><path class="cls-1" d="M77.39,291.34A157.23,157.23,0,0,0,70.28,265c-1.17-3.08-5.47-1.49-4.76,1.62A154.27,154.27,0,0,0,74.1,292c.69,1.63,3.67,1.35,3.29-.64Z" transform="translate(-38.18 -3.75)"/><path class="cls-2" d="M102.87,213.3l-.45-.4c-2-1.78-5.3-2.12-7.25,0a5.24,5.24,0,0,0,0,7.24l.41.46a5.18,5.18,0,0,0,7.29,0c1.8-2,2.16-5.39,0-7.3Z" transform="translate(-38.18 -3.75)"/><path class="cls-1" d="M318.68,440.5s-85.1,19.79-119.28-14.39l12.23-81.65c3.72-23.47,1.5-68.63,19.48-84.65a31,31,0,0,1,6.82-4.64c12.61-6.09,35-9.38,56.58-9.46,26.16-.1,53.09,19.68,60,44.92l-28.32,66.24Z" transform="translate(-38.18 -3.75)"/><path class="cls-3" d="M310.27,300.81s38.12,73.43,19.19,77.34c-62.27,12.86-98.41,23.41-98.41,23.41l-3.18,24.18c.93,3.66,126,.5,140.8-16.3,10.46-11.87,24.36-39.28-5.22-98.62l-9-20.19Z" transform="translate(-38.18 -3.75)"/><path class="cls-3" d="M238.68,263l-95,36.76-3-49.81-18.62-10.58S91,322,127.82,336.91s78.4-12.62,78.4-12.62Z" transform="translate(-38.18 -3.75)"/><path class="cls-1" d="M250.43,250.78c-33.14,10.55-52.91,22.93-99.56,42.39l23.95,53.42,41.3-13.25Z" transform="translate(-38.18 -3.75)"/><polyline class="cls-1" points="266.38 286.89 290.46 342.84 344.78 332.93 308.19 269.9 264.86 286.89"/><path class="cls-4" d="M276.14,328.78c11.57-.64,23-.14,34.55,0,1,0,.95-1.41,0-1.52-11.39-1.37-23.15-.82-34.55.16-.86.07-.88,1.4,0,1.35Z" transform="translate(-38.18 -3.75)"/><path class="cls-4" d="M328,263.88c-39.09,3.53-12.36,61.16-2.34,78.61a.87.87,0,0,0,1.5-.88c-9.95-17.63-36.59-71.26,1-76.78.53-.07.41-1-.13-.95Z" transform="translate(-38.18 -3.75)"/><path class="cls-4" d="M219.63,296.83a324.1,324.1,0,0,0-9.23,58.91c-.05.81,1.33,1,1.45.19,2.79-19.64,5.61-39.24,8.76-58.83.1-.63-.81-.92-1-.27Z" transform="translate(-38.18 -3.75)"/><path class="cls-4" d="M311.11,190.38l1.8-24.76c6.48-1.82,9.85-10.12,7.27-16.34s-9.94-9.72-16.61-8.77c4.21-2.86,3.88-9.71.43-13.45s-8.87-5-14-5.15-10.24.42-15.25-.51c-4.44-.82-8.78-2.86-13.26-2.29s-8.76,5.6-6.34,9.41c-6.46-.94-13.45-1.81-19.18,1.31s-8.62,12-3.69,16.25c-3.26,1.66-4.07,6.37-2.24,9.54s5.58,4.82,9.23,5.08,7.26-.66,10.8-1.57" transform="translate(-38.18 -3.75)"/><path class="cls-3" d="M310.06,174.33l-1.3,17.15s14.58,2,10.43,15.27-14.14,7.49-14.14,7.49-2.49,34.09-37.41,23.28c-27.8-8.61-26.1-44.59-22.57-75.27a20.55,20.55,0,0,1,24.36-17.78l21,4.09A24.38,24.38,0,0,1,310.06,174.33Z" transform="translate(-38.18 -3.75)"/><path class="cls-3" d="M308.76,205.72l-9.41,50.18a20.13,20.13,0,0,1-24.45,15.86h0a20.12,20.12,0,0,1-15.15-23.09l5.11-28.76Z" transform="translate(-38.18 -3.75)"/><path class="cls-4" d="M270.13,206.29c.06,0,.08.16,0,.42a1.47,1.47,0,0,1-.85.86,2.17,2.17,0,0,1-2-.29,3.78,3.78,0,0,1-1.45-2,15.6,15.6,0,0,1-.44-5.71c.07-2.06.19-4.32.34-6.7.59-9.49,1.54-17.16,2.11-17.12s.56,7.76,0,17.25c-.14,2.38-.31,4.64-.5,6.69a17.61,17.61,0,0,0-.05,5.17c.22,1.36,1.15,2,1.76,1.94S270,206.19,270.13,206.29Z" transform="translate(-38.18 -3.75)"/><path class="cls-4" d="M258.8,234c.19-.25,1.87.84,4.75,2.08a31.6,31.6,0,0,0,11.78,2.62,32,32,0,0,0,11.89-2.12c2.93-1.12,4.65-2.14,4.83-1.87s-1.29,1.68-4.23,3.21a26.39,26.39,0,0,1-24.93-.52C260,235.75,258.64,234.21,258.8,234Z" transform="translate(-38.18 -3.75)"/><path class="cls-4" d="M265.63,213.33c.23-.21,1,.49,2.5,1.09a8,8,0,0,0,10.3-3.31c.84-1.34,1.09-2.38,1.4-2.35s.55,1.18-.07,3a8.19,8.19,0,0,1-12.35,4C265.86,214.61,265.42,213.47,265.63,213.33Z" transform="translate(-38.18 -3.75)"/><path class="cls-4" d="M309.86,208.42c0-.31.84-.5,1.75-1.11a2.1,2.1,0,0,0,.92-1.28,1.12,1.12,0,0,0,0-.73.54.54,0,0,0-.36-.36.83.83,0,0,0-.43-.05.4.4,0,0,0-.18.07l-3,1.63,1.26-2.55c1.34-2.7,2.59-4.54,3-4.35s-.09,2.35-1.2,5.16l-1.77-.92a2.26,2.26,0,0,1,1.42-1,2.66,2.66,0,0,1,1.65.1,2.54,2.54,0,0,1,1.57,1.69,3,3,0,0,1-.09,1.95,3.37,3.37,0,0,1-.95,1.36,3.67,3.67,0,0,1-2.94.79C310.07,208.7,309.86,208.56,309.86,208.42Z" transform="translate(-38.18 -3.75)"/><path class="cls-4" d="M279.41,174.19c-.07-.26.66-.75,2-1.07a11.69,11.69,0,0,1,10.06,2.64c1,.93,1.4,1.72,1.21,1.91-.42.43-2.88-1.5-6.46-2.39S279.57,174.77,279.41,174.19Z" transform="translate(-38.18 -3.75)"/><path class="cls-4" d="M248.1,173.07c-.1-.25.63-.84,2-1.36a14,14,0,0,1,5.75-.68,13.7,13.7,0,0,1,5.54,1.67c1.29.75,1.91,1.46,1.77,1.69-.32.52-3.42-1-7.49-1.28S248.32,173.64,248.1,173.07Z" transform="translate(-38.18 -3.75)"/><path class="cls-4" d="M308.76,191.48C299,182,296.15,166.15,293.5,152.8A34.14,34.14,0,0,1,261.65,157a51.39,51.39,0,0,1-11.35,9.91c-1.2.77-2.63,1.52-4,1.11-1.63-.49-2.36-2.37-2.75-4a28.69,28.69,0,0,1,.57-16.17A19.48,19.48,0,0,1,255,136.13c5.45-2.11,11.59-1.19,17.25.28a95.91,95.91,0,0,1,24.34,10.05c7.46,4.37,14.62,10.15,17.78,18.2s3.15,23.67-4.47,27.74" transform="translate(-38.18 -3.75)"/><path class="cls-4" d="M285.6,188.58a2.72,2.72,0,1,1,2.27-2.49A2.42,2.42,0,0,1,285.6,188.58Z" transform="translate(-38.18 -3.75)"/><path class="cls-4" d="M257.56,185a2.72,2.72,0,1,1,2.27-2.49A2.41,2.41,0,0,1,257.56,185Z" transform="translate(-38.18 -3.75)"/><path class="cls-3" d="M120.15,245.3s3.47-27.47,8.51-27.19,15.11,0,15.11,0,.84-24.63,3.64-20.71,3.68,37.06-7.12,53Z" transform="translate(-38.18 -3.75)"/><path class="cls-3" d="M231.05,401.56s-45.18,7.91-44.3,13.77a42.25,42.25,0,0,0,4.06,11.77l40.24-.94Z" transform="translate(-38.18 -3.75)"/><path class="cls-5" d="M279.9,425.14h0a3.22,3.22,0,0,0-3-3l-88.11-5.39a3.23,3.23,0,0,1-2.82-2.09l-29.64-79.3a3.23,3.23,0,0,0-3.2-2.09l-95.35,5.24a3.23,3.23,0,0,0-2.83,4.38l32.46,84.07a3.2,3.2,0,0,0,3,2.06l186.29-.45A3.21,3.21,0,0,0,279.9,425.14Z" transform="translate(-38.18 -3.75)"/><path class="cls-6" d="M107.67,380.45a7.57,7.57,0,1,0,7.14-8A7.57,7.57,0,0,0,107.67,380.45Z" transform="translate(-38.18 -3.75)"/><path class="cls-7" d="M38.18,427.74l399.45-5L461,435S154.37,519.2,38.18,427.74Z" transform="translate(-38.18 -3.75)"/><path class="cls-8" d="M350.41,137.92c-.09,10.69,2.08,45.91,2.77,56.75a3.15,3.15,0,0,0,3.42,2.94L379,195.75a3.17,3.17,0,0,1,3.36,3.83h0a3.16,3.16,0,0,0,5.46,2.77l5.75-6.49a3.18,3.18,0,0,1,2-1l25.14-2.91a3.17,3.17,0,0,0,2.8-3.24L421.89,136a3.16,3.16,0,0,0-3.25-3.07l-65.16,1.92A3.14,3.14,0,0,0,350.41,137.92Z" transform="translate(-38.18 -3.75)"/><path class="cls-2" d="M274.78,40.41s-20.58,1-21.26,23c0,0,.34,12,6.86,16.46s6.17,9.26,6.17,9.26H283.7s-.69-6.17,2.05-9.6,9.61-10.63,8.58-21.27S285.41,39.38,274.78,40.41Z" transform="translate(-38.18 -3.75)"/><path class="cls-4" d="M266.22,94.5c6.16-.29,12.38.39,18.5,0,.88,0,1.18-1.43.22-1.63-5.94-1.22-12.74-.54-18.72.13-.92.1-1,1.51,0,1.47Z" transform="translate(-38.18 -3.75)"/><path class="cls-4" d="M268.61,99.87c2.46-.14,4.92-.24,7.38-.21s4.95.43,7.38.25a.83.83,0,0,0,.22-1.63c-4.7-1.23-10.42-.52-15.17.15-.82.12-.63,1.49.19,1.44Z" transform="translate(-38.18 -3.75)"/><path class="cls-4" d="M270.64,103.86c2.14.15,4.37.76,6.51.71a.94.94,0,0,0,.25-1.84c-2.09-.65-4.61-.42-6.76-.34a.74.74,0,0,0,0,1.47Z" transform="translate(-38.18 -3.75)"/><path class="cls-4" d="M271.61,88.87C272.09,82.77,270,76,269,70l-1.79.76c.86,1.42,2.29,5.5,4.49,5.36s3.12-4.21,3.44-5.86h-2c.44,1.88.49,6.42,3.45,6,2.51-.36,4.2-4.08,5-6.12l-2-.56c-1.51,6-2.24,13.52-.72,19.54a1,1,0,0,0,2-.27c-.19-6.32-1.07-12.51.81-18.71.4-1.33-1.56-1.8-2-.56-.27.7-1.89,4.71-3.42,4.19-.39-.13-.9-3.7-1-4.05a1,1,0,0,0-2,0c-.22,1.23-.73,4.57-2.18,3.57-.84-.57-1.57-2.63-2.1-3.51a1,1,0,0,0-1.79.76c.94,6,1.2,13,3.61,18.56.21.48.87.18.9-.25Z" transform="translate(-38.18 -3.75)"/><path class="cls-2" d="M211.08,81.44c9.11-2.9,18.7-5.27,27.51-9a.77.77,0,0,0-.41-1.48c-9.32,2.1-18.5,5.74-27.59,8.67-1.13.36-.65,2.15.49,1.79Z" transform="translate(-38.18 -3.75)"/><path class="cls-2" d="M222.27,54.24c5.82-.11,12,.33,17.73-.56,1.15-.18.73-1.8-.26-1.9-5.69-.58-11.75.19-17.47.38a1,1,0,0,0,0,2.08Z" transform="translate(-38.18 -3.75)"/><path class="cls-2" d="M250.07,43.87c-3.45-3-6.73-6.26-10.21-9.27-3.15-2.72-6.21-6-9.85-8a1.44,1.44,0,0,0-1.74,2.25c2.68,3.3,6.61,5.83,9.91,8.5s7,5.27,10.41,8c1,.82,2.52-.58,1.48-1.48Z" transform="translate(-38.18 -3.75)"/><path class="cls-2" d="M264.61,35.48c.4-1.78-1.05-3.55-1.9-5-1.08-1.88-2-4.25-3.62-5.73a1.37,1.37,0,0,0-2.27,1.32c.61,2.11,2.29,4,3.49,5.81.93,1.4,1.9,3.56,3.65,4a.55.55,0,0,0,.65-.37Z" transform="translate(-38.18 -3.75)"/><path class="cls-2" d="M278.43,31.66c.33-8.73.87-18.35-.45-27-.23-1.52-2.34-1-2.48.34-.95,8.57,0,18.07.68,26.66a1.13,1.13,0,0,0,2.25,0Z" transform="translate(-38.18 -3.75)"/><path class="cls-2" d="M288.6,36a59.52,59.52,0,0,0,6.2-10,1.33,1.33,0,0,0-2.29-1.34,59.46,59.46,0,0,0-5.64,10.3,1,1,0,0,0,1.73,1Z" transform="translate(-38.18 -3.75)"/><path class="cls-2" d="M296.38,43.34A113.53,113.53,0,0,0,309,37c4.07-2.21,8.8-4.1,12.22-7.26a1.21,1.21,0,0,0-1.17-2c-4.21,1.18-8,4-11.79,6.17-4.27,2.46-8.71,4.78-12.64,7.76-.77.58-.37,2.15.73,1.73Z" transform="translate(-38.18 -3.75)"/><path class="cls-2" d="M302,54.72c3.12,1.26,9.18.48,11.48-2.11.73-.82.31-2.51-1-2.39-1.76.17-3.33,1.08-5,1.53s-3.66.46-5.45.91a1.08,1.08,0,0,0,0,2.06Z" transform="translate(-38.18 -3.75)"/><path class="cls-2" d="M303.29,70.6c6.45,1.68,12.95,3.17,19.45,4.64,5.93,1.34,12.12,3.34,18.2,3.65,2,.1,2.07-2.62.44-3.24-5.8-2.22-12.52-2.89-18.62-4.07S310.25,69.16,304,68.14c-1.59-.26-2.3,2-.68,2.46Z" transform="translate(-38.18 -3.75)"/><path class="cls-2" d="M129,285.26c.41-2.71.33-5.3,1.85-7.69,3-4.77,7.34-3.57,11.5-1.47s8.24,3.41,12.86,1.42c7.2-3.12,10.59-14,3.71-19.1-2.23-1.66-4.42,1.07-4.12,3.16.41,2.93,1.86,6.15-.64,8.66-3.35,3.36-7.28.54-10.62-1a13.85,13.85,0,0,0-11.17-.48c-6.42,2.59-11.07,11.29-6,17.16a1.56,1.56,0,0,0,2.6-.69Z" transform="translate(-38.18 -3.75)"/><path class="cls-2" d="M223.7,290.52a157.57,157.57,0,0,0,25.73-9.1c3-1.41,1.06-5.57-2-4.62a154.4,154.4,0,0,0-24.64,10.48c-1.57.82-1.07,3.77.89,3.24Z" transform="translate(-38.18 -3.75)"/><path class="cls-9" d="M180.74,299.53c1.82,6.78,3.83,13.48,5.92,20.18a2.12,2.12,0,0,0,3.42,1.18c5.44-3.7,10.89-7.34,16-11.44a2,2,0,0,0-.2-3.05c-6.05-4.14-14.21-10.26-21.87-10.31-1.95,0-3.32,2.74-1.34,3.88,3.1,1.78,6.8,2.42,10.11,3.79a56,56,0,0,1,11,5.85c.07-1.11.15-2.22.22-3.34-5.76,3.56-11.2,7.54-16.68,11.5l3.24.65c-2.34-6.62-4.74-13.19-7.34-19.71a1.33,1.33,0,0,0-2.49.82Z" transform="translate(-38.18 -3.75)"/><path class="cls-2" d="M192.65,367.36a160.34,160.34,0,0,0,27.28.05c3.29-.32,2.88-4.8-.3-4.92a157.43,157.43,0,0,0-26.74,1.59c-1.75.24-2.27,3.13-.24,3.28Z" transform="translate(-38.18 -3.75)"/><path class="cls-8" d="M59.66,126.9l4.18,50A5.2,5.2,0,0,0,69,181.62H171.68a5.18,5.18,0,0,1,5,3.74h0a5.19,5.19,0,0,0,10-.05l.61-2.18a5.18,5.18,0,0,1,4.69-3.78l11.67-.68a5.19,5.19,0,0,0,4.81-6.1l-8-44.22a5.18,5.18,0,0,0-5-4.26l-130.5-2.81A5.19,5.19,0,0,0,59.66,126.9Z" transform="translate(-38.18 -3.75)"/><path class="cls-1" d="M73.79,143.77c38.26-1.69,76.7-2,114.84,2,1.69.17,1.72-2.54,0-2.66-38.23-2.67-76.54-4.15-114.84-1.67-1.49.1-1.51,2.41,0,2.34Z" transform="translate(-38.18 -3.75)"/><path class="cls-1" d="M76,155.71c38.26-1.7,76.69-2,114.84,2,1.68.18,1.71-2.54,0-2.66-38.24-2.66-76.55-4.14-114.84-1.67-1.49.1-1.52,2.41,0,2.35Z" transform="translate(-38.18 -3.75)"/><path class="cls-1" d="M76.24,165.69c25.74,1.09,51.23-1.3,77,1.32,1.68.17,1.72-2.56,0-2.67-25.72-1.58-51.21-.69-76.95-1a1.17,1.17,0,0,0,0,2.34Z" transform="translate(-38.18 -3.75)"/><path class="cls-1" d="M358.59,162.08s13.29,29.86,17,28.3,38.06-22.87,38.06-22.87-14.08-26.74-17-28.3S358.59,162.08,358.59,162.08Z" transform="translate(-38.18 -3.75)"/><path class="cls-4" d="M396.64,139.21c.54.2-3.55,12.39-9.13,27.21l-.2.54-.3.8-.84-.14c-15.39-2.51-27.68-5-27.58-5.54s12.52,1,27.91,3.48l-1.14.66.2-.53C391.14,150.86,396.1,139,396.64,139.21Z" transform="translate(-38.18 -3.75)"/><path class="cls-4" d="M371.22,186.87c-.55-.12.09-5.13,1.72-11.11s3.62-10.63,4.16-10.45-.54,5.07-2.15,11S371.79,187,371.22,186.87Z" transform="translate(-38.18 -3.75)"/><path class="cls-4" d="M411.38,161.57c-.09.57-4.91.27-10.76-.65s-10.53-2.14-10.44-2.71,4.9-.28,10.76.65S411.47,161,411.38,161.57Z" transform="translate(-38.18 -3.75)"/></svg>