<?xml version="1.0" encoding="utf-8"?>
<!-- Generator: Adobe Illustrator 24.0.0, SVG Export Plug-In . SVG Version: 6.00 Build 0)  -->
<svg version="1.1" id="e91d54ea-ab92-4c0e-9ff3-1a312ce37977"
	 xmlns="http://www.w3.org/2000/svg" xmlns:xlink="http://www.w3.org/1999/xlink" x="0px" y="0px" viewBox="0 0 368.6 425.3"
	 style="enable-background:new 0 0 368.6 425.3;" xml:space="preserve">
<style type="text/css">
	.st0{fill:#FFD524;}
	.st1{fill:#FF5C45;}
	.st2{fill:#FFC7A1;}
	.st3{fill:#1C1C1C;}
	.st4{fill:#BCBCBC;}
	.st5{fill:#FFFFFF;}
	.st6{fill:#CAFFE4;}
	.st7{fill:#29E289;}
</style>
<path class="st0" d="M34.6,243.6l-0.4-0.4c-2-1.8-5.3-2.1-7.2,0c-1.9,2-1.9,5.2,0,7.2l0.4,0.5c2,2,5.3,2,7.3,0
	C36.4,248.9,36.8,245.5,34.6,243.6z"/>
<path class="st1" d="M265.8,414.3c0,0-76.4,5.2-121.3,8.1l12.2-81.6c3.7-23.5,1.5-68.6,19.5-84.6c2.1-1.8,4.4-3.3,6.8-4.6
	c12.6-6.1,35-9.4,56.6-9.5c26.2-0.1,53.1,19.7,60,44.9l-28.3,66.1L265.8,414.3z"/>
<path class="st2" d="M255.4,297.1c0,0,38.1,73.4,19.2,77.3c-62.3,12.9-98.4,23.4-98.4,23.4L173,422c0.9,3.7,126,0.5,140.8-16.3
	c10.5-11.9,24.4-39.3-5.2-98.6l-9-20.2L255.4,297.1z"/>
<path class="st2" d="M183.8,259.2l-95,36.8l-3-49.8l-18.6-10.6c0,0-31.1,82.6,5.8,97.5s78.4-12.6,78.4-12.6L183.8,259.2z"/>
<path class="st1" d="M195.5,247c-33.1,10.5-52.9,22.9-99.6,42.4l23.9,53.4l41.3-13.2L195.5,247z"/>
<polyline class="st1" points="249.7,286.9 273.8,342.8 328.1,332.9 291.5,269.9 248.2,286.9 "/>
<path class="st3" d="M221.3,325c11.6-0.6,23-0.1,34.5,0c0.4,0,0.7-0.3,0.7-0.8s-0.3-0.8-0.7-0.8c-11.4-1.4-23.1-0.8-34.5,0.2
	C220.4,323.7,220.4,325.1,221.3,325z"/>
<path class="st3" d="M273.1,260.1c-39.1,3.5-12.4,61.2-2.3,78.6c0.3,0.4,0.8,0.5,1.2,0.3c0.4-0.3,0.5-0.8,0.3-1.2
	c-10-17.6-36.6-71.3,1-76.8C273.8,261,273.7,260.1,273.1,260.1z"/>
<path class="st3" d="M164.8,293.1c-4.9,19.3-8,39-9.2,58.9c0,0.4,0.4,0.7,0.9,0.7c0.3,0,0.5-0.2,0.6-0.5c2.8-19.6,5.6-39.2,8.8-58.8
	C165.8,292.7,164.9,292.4,164.8,293.1L164.8,293.1z"/>
<path class="st3" d="M256.2,186.6l1.8-24.8c6.5-1.8,9.9-10.1,7.3-16.3s-9.9-9.7-16.6-8.8c4.2-2.9,3.9-9.7,0.4-13.4s-8.9-5-14-5.2
	s-10.2,0.4-15.2-0.5c-4.4-0.8-8.8-2.9-13.3-2.3s-8.8,5.6-6.3,9.4c-6.5-0.9-13.5-1.8-19.2,1.3c-5.7,3.1-8.6,12-3.7,16.2
	c-3.3,1.7-4.1,6.4-2.2,9.5s5.6,4.8,9.2,5.1s7.3-0.7,10.8-1.6"/>
<path class="st2" d="M255.2,170.6l-1.3,17.1c0,0,14.6,2,10.4,15.3s-14.1,7.5-14.1,7.5s-2.5,34.1-37.4,23.3
	c-27.8-8.6-26.1-44.6-22.6-75.3c1.3-11.2,11.5-19.3,22.7-18c0,0,0.1,0,0.1,0c0.5,0.1,1,0.1,1.6,0.2l21,4.1
	C247.7,147.2,256.1,158.3,255.2,170.6z"/>
<path class="st2" d="M253.9,202l-9.4,50.2c-2.1,10.9-12.6,18.1-23.5,16.1c-0.3-0.1-0.6-0.1-0.9-0.2l0,0c-10.4-2.5-17-12.6-15.1-23.1
	l5.1-28.8L253.9,202z"/>
<path class="st3" d="M215.3,202.5c0.1,0,0.1,0.2,0,0.4c-0.2,0.4-0.5,0.7-0.9,0.9c-0.7,0.2-1.4,0.1-2-0.3c-0.7-0.5-1.2-1.2-1.5-2
	c-0.5-1.9-0.6-3.8-0.4-5.7c0.1-2.1,0.2-4.3,0.3-6.7c0.6-9.5,1.5-17.2,2.1-17.1s0.6,7.8,0,17.2c-0.1,2.4-0.3,4.6-0.5,6.7
	c-0.3,1.7-0.3,3.5,0,5.2c0.2,1.4,1.1,2,1.8,1.9S215.1,202.4,215.3,202.5z"/>
<path class="st3" d="M203.9,230.2c0.2-0.2,1.9,0.8,4.8,2.1c3.7,1.6,7.7,2.5,11.8,2.6c4.1,0.1,8.1-0.7,11.9-2.1
	c2.9-1.1,4.6-2.1,4.8-1.9s-1.3,1.7-4.2,3.2c-7.9,4-17.2,3.8-24.9-0.5C205.1,232,203.8,230.5,203.9,230.2z"/>
<path class="st3" d="M210.8,209.6c0.2-0.2,1,0.5,2.5,1.1c3.8,1.7,8.2,0.3,10.3-3.3c0.8-1.3,1.1-2.4,1.4-2.4s0.5,1.2-0.1,3
	c-1.5,4.3-6.2,6.5-10.5,5c0,0,0,0,0,0c-0.7-0.2-1.3-0.6-1.9-1C211,210.9,210.5,209.7,210.8,209.6z"/>
<path class="st3" d="M255,204.7c0-0.3,0.8-0.5,1.8-1.1c0.5-0.3,0.8-0.8,0.9-1.3c0.1-0.2,0.1-0.5,0-0.7c-0.1-0.2-0.2-0.3-0.4-0.4
	c-0.1-0.1-0.3-0.1-0.4-0.1c-0.1,0-0.1,0-0.2,0.1l-3,1.6l1.3-2.6c1.3-2.7,2.6-4.5,3-4.4s-0.1,2.4-1.2,5.2l-1.8-0.9
	c0.3-0.5,0.8-0.9,1.4-1c0.5-0.1,1.1-0.1,1.6,0.1c0.8,0.3,1.4,0.9,1.6,1.7c0.2,0.6,0.2,1.3-0.1,1.9c-0.2,0.5-0.5,1-1,1.4
	c-0.8,0.7-1.9,1-2.9,0.8C255.2,204.9,255,204.8,255,204.7z"/>
<path class="st3" d="M224.5,170.4c-0.1-0.3,0.7-0.8,2-1.1c3.6-0.7,7.3,0.2,10.1,2.6c1,0.9,1.4,1.7,1.2,1.9c-0.4,0.4-2.9-1.5-6.5-2.4
	S224.7,171,224.5,170.4z"/>
<path class="st3" d="M193.2,169.3c-0.1-0.2,0.6-0.8,2-1.4c1.9-0.6,3.8-0.9,5.8-0.7c1.9,0.2,3.8,0.7,5.5,1.7c1.3,0.8,1.9,1.5,1.8,1.7
	c-0.3,0.5-3.4-1-7.5-1.3S193.4,169.9,193.2,169.3z"/>
<path class="st3" d="M253.9,187.7c-9.8-9.5-12.6-25.3-15.3-38.7c-9.3,6.6-21.2,8.2-31.9,4.2c-3.3,3.8-7.1,7.2-11.4,9.9
	c-1.2,0.8-2.6,1.5-4,1.1c-1.6-0.5-2.4-2.4-2.8-4c-1.4-5.3-1.2-11,0.6-16.2c1.8-5.3,5.7-9.6,10.9-11.7c5.5-2.1,11.6-1.2,17.2,0.3
	c8.5,2.2,16.7,5.6,24.3,10.1c7.5,4.4,14.6,10.1,17.8,18.2s3.1,23.7-4.5,27.7"/>
<path class="st3" d="M230.7,184.8c-1.5,0.2-2.8-0.7-3.1-2.2c-0.2-1.5,0.8-2.8,2.3-3c1.4-0.2,2.7,0.7,3,2.1v0.6
	C233,183.6,232,184.7,230.7,184.8C230.7,184.8,230.7,184.8,230.7,184.8z"/>
<path class="st3" d="M202.7,181.2c-1.5,0.2-2.8-0.7-3.1-2.2c-0.3-1.5,0.6-2.9,2.1-3.2c1.5-0.3,2.9,0.6,3.2,2.1c0,0.1,0,0.1,0,0.2
	v0.6c0.1,1.2-0.7,2.3-2,2.5C202.9,181.2,202.8,181.2,202.7,181.2z"/>
<path class="st2" d="M65.3,241.6c0,0,3.5-27.5,8.5-27.2s15.1,0,15.1,0s0.8-24.6,3.6-20.7s3.7,37.1-7.1,53L65.3,241.6z"/>
<path class="st2" d="M176.2,397.8c0,0-45.2,7.9-44.3,13.8c0.8,4.1,2.1,8.1,4.1,11.8l40.2-0.9V397.8z"/>
<path class="st4" d="M225,421.4L225,421.4c-0.1-1.6-1.4-2.9-3-3l-88.1-5.4c-1.3-0.1-2.4-0.9-2.8-2.1l-29.6-79.3
	c-0.5-1.3-1.8-2.2-3.2-2.1L3,334.7c-1.7,0.1-3.1,1.6-3,3.3c0,0,0,0,0,0.1c0,0.3,0.1,0.7,0.2,1l32.5,84.1c0.5,1.2,1.7,2.1,3,2.1
	l186.3-0.5c1.7,0,3.2-1.4,3.2-3.1c0,0,0-0.1,0-0.1C225,421.5,225,421.5,225,421.4z"/>
<path class="st5" d="M52.8,376.7c0.3,4.2,3.8,7.3,8,7.1c4.2-0.3,7.3-3.8,7.1-8c-0.3-4.2-3.8-7.3-8-7.1
	C55.7,369,52.6,372.6,52.8,376.7z"/>
<path class="st6" d="M295.5,134.2c-0.1,10.7,2.1,45.9,2.8,56.8c0.1,1.7,1.5,3,3.2,2.9c0,0,0.1,0,0.1,0h0.1l22.4-1.9
	c1.7-0.1,3.2,1.2,3.4,2.9c0,0.3,0,0.6-0.1,0.9l0,0c-0.4,1.7,0.7,3.4,2.4,3.8c1.1,0.3,2.3-0.1,3.1-1l5.8-6.5c0.5-0.6,1.2-0.9,2-1
	l25.1-2.9c1.6-0.2,2.8-1.6,2.8-3.2l-1.6-52.7c-0.1-1.7-1.5-3.1-3.2-3.1l0,0l-65.2,1.9C296.9,131.2,295.6,132.5,295.5,134.2z"/>
<path class="st0" d="M219.9,36.7c0,0-20.6,1-21.3,23c0,0,0.3,12,6.9,16.5s6.2,9.3,6.2,9.3h17.1c0,0-0.7-6.2,2-9.6s9.6-10.6,8.6-21.3
	S230.5,35.6,219.9,36.7z"/>
<path class="st3" d="M211.3,90.8c6.2-0.3,12.4,0.4,18.5,0c0.9,0,1.2-1.4,0.2-1.6c-5.9-1.2-12.7-0.5-18.7,0.1
	C210.4,89.3,210.3,90.8,211.3,90.8z"/>
<path class="st3" d="M213.7,96.1c2.5-0.1,4.9-0.2,7.4-0.2s5,0.4,7.4,0.2c0.4,0,0.8-0.3,0.8-0.8c0,0,0,0,0,0c0-0.4-0.2-0.7-0.6-0.8
	c-4.7-1.2-10.4-0.5-15.2,0.2C212.7,94.8,212.9,96.2,213.7,96.1z"/>
<path class="st3" d="M215.8,100.1c2.1,0.2,4.4,0.8,6.5,0.7c0.5,0,0.9-0.4,0.9-0.9c0,0,0,0,0-0.1c0-0.4-0.3-0.8-0.7-0.9
	c-2.1-0.7-4.6-0.4-6.8-0.3c-0.4,0-0.6,0.3-0.6,0.7c0,0,0,0.1,0,0.1C215.2,99.8,215.4,100.1,215.8,100.1z"/>
<path class="st3" d="M216.7,85.1c0.5-6.1-1.6-12.9-2.6-18.9l-1.8,0.8c0.9,1.4,2.3,5.5,4.5,5.4s3.1-4.2,3.4-5.9h-2
	c0.4,1.9,0.5,6.4,3.5,6c2.5-0.4,4.2-4.1,5-6.1l-2-0.6c-1.5,6-2.2,13.5-0.7,19.5c0.1,0.6,0.5,1,1.1,0.9c0.6-0.1,1-0.5,0.9-1.1
	c-0.2-6.3-1.1-12.5,0.8-18.7c0.4-1.3-1.6-1.8-2-0.6c-0.3,0.7-1.9,4.7-3.4,4.2c-0.4-0.1-0.9-3.7-1-4.1c0-0.6-0.4-1-1-1s-1,0.4-1,1
	c-0.2,1.2-0.7,4.6-2.2,3.6c-0.8-0.6-1.6-2.6-2.1-3.5c-0.4-0.4-0.9-0.5-1.4-0.2c-0.3,0.2-0.5,0.6-0.4,1c0.9,6,1.2,13,3.6,18.6
	C216.1,85.8,216.8,85.5,216.7,85.1L216.7,85.1z"/>
<path class="st0" d="M156.2,77.7c9.1-2.9,18.7-5.3,27.5-9c0.4-0.2,0.6-0.6,0.5-1c-0.1-0.4-0.5-0.6-0.9-0.5c0,0,0,0,0,0
	c-9.3,2.1-18.5,5.7-27.6,8.7c-0.5,0.2-0.7,0.7-0.5,1.2C155.4,77.5,155.8,77.8,156.2,77.7z"/>
<path class="st0" d="M167.4,50.5c5.8-0.1,12,0.3,17.7-0.6c1.1-0.2,0.7-1.8-0.3-1.9c-5.7-0.6-11.8,0.2-17.5,0.4c-0.6,0-1,0.4-1,1
	C166.3,50,166.8,50.5,167.4,50.5z"/>
<path class="st0" d="M195.2,40.1c-3.5-3-6.7-6.3-10.2-9.3c-3.1-2.7-6.2-6-9.9-8c-0.7-0.4-1.6-0.1-2,0.6c-0.3,0.6-0.2,1.2,0.2,1.7
	c2.7,3.3,6.6,5.8,9.9,8.5s7,5.3,10.4,8C194.7,42.4,196.2,41,195.2,40.1z"/>
<path class="st0" d="M209.7,31.7c0.4-1.8-1-3.5-1.9-5c-1.1-1.9-2-4.2-3.6-5.7c-0.5-0.5-1.3-0.5-1.8,0c0,0,0,0-0.1,0.1
	c-0.3,0.4-0.4,0.8-0.3,1.3c0.6,2.1,2.3,4,3.5,5.8c0.9,1.4,1.9,3.6,3.6,4C209.4,32.2,209.6,32,209.7,31.7L209.7,31.7z"/>
<path class="st0" d="M223.5,27.9c0.3-8.7,0.9-18.4-0.5-27c-0.2-1.5-2.3-1-2.5,0.3c-1,8.6,0,18.1,0.7,26.7c0.1,0.6,0.6,1.1,1.2,1
	c0.5,0.1,1-0.3,1.1-0.9C223.5,28,223.5,28,223.5,27.9z"/>
<path class="st0" d="M233.7,32.2c2.4-3.1,4.5-6.5,6.2-10c0.3-0.6,0.1-1.4-0.6-1.8c0,0,0,0,0,0c-0.6-0.3-1.3-0.1-1.7,0.4
	c-2.2,3.2-4.1,6.7-5.6,10.3c-0.3,0.4-0.2,1,0.2,1.2c0,0,0.1,0.1,0.2,0.1c0.4,0.3,0.9,0.3,1.2-0.1C233.7,32.3,233.7,32.3,233.7,32.2z
	"/>
<path class="st0" d="M241.5,39.6c4.3-1.9,8.5-4,12.6-6.3c4.1-2.2,8.8-4.1,12.2-7.3c0.4-0.5,0.4-1.2,0-1.6c0,0-0.1-0.1-0.1-0.1
	c-0.3-0.3-0.7-0.4-1.1-0.3c-4.2,1.2-8,4-11.8,6.2c-4.3,2.5-8.7,4.8-12.6,7.8C240,38.5,240.4,40.1,241.5,39.6z"/>
<path class="st0" d="M247.1,51c3.1,1.3,9.2,0.5,11.5-2.1c0.7-0.8,0.3-2.5-1-2.4c-1.8,0.2-3.3,1.1-5,1.5s-3.7,0.5-5.5,0.9
	c-0.6,0.2-0.9,0.8-0.7,1.3c0,0,0,0,0,0.1C246.6,50.6,246.8,50.9,247.1,51z"/>
<path class="st0" d="M248.4,66.8c6.5,1.7,13,3.2,19.5,4.6c5.9,1.3,12.1,3.3,18.2,3.7c2,0.1,2.1-2.6,0.4-3.2
	c-5.8-2.2-12.5-2.9-18.6-4.1s-12.5-2.4-18.8-3.4C247.5,64.1,246.8,66.4,248.4,66.8z"/>
<path class="st6" d="M4.8,123.2l4.2,50c0.2,2.7,2.5,4.7,5.2,4.7h102.7c2.3,0,4.3,1.5,5,3.7l0,0c0.8,2.8,3.6,4.4,6.4,3.6c0,0,0,0,0,0
	c1.7-0.5,3.1-1.9,3.6-3.6l0.6-2.2c0.6-2.1,2.5-3.7,4.7-3.8l11.7-0.7c2.9-0.2,5-2.6,4.9-5.5c0-0.2,0-0.4-0.1-0.6l-8-44.2
	c-0.4-2.4-2.5-4.2-5-4.3l-130.5-2.8c-2.8-0.1-5.2,2.2-5.3,5c0,0,0,0.1,0,0.1C4.8,122.8,4.8,123,4.8,123.2z"/>
<path class="st3" d="M18.9,140c38.3-1.7,76.7-2,114.8,2c1.7,0.2,1.7-2.5,0-2.7c-38.2-2.7-76.5-4.1-114.8-1.7
	C17.4,137.8,17.4,140.1,18.9,140z"/>
<path class="st3" d="M21.1,152c38.3-1.7,76.7-2,114.8,2c1.7,0.2,1.7-2.5,0-2.7c-38.2-2.7-76.6-4.1-114.8-1.7c-0.7,0-1.2,0.5-1.2,1.2
	C19.9,151.5,20.4,152,21.1,152z"/>
<path class="st3" d="M21.4,161.9c25.7,1.1,51.2-1.3,77,1.3c1.7,0.2,1.7-2.6,0-2.7c-25.7-1.6-51.2-0.7-76.9-1c-0.7,0-1.2,0.5-1.2,1.2
	c-0.1,0.6,0.4,1.1,1,1.2C21.3,161.9,21.4,161.9,21.4,161.9z"/>
<path class="st7" d="M303.7,158.3c0,0,13.3,29.9,17,28.3s38.1-22.9,38.1-22.9s-14.1-26.7-17-28.3S303.7,158.3,303.7,158.3z"/>
<path class="st3" d="M341.8,135.5c0.5,0.2-3.5,12.4-9.1,27.2l-0.2,0.5l-0.3,0.8l-0.8-0.1c-15.4-2.5-27.7-5-27.6-5.5s12.5,1,27.9,3.5
	l-1.1,0.7l0.2-0.5C336.3,147.1,341.2,135.2,341.8,135.5z"/>
<path class="st3" d="M316.3,183.1c-0.5-0.1,0.1-5.1,1.7-11.1s3.6-10.6,4.2-10.4s-0.5,5.1-2.1,11S316.9,183.2,316.3,183.1z"/>
<path class="st3" d="M356.5,157.8c-0.1,0.6-4.9,0.3-10.8-0.6s-10.5-2.1-10.4-2.7s4.9-0.3,10.8,0.6S356.6,157.2,356.5,157.8z"/>
<g>
	<path class="st5" d="M125.2,293.6l18.1,4.8L130,311.7L125.2,293.6 M120.9,289.3l7.5,28.1l20.6-20.6L120.9,289.3L120.9,289.3z"/>
</g>
<g>
	<path class="st0" d="M141.3,208.6c6.3,0,11.5,5.1,11.5,11.5c0,6.3-5.1,11.5-11.5,11.5s-11.5-5.1-11.5-11.5
		C129.9,213.7,135,208.6,141.3,208.6 M141.3,205.6c-8,0-14.5,6.5-14.5,14.5s6.5,14.5,14.5,14.5s14.5-6.5,14.5-14.5
		S149.3,205.6,141.3,205.6L141.3,205.6z"/>
</g>
<g>
	<path class="st7" d="M317.5,228.8l15.2,15.2l-15.2,15.2l-15.2-15.2L317.5,228.8 M317.5,224.5l-19.4,19.4l19.4,19.4l19.4-19.4
		L317.5,224.5L317.5,224.5z"/>
</g>
<g>
	<path class="st7" d="M86.7,52.3l8.7,8.7l-8.7,8.7L78,61.1L86.7,52.3 M86.7,48.1l-13,13l13,13l13-13L86.7,48.1L86.7,48.1z"/>
</g>
</svg>
