<svg id="e91d54ea-ab92-4c0e-9ff3-1a312ce37977" data-name="Слой 1" xmlns="http://www.w3.org/2000/svg" viewBox="0 0 422.9 466.65"><defs><style>.af355056-4570-4db1-be24-9600ea96ceaf{fill:#29e289;}.e21130fc-141e-4273-9c3d-480e6d97b10e{fill:#ffd524;}.b7753e38-6328-4b27-9a88-5f6833fe0a66{fill:#ffc7a1;}.a9990fdf-3b87-411e-9b6f-bc3bf85f38b6{fill:#1c1c1c;}.ea1bb746-7575-4291-a656-6cefd3ce5867{fill:#bcbcbc;}.eed5ccda-c125-4f0c-8bdf-c9f00b1120c8{fill:#fff;}.ea84acc0-49f0-4c0f-bc14-a5cbac1884cf{fill:#ddd;}.ad9f76b1-5413-4ad5-b7b2-a881a8f126b2{fill:#caffe4;}.b91e0f30-3cdc-4c3d-897e-e3357e37c9e6{fill:#e5e8f5;}</style></defs><path class="af355056-4570-4db1-be24-9600ea96ceaf" d="M160.4,210.5c-5,4.8-6.9,12.2-2.1,18,4.5,5.4,13.1,6.6,18.7,2.2,13.5-10.4-.6-29.6-15.1-25.6-2.7.7-2,4.6.6,4.7,4.2.2,8.8.4,12.2,3.4a8.8,8.8,0,0,1,.7,12.3c-7.9,9.8-21.7-4.6-13.4-13.3a1.15,1.15,0,0,0,0-1.7,1,1,0,0,0-1.6,0Z" transform="translate(0 0.02)"/><path class="af355056-4570-4db1-be24-9600ea96ceaf" d="M299.2,226.9c1.8,6.8,3.8,13.5,5.9,20.2a2.12,2.12,0,0,0,2.5,1.6,3.55,3.55,0,0,0,.9-.4c5.4-3.7,10.9-7.3,16-11.4a2,2,0,0,0,.1-2.8c-.1-.1-.2-.2-.3-.2-6-4.1-14.2-10.3-21.9-10.3-2,0-3.3,2.7-1.3,3.9,3.1,1.8,6.8,2.4,10.1,3.8a50.64,50.64,0,0,1,11,5.9c.1-1.1.1-2.2.2-3.3-5.8,3.6-11.2,7.6-16.7,11.5l3.2.6c-2.3-6.6-4.7-13.2-7.3-19.7a1.41,1.41,0,0,0-1.8-.6A1.07,1.07,0,0,0,299.2,226.9Z" transform="translate(0 0.02)"/><path class="e21130fc-141e-4273-9c3d-480e6d97b10e" d="M337.5,262.8a154.65,154.65,0,0,0,23.7-13.6c2.7-1.9,0-5.7-2.8-4.2A166.19,166.19,0,0,0,336,259.7c-1.4,1.2-.4,4,1.5,3.1Z" transform="translate(0 0.02)"/><path class="af355056-4570-4db1-be24-9600ea96ceaf" d="M39.2,287.6a157,157,0,0,0-7.1-26.3c-1.2-3.1-5.5-1.5-4.8,1.6a151.9,151.9,0,0,0,8.6,25.4c.7,1.6,3.7,1.3,3.3-.7Z" transform="translate(0 0.02)"/><path class="e21130fc-141e-4273-9c3d-480e6d97b10e" d="M64.7,209.6l-.4-.4c-2-1.8-5.3-2.1-7.2,0a5.26,5.26,0,0,0,0,7.2l.4.5a5.19,5.19,0,0,0,7.3,0c1.7-2,2.1-5.4-.1-7.3Z" transform="translate(0 0.02)"/><path class="af355056-4570-4db1-be24-9600ea96ceaf" d="M280.5,436.8s-85.1,19.8-119.3-14.4l12.2-81.6c3.7-23.5,1.5-68.6,19.5-84.6a33.9,33.9,0,0,1,6.8-4.6c12.6-6.1,35-9.4,56.6-9.5,26.2-.1,53.1,19.7,60,44.9L288,353.1Z" transform="translate(0 0.02)"/><path class="b7753e38-6328-4b27-9a88-5f6833fe0a66" d="M272.1,297.1s38.1,73.4,19.2,77.3c-62.3,12.9-98.4,23.4-98.4,23.4L189.7,422c.9,3.7,126,.5,140.8-16.3,10.5-11.9,24.4-39.3-5.2-98.6l-9-20.2Z" transform="translate(0 0.02)"/><path class="b7753e38-6328-4b27-9a88-5f6833fe0a66" d="M200.5,259.2l-95,36.8-3-49.8L83.9,235.6s-31.1,82.6,5.8,97.5,78.4-12.6,78.4-12.6Z" transform="translate(0 0.02)"/><path class="af355056-4570-4db1-be24-9600ea96ceaf" d="M212.2,247c-33.1,10.5-52.9,22.9-99.6,42.4l23.9,53.4,41.3-13.2Z" transform="translate(0 0.02)"/><polyline class="af355056-4570-4db1-be24-9600ea96ceaf" points="266.4 286.92 290.5 342.82 344.8 332.92 308.2 269.92 264.9 286.92"/><path class="a9990fdf-3b87-411e-9b6f-bc3bf85f38b6" d="M238,325c11.6-.6,23-.1,34.5,0a.75.75,0,1,0,0-1.5c-11.4-1.4-23.1-.8-34.5.2-.9,0-.9,1.4,0,1.3Z" transform="translate(0 0.02)"/><path class="a9990fdf-3b87-411e-9b6f-bc3bf85f38b6" d="M289.8,260.1c-39.1,3.5-12.4,61.2-2.3,78.6a1,1,0,0,0,1.2.3.9.9,0,0,0,.3-1.2c-10-17.6-36.6-71.3,1-76.8.5,0,.4-.9-.2-.9Z" transform="translate(0 0.02)"/><path class="a9990fdf-3b87-411e-9b6f-bc3bf85f38b6" d="M181.5,293.1a316.75,316.75,0,0,0-9.2,58.9.78.78,0,0,0,1.5.2c2.8-19.6,5.6-39.2,8.8-58.8-.1-.7-1-1-1.1-.3Z" transform="translate(0 0.02)"/><path class="a9990fdf-3b87-411e-9b6f-bc3bf85f38b6" d="M272.9,186.6l1.8-24.8c6.5-1.8,9.9-10.1,7.3-16.3s-9.9-9.7-16.6-8.8c4.2-2.9,3.9-9.7.4-13.4s-8.9-5-14-5.2-10.2.4-15.2-.5c-4.4-.8-8.8-2.9-13.3-2.3s-8.8,5.6-6.3,9.4c-6.5-.9-13.5-1.8-19.2,1.3s-8.6,12-3.7,16.2c-3.3,1.7-4.1,6.4-2.2,9.5s5.6,4.8,9.2,5.1,7.3-.7,10.8-1.6" transform="translate(0 0.02)"/><path class="b7753e38-6328-4b27-9a88-5f6833fe0a66" d="M271.9,170.6l-1.3,17.1s14.6,2,10.4,15.3-14.1,7.5-14.1,7.5-2.5,34.1-37.4,23.3c-27.8-8.6-26.1-44.6-22.6-75.3a20.5,20.5,0,0,1,22.8-18c.5.1,1,.1,1.6.2l21,4.1A24.48,24.48,0,0,1,271.9,170.6Z" transform="translate(0 0.02)"/><path class="b7753e38-6328-4b27-9a88-5f6833fe0a66" d="M270.6,202l-9.4,50.2a20.25,20.25,0,0,1-23.5,16.1c-.3-.1-.6-.1-.9-.2h0A20.05,20.05,0,0,1,221.7,245l5.1-28.8Z" transform="translate(0 0.02)"/><path class="a9990fdf-3b87-411e-9b6f-bc3bf85f38b6" d="M232,202.5c.1,0,.1.2,0,.4a1.59,1.59,0,0,1-.9.9,2.36,2.36,0,0,1-2-.3,4.26,4.26,0,0,1-1.5-2,15.72,15.72,0,0,1-.4-5.7c.1-2.1.2-4.3.3-6.7.6-9.5,1.5-17.2,2.1-17.1s.6,7.8,0,17.2c-.1,2.4-.3,4.6-.5,6.7a15.13,15.13,0,0,0,0,5.2c.2,1.4,1.1,2,1.8,1.9S231.8,202.4,232,202.5Z" transform="translate(0 0.02)"/><path class="a9990fdf-3b87-411e-9b6f-bc3bf85f38b6" d="M220.6,230.2c.2-.2,1.9.8,4.8,2.1a31.67,31.67,0,0,0,11.8,2.6,32.11,32.11,0,0,0,11.9-2.1c2.9-1.1,4.6-2.1,4.8-1.9s-1.3,1.7-4.2,3.2a26.46,26.46,0,0,1-24.9-.5C221.8,232,220.5,230.5,220.6,230.2Z" transform="translate(0 0.02)"/><path class="a9990fdf-3b87-411e-9b6f-bc3bf85f38b6" d="M227.5,209.6c.2-.2,1,.5,2.5,1.1a8,8,0,0,0,10.3-3.3c.8-1.3,1.1-2.4,1.4-2.4s.5,1.2-.1,3a8.21,8.21,0,0,1-10.5,5,6.92,6.92,0,0,1-1.9-1C227.7,210.9,227.2,209.7,227.5,209.6Z" transform="translate(0 0.02)"/><path class="a9990fdf-3b87-411e-9b6f-bc3bf85f38b6" d="M271.7,204.7c0-.3.8-.5,1.8-1.1a2,2,0,0,0,.9-1.3.85.85,0,0,0,0-.7.78.78,0,0,0-.4-.4.6.6,0,0,0-.4-.1c-.1,0-.1,0-.2.1l-3,1.6,1.3-2.6c1.3-2.7,2.6-4.5,3-4.4s-.1,2.4-1.2,5.2l-1.8-.9a2.07,2.07,0,0,1,1.4-1,2.92,2.92,0,0,1,1.6.1,2.7,2.7,0,0,1,1.6,1.7,2.51,2.51,0,0,1-.1,1.9,3.32,3.32,0,0,1-1,1.4,3.45,3.45,0,0,1-2.9.8Q271.7,204.85,271.7,204.7Z" transform="translate(0 0.02)"/><path class="a9990fdf-3b87-411e-9b6f-bc3bf85f38b6" d="M241.2,170.4c-.1-.3.7-.8,2-1.1a11.92,11.92,0,0,1,10.1,2.6c1,.9,1.4,1.7,1.2,1.9-.4.4-2.9-1.5-6.5-2.4S241.4,171,241.2,170.4Z" transform="translate(0 0.02)"/><path class="a9990fdf-3b87-411e-9b6f-bc3bf85f38b6" d="M209.9,169.3c-.1-.2.6-.8,2-1.4a14.06,14.06,0,0,1,5.8-.7,13.57,13.57,0,0,1,5.5,1.7c1.3.8,1.9,1.5,1.8,1.7-.3.5-3.4-1-7.5-1.3S210.1,169.9,209.9,169.3Z" transform="translate(0 0.02)"/><path class="a9990fdf-3b87-411e-9b6f-bc3bf85f38b6" d="M270.6,187.7c-9.8-9.5-12.6-25.3-15.3-38.7a34.28,34.28,0,0,1-31.9,4.2,51.41,51.41,0,0,1-11.4,9.9c-1.2.8-2.6,1.5-4,1.1-1.6-.5-2.4-2.4-2.8-4a28,28,0,0,1,.6-16.2,19.13,19.13,0,0,1,10.9-11.7c5.5-2.1,11.6-1.2,17.2.3a93.94,93.94,0,0,1,24.3,10.1c7.5,4.4,14.6,10.1,17.8,18.2s3.1,23.7-4.5,27.7" transform="translate(0 0.02)"/><path class="a9990fdf-3b87-411e-9b6f-bc3bf85f38b6" d="M247.4,184.8a2.73,2.73,0,0,1-3.1-2.2,2.69,2.69,0,0,1,5.3-.9v.6A2.35,2.35,0,0,1,247.4,184.8Z" transform="translate(0 0.02)"/><path class="a9990fdf-3b87-411e-9b6f-bc3bf85f38b6" d="M219.4,181.2a2.73,2.73,0,0,1-3.1-2.2,2.69,2.69,0,1,1,5.3-.9v.6A2.24,2.24,0,0,1,219.4,181.2Z" transform="translate(0 0.02)"/><path class="b7753e38-6328-4b27-9a88-5f6833fe0a66" d="M82,241.6s3.5-27.5,8.5-27.2,15.1,0,15.1,0,.8-24.6,3.6-20.7,3.7,37.1-7.1,53Z" transform="translate(0 0.02)"/><path class="b7753e38-6328-4b27-9a88-5f6833fe0a66" d="M192.9,397.8s-45.2,7.9-44.3,13.8a41.36,41.36,0,0,0,4.1,11.8l40.2-.9Z" transform="translate(0 0.02)"/><path class="ea1bb746-7575-4291-a656-6cefd3ce5867" d="M241.7,421.4h0a3.23,3.23,0,0,0-3-3L150.6,413a3.14,3.14,0,0,1-2.8-2.1l-29.6-79.3a3.25,3.25,0,0,0-3.2-2.1l-95.3,5.2a3.17,3.17,0,0,0-3,3.4,3.55,3.55,0,0,0,.2,1l32.5,84.1a3.37,3.37,0,0,0,3,2.1l186.3-.5a3.16,3.16,0,0,0,3.2-3.2C241.7,421.5,241.7,421.5,241.7,421.4Z" transform="translate(0 0.02)"/><path class="eed5ccda-c125-4f0c-8bdf-c9f00b1120c8" d="M69.5,376.7a7.56,7.56,0,1,0,7.1-8,7.6,7.6,0,0,0-7.1,8Z" transform="translate(0 0.02)"/><path class="ea84acc0-49f0-4c0f-bc14-a5cbac1884cf" d="M0,424l399.5-5,23.4,12.3C422.8,431.2,116.2,515.5,0,424Z" transform="translate(0 0.02)"/><path class="ad9f76b1-5413-4ad5-b7b2-a881a8f126b2" d="M312.2,134.2c-.1,10.7,2.1,45.9,2.8,56.8a3.06,3.06,0,0,0,3.3,2.9h.1l22.4-1.9a3.22,3.22,0,0,1,3.4,2.9,2.77,2.77,0,0,1-.1.9h0a3.19,3.19,0,0,0,2.4,3.8,3.1,3.1,0,0,0,3.1-1l5.8-6.5a3,3,0,0,1,2-1l25.1-2.9a3.23,3.23,0,0,0,2.8-3.2l-1.6-52.7a3.2,3.2,0,0,0-3.2-3.1h0l-65.2,1.9A3.18,3.18,0,0,0,312.2,134.2Z" transform="translate(0 0.02)"/><path class="e21130fc-141e-4273-9c3d-480e6d97b10e" d="M236.6,36.7s-20.6,1-21.3,23c0,0,.3,12,6.9,16.5s6.2,9.3,6.2,9.3h17.1s-.7-6.2,2-9.6,9.6-10.6,8.6-21.3S247.2,35.6,236.6,36.7Z" transform="translate(0 0.02)"/><path class="a9990fdf-3b87-411e-9b6f-bc3bf85f38b6" d="M228,90.8c6.2-.3,12.4.4,18.5,0,.9,0,1.2-1.4.2-1.6-5.9-1.2-12.7-.5-18.7.1-.9,0-1,1.5,0,1.5Z" transform="translate(0 0.02)"/><path class="a9990fdf-3b87-411e-9b6f-bc3bf85f38b6" d="M230.4,96.1c2.5-.1,4.9-.2,7.4-.2s5,.4,7.4.2a.79.79,0,0,0,.8-.8.76.76,0,0,0-.6-.8c-4.7-1.2-10.4-.5-15.2.2C229.4,94.8,229.6,96.2,230.4,96.1Z" transform="translate(0 0.02)"/><path class="a9990fdf-3b87-411e-9b6f-bc3bf85f38b6" d="M232.5,100.1c2.1.2,4.4.8,6.5.7a.92.92,0,0,0,.9-1,1,1,0,0,0-.7-.9c-2.1-.7-4.6-.4-6.8-.3a.64.64,0,0,0-.6.8C231.9,99.8,232.1,100.1,232.5,100.1Z" transform="translate(0 0.02)"/><path class="a9990fdf-3b87-411e-9b6f-bc3bf85f38b6" d="M233.4,85.1c.5-6.1-1.6-12.9-2.6-18.9L229,67c.9,1.4,2.3,5.5,4.5,5.4s3.1-4.2,3.4-5.9h-2c.4,1.9.5,6.4,3.5,6,2.5-.4,4.2-4.1,5-6.1l-2-.6c-1.5,6-2.2,13.5-.7,19.5a1,1,0,1,0,2-.2c-.2-6.3-1.1-12.5.8-18.7.4-1.3-1.6-1.8-2-.6-.3.7-1.9,4.7-3.4,4.2-.4-.1-.9-3.7-1-4.1a1,1,0,0,0-2,0c-.2,1.2-.7,4.6-2.2,3.6-.8-.6-1.6-2.6-2.1-3.5a1.08,1.08,0,0,0-1.4-.2,1,1,0,0,0-.4,1c.9,6,1.2,13,3.6,18.6.2.4.9.1.8-.3Z" transform="translate(0 0.02)"/><path class="e21130fc-141e-4273-9c3d-480e6d97b10e" d="M172.9,77.7c9.1-2.9,18.7-5.3,27.5-9a.83.83,0,0,0,.5-1,.72.72,0,0,0-.9-.5c-9.3,2.1-18.5,5.7-27.6,8.7a.94.94,0,0,0,.5,1.8Z" transform="translate(0 0.02)"/><path class="e21130fc-141e-4273-9c3d-480e6d97b10e" d="M184.1,50.5c5.8-.1,12,.3,17.7-.6,1.1-.2.7-1.8-.3-1.9-5.7-.6-11.8.2-17.5.4a1,1,0,0,0-1,1A1.18,1.18,0,0,0,184.1,50.5Z" transform="translate(0 0.02)"/><path class="e21130fc-141e-4273-9c3d-480e6d97b10e" d="M211.9,40.1c-3.5-3-6.7-6.3-10.2-9.3-3.1-2.7-6.2-6-9.9-8a1.49,1.49,0,0,0-2,.6,1.53,1.53,0,0,0,.2,1.7c2.7,3.3,6.6,5.8,9.9,8.5s7,5.3,10.4,8c1.1.8,2.6-.6,1.6-1.5Z" transform="translate(0 0.02)"/><path class="e21130fc-141e-4273-9c3d-480e6d97b10e" d="M226.4,31.7c.4-1.8-1-3.5-1.9-5-1.1-1.9-2-4.2-3.6-5.7a1.3,1.3,0,0,0-1.9.1,1.44,1.44,0,0,0-.3,1.3c.6,2.1,2.3,4,3.5,5.8.9,1.4,1.9,3.6,3.6,4a.63.63,0,0,0,.6-.5Z" transform="translate(0 0.02)"/><path class="e21130fc-141e-4273-9c3d-480e6d97b10e" d="M240.2,27.9c.3-8.7.9-18.4-.5-27-.2-1.5-2.3-1-2.5.3-1,8.6,0,18.1.7,26.7a1.11,1.11,0,0,0,1.2,1,1,1,0,0,0,1.1-1Z" transform="translate(0 0.02)"/><path class="e21130fc-141e-4273-9c3d-480e6d97b10e" d="M250.4,32.2a57.43,57.43,0,0,0,6.2-10,1.32,1.32,0,0,0-.6-1.8,1.39,1.39,0,0,0-1.7.4,57,57,0,0,0-5.6,10.3.88.88,0,0,0,.4,1.3.86.86,0,0,0,1.3-.2Z" transform="translate(0 0.02)"/><path class="e21130fc-141e-4273-9c3d-480e6d97b10e" d="M258.2,39.6a123.36,123.36,0,0,0,12.6-6.3c4.1-2.2,8.8-4.1,12.2-7.3a1.15,1.15,0,0,0-.1-1.7,1.13,1.13,0,0,0-1.1-.3c-4.2,1.2-8,4-11.8,6.2-4.3,2.5-8.7,4.8-12.6,7.8-.7.5-.3,2.1.8,1.6Z" transform="translate(0 0.02)"/><path class="e21130fc-141e-4273-9c3d-480e6d97b10e" d="M263.8,51c3.1,1.3,9.2.5,11.5-2.1.7-.8.3-2.5-1-2.4-1.8.2-3.3,1.1-5,1.5s-3.7.5-5.5.9a1.08,1.08,0,0,0-.7,1.4,1.58,1.58,0,0,0,.7.7Z" transform="translate(0 0.02)"/><path class="e21130fc-141e-4273-9c3d-480e6d97b10e" d="M265.1,66.8c6.5,1.7,13,3.2,19.5,4.6,5.9,1.3,12.1,3.3,18.2,3.7,2,.1,2.1-2.6.4-3.2-5.8-2.2-12.5-2.9-18.6-4.1s-12.5-2.4-18.8-3.4c-1.6-.3-2.3,2-.7,2.4Z" transform="translate(0 0.02)"/><path class="e21130fc-141e-4273-9c3d-480e6d97b10e" d="M90.8,281.5c.4-2.7.3-5.3,1.9-7.7,3-4.8,7.3-3.6,11.5-1.5s8.2,3.4,12.9,1.4c7.2-3.1,10.6-14,3.7-19.1-2.2-1.7-4.4,1.1-4.1,3.2.4,2.9,1.9,6.1-.6,8.7-3.4,3.4-7.3.5-10.6-1a14.07,14.07,0,0,0-11.2-.5c-6.4,2.6-11.1,11.3-6,17.2a1.57,1.57,0,0,0,2.2,0c.1-.2.2-.5.3-.7Z" transform="translate(0 0.02)"/><path class="e21130fc-141e-4273-9c3d-480e6d97b10e" d="M185.5,286.8a157,157,0,0,0,25.7-9.1c3-1.4,1.1-5.6-2-4.6a156.85,156.85,0,0,0-24.6,10.5c-1.6.8-1.1,3.7.9,3.2Z" transform="translate(0 0.02)"/><path class="b91e0f30-3cdc-4c3d-897e-e3357e37c9e6" d="M142.6,295.8c1.8,6.8,3.8,13.5,5.9,20.2a2.12,2.12,0,0,0,2.5,1.6,3.55,3.55,0,0,0,.9-.4c5.4-3.7,10.9-7.3,16-11.4a2,2,0,0,0,.1-2.8c-.1-.1-.2-.2-.3-.2-6.1-4.1-14.2-10.3-21.9-10.3-2,0-3.3,2.7-1.3,3.9,3.1,1.8,6.8,2.4,10.1,3.8a50.64,50.64,0,0,1,11,5.9c.1-1.1.1-2.2.2-3.3-5.8,3.6-11.2,7.5-16.7,11.5l3.2.6c-2.3-6.6-4.7-13.2-7.3-19.7a1.41,1.41,0,0,0-1.8-.6c-.5.1-.7.6-.6,1.2Z" transform="translate(0 0.02)"/><path class="e21130fc-141e-4273-9c3d-480e6d97b10e" d="M154.5,363.6a155.57,155.57,0,0,0,27.3,0c3.3-.3,2.9-4.8-.3-4.9a158.92,158.92,0,0,0-26.7,1.6c-1.8.3-2.4,3.2-.3,3.3Z" transform="translate(0 0.02)"/><path class="ad9f76b1-5413-4ad5-b7b2-a881a8f126b2" d="M21.5,123.2l4.2,50a5.14,5.14,0,0,0,5.2,4.7H133.6a5.16,5.16,0,0,1,5,3.7h0a5.18,5.18,0,0,0,6.4,3.6,5.41,5.41,0,0,0,3.6-3.6l.6-2.2a5.23,5.23,0,0,1,4.7-3.8l11.7-.7a5.24,5.24,0,0,0,4.9-5.5,1.27,1.27,0,0,0-.1-.6l-8-44.2a5.24,5.24,0,0,0-5-4.3L26.9,117.5a5.16,5.16,0,0,0-5.3,5.1A1.27,1.27,0,0,0,21.5,123.2Z" transform="translate(0 0.02)"/><path class="af355056-4570-4db1-be24-9600ea96ceaf" d="M35.6,140c38.3-1.7,76.7-2,114.8,2,1.7.2,1.7-2.5,0-2.7-38.2-2.7-76.5-4.1-114.8-1.7-1.5.2-1.5,2.5,0,2.4Z" transform="translate(0 0.02)"/><path class="af355056-4570-4db1-be24-9600ea96ceaf" d="M37.8,152c38.3-1.7,76.7-2,114.8,2,1.7.2,1.7-2.5,0-2.7-38.2-2.7-76.6-4.1-114.8-1.7a1.2,1.2,0,0,0,0,2.4Z" transform="translate(0 0.02)"/><path class="af355056-4570-4db1-be24-9600ea96ceaf" d="M38.1,161.9c25.7,1.1,51.2-1.3,77,1.3,1.7.2,1.7-2.6,0-2.7-25.7-1.6-51.2-.7-76.9-1a1.22,1.22,0,0,0-1.2,1.2,1.08,1.08,0,0,0,1.1,1.2Z" transform="translate(0 0.02)"/><path class="af355056-4570-4db1-be24-9600ea96ceaf" d="M320.4,158.3s13.3,29.9,17,28.3,38.1-22.9,38.1-22.9-14.1-26.7-17-28.3S320.4,158.3,320.4,158.3Z" transform="translate(0 0.02)"/><path class="a9990fdf-3b87-411e-9b6f-bc3bf85f38b6" d="M358.5,135.5c.5.2-3.5,12.4-9.1,27.2l-.2.5-.3.8-.8-.1c-15.4-2.5-27.7-5-27.6-5.5s12.5,1,27.9,3.5l-1.1.7.2-.5C353,147.1,357.9,135.2,358.5,135.5Z" transform="translate(0 0.02)"/><path class="a9990fdf-3b87-411e-9b6f-bc3bf85f38b6" d="M333,183.1c-.5-.1.1-5.1,1.7-11.1s3.6-10.6,4.2-10.4-.5,5.1-2.1,11S333.6,183.2,333,183.1Z" transform="translate(0 0.02)"/><path class="a9990fdf-3b87-411e-9b6f-bc3bf85f38b6" d="M373.2,157.8c-.1.6-4.9.3-10.8-.6s-10.5-2.1-10.4-2.7,4.9-.3,10.8.6S373.3,157.2,373.2,157.8Z" transform="translate(0 0.02)"/></svg>