<svg id="af134792-170b-45ad-89ae-5c4ea16ed40b" data-name="Слой 1" xmlns="http://www.w3.org/2000/svg" viewBox="0 0 290.07 90.96"><defs><style>.bc826142-f5af-4281-9955-107234a54e2b{fill:#1c1c1c;}.ecb7f128-dfeb-466c-8d2f-5be0b2623d55{fill:#ffd524;}.a63f3997-1b6d-4963-96ac-1341d2b4fe40{fill:#fff;stroke:#fff;stroke-miterlimit:10;}</style></defs><title>logo-footer</title><circle class="bc826142-f5af-4281-9955-107234a54e2b" cx="48.06" cy="41.5" r="41.5"/><polygon class="ecb7f128-dfeb-466c-8d2f-5be0b2623d55" points="54.71 7.14 64.96 45.39 92.96 17.39 54.71 7.14"/><polygon class="ecb7f128-dfeb-466c-8d2f-5be0b2623d55" points="33.03 33.74 0 90.95 66.06 90.95 33.03 33.74"/><path class="a63f3997-1b6d-4963-96ac-1341d2b4fe40" d="M82.14,86.09V62.17L71.68,86.09H66L55.51,62.17V86.09H50V48.5h5.55L68.81,78.82,82.11,48.5h5.55V86.09Z" transform="translate(-4.94 -4.5)"/><path class="a63f3997-1b6d-4963-96ac-1341d2b4fe40" d="M135.56,67.32a19.29,19.29,0,0,1-32.9,13.6,19,19,0,0,1,0-27.17,19.31,19.31,0,0,1,32.9,13.57Zm-5.52,0A13.79,13.79,0,1,0,106.53,77,13.79,13.79,0,0,0,130,67.29Z" transform="translate(-4.94 -4.5)"/><path class="a63f3997-1b6d-4963-96ac-1341d2b4fe40" d="M175.63,75.37A10.36,10.36,0,0,1,172.42,83a10.5,10.5,0,0,1-7.59,3.13h-20V48.5h19.06a10.93,10.93,0,0,1,10.8,10.79,9.11,9.11,0,0,1-3.9,7.76A9.05,9.05,0,0,1,175.63,75.37Zm-6.41-16.1a5.16,5.16,0,0,0-1.56-3.77,5.09,5.09,0,0,0-3.72-1.57H150.37V64.57h13.57A5,5,0,0,0,167.66,63,5.12,5.12,0,0,0,169.22,59.27Zm.91,16.1a5.33,5.33,0,0,0-5.27-5.28H150.37V80.65h14.49a5.34,5.34,0,0,0,5.27-5.28Z" transform="translate(-4.94 -4.5)"/><path class="a63f3997-1b6d-4963-96ac-1341d2b4fe40" d="M210.93,86.09l-2.53-6.82H190.81l-2.53,6.82h-5.76L196.14,48.5h7l13.7,37.59Zm-11.31-31-6.84,18.68h13.65Z" transform="translate(-4.94 -4.5)"/><path class="a63f3997-1b6d-4963-96ac-1341d2b4fe40" d="M254.44,59.29a10.86,10.86,0,0,1-10.8,10.8H229.15v16h-5.52V48.5h20a10.95,10.95,0,0,1,10.8,10.79Zm-5.52,0a5.16,5.16,0,0,0-1.56-3.77,5.09,5.09,0,0,0-3.72-1.57H229.15V64.57h14.49A5,5,0,0,0,247.36,63,5.12,5.12,0,0,0,248.92,59.27Z" transform="translate(-4.94 -4.5)"/><path class="a63f3997-1b6d-4963-96ac-1341d2b4fe40" d="M294.5,59.29a10.84,10.84,0,0,1-10.79,10.8H269.22v16H263.7V48.5h20A10.93,10.93,0,0,1,294.5,59.29Zm-5.52,0a5.16,5.16,0,0,0-1.56-3.77,5.08,5.08,0,0,0-3.71-1.57H269.22V64.57h14.49A5,5,0,0,0,287.42,63,5.12,5.12,0,0,0,289,59.27Z" transform="translate(-4.94 -4.5)"/></svg>