<svg id="fd71d2c4-3ffa-4b38-ae7a-0547cda3e741" data-name="Слой 1" xmlns="http://www.w3.org/2000/svg" viewBox="0 0 445.9 345.2"><defs><style>.a08a8deb-527a-4cb5-a3e9-dde4fe7f1855,.ea3dd987-1dad-42da-a972-ae75437852ca{fill:#caffe4;}.a18c58a0-66e0-4383-99e5-530ab05542d1,.a649927f-a4f7-4d3d-b1da-a7cbae1eab0e,.af4f9bb2-4893-4d5e-b8bc-563c2eb056cf,.ba18d4b5-9c94-412b-b290-54243fc30752,.bb4f138e-8ba5-4fd5-be69-e48b03b17bad,.bc301727-9470-4dde-af64-eacf8fe6146b,.bd9225d0-2acf-49fb-a789-b745b5e57d31,.effcdcd9-c110-487b-a542-4d4cb258b173,.f609afbb-75af-413a-8d97-2d99ac63739b{fill:none;}.a649927f-a4f7-4d3d-b1da-a7cbae1eab0e,.bd9225d0-2acf-49fb-a789-b745b5e57d31{stroke:#caffe4;}.a08a8deb-527a-4cb5-a3e9-dde4fe7f1855,.a18c58a0-66e0-4383-99e5-530ab05542d1,.a649927f-a4f7-4d3d-b1da-a7cbae1eab0e,.af4f9bb2-4893-4d5e-b8bc-563c2eb056cf,.ba18d4b5-9c94-412b-b290-54243fc30752,.bc301727-9470-4dde-af64-eacf8fe6146b,.bceab78c-889b-44af-a22d-083965a172fb,.bd9225d0-2acf-49fb-a789-b745b5e57d31,.f506fd47-7cfb-48ad-8b10-1879dceb5e03,.f609afbb-75af-413a-8d97-2d99ac63739b{stroke-linecap:round;stroke-linejoin:round;}.e0c6c9ef-d0ab-4c66-b242-496152265bd6{fill:#1c1c1c;}.b44c2765-576a-4b40-b773-7825385f271b,.e662f5f9-dbca-404b-9964-7c8b233f64fc{fill:#fff;}.b742eb48-bc10-4fb6-a3d6-3fd9fe9b015f{fill:#29e289;}.a08a8deb-527a-4cb5-a3e9-dde4fe7f1855,.b44c2765-576a-4b40-b773-7825385f271b,.bc301727-9470-4dde-af64-eacf8fe6146b,.bceab78c-889b-44af-a22d-083965a172fb,.effcdcd9-c110-487b-a542-4d4cb258b173,.f506fd47-7cfb-48ad-8b10-1879dceb5e03,.f609afbb-75af-413a-8d97-2d99ac63739b{stroke:#1c1c1c;}.a630d62d-f653-4bf8-bc07-cff7f6ef6615{fill:#ffc7a1;}.f506fd47-7cfb-48ad-8b10-1879dceb5e03{fill:#ffd524;}.b44c2765-576a-4b40-b773-7825385f271b,.effcdcd9-c110-487b-a542-4d4cb258b173{stroke-miterlimit:10;}.a6d3d611-f31d-4506-9acb-57dad71b51be,.bceab78c-889b-44af-a22d-083965a172fb{fill:#ddd;}.ec9118e9-4753-4a74-9100-30e4453dc47b{fill:#bcbcbc;}.af4f9bb2-4893-4d5e-b8bc-563c2eb056cf{stroke:#fff;}.b7843a23-fc06-44ee-b5d4-df0a766ca246{fill:#ff5c45;}.a08a8deb-527a-4cb5-a3e9-dde4fe7f1855,.bd9225d0-2acf-49fb-a789-b745b5e57d31,.f609afbb-75af-413a-8d97-2d99ac63739b{stroke-width:2px;}.ba18d4b5-9c94-412b-b290-54243fc30752{stroke:#18104b;}.a18c58a0-66e0-4383-99e5-530ab05542d1{stroke:#29e289;}</style></defs><path class="ea3dd987-1dad-42da-a972-ae75437852ca" d="M14.2,180.9h1.1a3.12,3.12,0,0,1,3.1,3.1h0v29.7H11.2V184a3,3,0,0,1,3-3.1Z"/><path class="ea3dd987-1dad-42da-a972-ae75437852ca" d="M40.8,170.6h0a3.59,3.59,0,0,1,3.6,3.6h0v39.6H37.2V174.2A3.59,3.59,0,0,1,40.8,170.6Z"/><path class="ea3dd987-1dad-42da-a972-ae75437852ca" d="M28.1,160.3h0a3.59,3.59,0,0,1,3.6,3.6h0v49.8H24.5V163.9A3.59,3.59,0,0,1,28.1,160.3Z"/><path class="ea3dd987-1dad-42da-a972-ae75437852ca" d="M55.7,145.4h0a3.59,3.59,0,0,1,3.6,3.6h0v64.7H52.1V149a3.59,3.59,0,0,1,3.6-3.6Z"/><polyline class="a649927f-a4f7-4d3d-b1da-a7cbae1eab0e" points="0.5 152.6 0.5 213.7 68 213.7"/><path class="ea3dd987-1dad-42da-a972-ae75437852ca" d="M408.6,91.3c.9,0,2.4.2,3.2-.2,1.1-.6.7-2.2.7-3.2s.3-2.5-.9-3a11.45,11.45,0,0,0-3.2-.1l.7.6a11.9,11.9,0,0,0-1.7-3.6l-.1.9a10,10,0,0,0,2.2-2.4c.5-1.2-1-2.1-1.8-2.8s-1.7-2.1-2.9-1.4a12.52,12.52,0,0,0-2.3,2.3l.9-.1a9.33,9.33,0,0,0-3.3-1.2l.5.7a12.17,12.17,0,0,0-.1-3.3c-.4-1.3-2.2-1-3.3-1s-2.8-.3-3.1,1.1a18.19,18.19,0,0,0,0,3.3l.5-.7a11.66,11.66,0,0,0-3.6,1.6l.9.1a17.53,17.53,0,0,0-2.4-2.3c-1.3-.8-2.2.7-3,1.5s-2.3,1.8-1.4,3.1a17.53,17.53,0,0,0,2.4,2.3l-.1-.9a13.65,13.65,0,0,0-1.4,3.3l.7-.6a12.17,12.17,0,0,0-3.3.1c-1.5.3-1.1,2.1-1.1,3.2s-.3,2.9,1.1,3.2a17.1,17.1,0,0,0,3.2,0l-.7-.6a11.45,11.45,0,0,0,1.5,3.6l.1-.9a15.07,15.07,0,0,0-2.1,2.3c-.8,1.2.6,2.2,1.4,2.9s1.7,2.1,2.8,1.7c.9-.3,1.8-1.6,2.4-2.4l-.9.1a13.65,13.65,0,0,0,3.3,1.4l-.5-.7a10.75,10.75,0,0,0,.1,3.1c.4,1.3,2.1,1,3.1,1s2.6.3,3.1-.8a8.1,8.1,0,0,0,.1-3.1l-.5.7a13.36,13.36,0,0,0,3.9-1.6l-.9-.1a9.3,9.3,0,0,0,2.3,2.1c1.2.5,2.1-.9,2.8-1.6s2-1.6,1.6-2.7c-.3-.9-1.5-1.6-2.2-2.3l.1.9a12.81,12.81,0,0,0,1.4-3.7c.2-.9-1.2-1.3-1.4-.4a10.87,10.87,0,0,1-1.3,3.4.74.74,0,0,0,.1.9,12.88,12.88,0,0,0,1.7,1.6c.3.2.1,0,.1-.1l-.3.3a4.74,4.74,0,0,0-1,1,5.24,5.24,0,0,0-1,1.1l-.3.3c-.1.1.3.2.1-.1-.6-.6-1.2-1.1-1.8-1.7a.74.74,0,0,0-.9-.1,12,12,0,0,1-3.5,1.5.75.75,0,0,0-.5.7,10.44,10.44,0,0,0,0,2.5c.1.3-.1.1.2,0h-3.8c.2.1.1.2.2,0a10.45,10.45,0,0,0,0-2.5.75.75,0,0,0-.5-.7,13.43,13.43,0,0,1-3-1.2.74.74,0,0,0-.9.1,10.71,10.71,0,0,0-1.8,1.9c-.1.3,0,.1.1.1l-.3-.3a11.41,11.41,0,0,0-1.1-1.1,5.24,5.24,0,0,0-1.1-1l-.2-.2c.1.3-.1.2.2,0,.6-.6,1.2-1.2,1.8-1.9a.74.74,0,0,0,.1-.9,12.15,12.15,0,0,1-1.4-3.3,1.06,1.06,0,0,0-.7-.6,8.17,8.17,0,0,0-2.7.1c-.3.1-.3-.2-.1.2v-.3a4.3,4.3,0,0,0,0-1.6,4.3,4.3,0,0,0,0-1.6v-.3c-.1.4-.2.1.1.2a12.19,12.19,0,0,0,2.7,0,.73.73,0,0,0,.7-.6,13.43,13.43,0,0,1,1.2-3,.74.74,0,0,0-.1-.9,11.9,11.9,0,0,0-2-1.9c-.3-.1-.1-.4-.3,0,0-.1.2-.2.2-.2a4.26,4.26,0,0,0,1.1-1.2,4.26,4.26,0,0,0,1.1-1.2l.2-.2c-.3.2-.2-.1,0,.2a11.9,11.9,0,0,0,2,1.9.74.74,0,0,0,.9.1,13,13,0,0,1,3.2-1.4.75.75,0,0,0,.5-.7,12.19,12.19,0,0,0,0-2.7V75c-.2.4-.2.1.1.2a3.79,3.79,0,0,0,1.5,0h2c-.2-.1-.1-.3-.2,0a13.09,13.09,0,0,0,0,2.8.75.75,0,0,0,.5.7,10.21,10.21,0,0,1,2.9,1.1.74.74,0,0,0,.9-.1c.6-.6,1.2-1.2,1.8-1.9.2-.3.4-.2,0-.3a.22.22,0,0,1,.2.2,5.24,5.24,0,0,0,1.1,1,11.41,11.41,0,0,0,1.1,1.1l.3.3s.2-.3-.1-.1a16.18,16.18,0,0,0-1.8,1.9.74.74,0,0,0-.1.9A10.36,10.36,0,0,1,407,86a1.06,1.06,0,0,0,.7.6,10.45,10.45,0,0,0,2.5,0c.2-.1.2.2,0-.2v.3a3.79,3.79,0,0,0,0,1.5v2c0,.2.3-.2.1-.1a10.45,10.45,0,0,1-2.5,0,.79.79,0,0,0-.8.8C407.9,90.9,408.2,91.3,408.6,91.3Z"/><path class="ea3dd987-1dad-42da-a972-ae75437852ca" d="M403.6,90.8a6.46,6.46,0,0,1-6,3.9,6.16,6.16,0,0,1,.5-12.3,5.71,5.71,0,0,1,3.1,1,6.33,6.33,0,0,1,2.3,7.6c-.4.9,1.1,1.3,1.5.4a8.2,8.2,0,1,0-.1.2C405.3,90.6,404,89.9,403.6,90.8Z"/><polygon class="e0c6c9ef-d0ab-4c66-b242-496152265bd6" points="122.4 260 118.2 260.1 102.9 320.2 107.2 320.1 122.4 260"/><polygon class="e0c6c9ef-d0ab-4c66-b242-496152265bd6" points="121.2 263.2 117 263.4 131.2 323.4 135.4 323.3 121.2 263.2"/><polygon class="e0c6c9ef-d0ab-4c66-b242-496152265bd6" points="76.9 260 72.7 260.1 57.4 320.2 61.7 320.1 76.9 260"/><polygon class="e0c6c9ef-d0ab-4c66-b242-496152265bd6" points="75.7 263.2 71.5 263.4 85.7 323.4 89.8 323.3 75.7 263.2"/><path class="e0c6c9ef-d0ab-4c66-b242-496152265bd6" d="M67.2,264.6h57.5V266a2.65,2.65,0,0,1-2.6,2.6H69.8a2.65,2.65,0,0,1-2.6-2.6h0v-1.4Z"/><polygon class="e662f5f9-dbca-404b-9964-7c8b233f64fc" points="130.2 264.4 61.9 264.4 49.5 178.5 117.8 178.5 130.2 264.4"/><polygon class="b742eb48-bc10-4fb6-a3d6-3fd9fe9b015f" points="121.3 248 65.7 248 56.6 185.2 112.3 185.2 121.3 248"/><path class="bc301727-9470-4dde-af64-eacf8fe6146b" d="M65.7,248s9.5-40.7,12.9-42.8,13.5,12.2,16.5,10.6,8.5-25.5,8.5-25.5"/><path class="bc301727-9470-4dde-af64-eacf8fe6146b" d="M56.6,185.2c.2.5,9.3,62.8,9.3,62.8l55.5-.1"/><polyline class="bc301727-9470-4dde-af64-eacf8fe6146b" points="58.7 240.9 49.5 178.5 75 178.5"/><polyline class="bc301727-9470-4dde-af64-eacf8fe6146b" points="59.6 248.1 61.9 264.4 79.9 264.4"/><line class="bc301727-9470-4dde-af64-eacf8fe6146b" x1="68" y1="253.6" x2="122.9" y2="253.6"/><line class="bc301727-9470-4dde-af64-eacf8fe6146b" x1="70.2" y1="257.9" x2="125.1" y2="257.9"/><path class="bc301727-9470-4dde-af64-eacf8fe6146b" d="M101.4,185.2l10.8.1s2,13,2,13.5"/><polyline class="bc301727-9470-4dde-af64-eacf8fe6146b" points="97.2 178.2 117.8 178.5 119.8 192.7"/><path class="a630d62d-f653-4bf8-bc07-cff7f6ef6615" d="M397.3,301.3a21.69,21.69,0,0,0,3.5.7c1.3,0,4.5-7.1,4.5-7.1l-1.8-1.6S399.8,294.8,397.3,301.3Z"/><path class="e0c6c9ef-d0ab-4c66-b242-496152265bd6" d="M405.3,294.9s-3.2,7.1-4.5,7.1c0,0-6.5,9.9-1.6,14.5,0,0,10.7-17.5,10.9-19.5S405.3,294.9,405.3,294.9Z"/><path class="a630d62d-f653-4bf8-bc07-cff7f6ef6615" d="M319.6,196.1l-3,7.5s-1,7-4,8.8-12.1-10-12.1-10-5.4-1.4-7.3,1.8.7,10.3,9,16.3c2.7,2,15.6,7.8,19.8,1.8s7.5-15.9,7.5-15.9Z"/><path class="e0c6c9ef-d0ab-4c66-b242-496152265bd6" d="M320.8,200.2l7.1,9.3-5.9,2.6C322,212.2,321,199.9,320.8,200.2Z"/><path class="e0c6c9ef-d0ab-4c66-b242-496152265bd6" d="M303,208.8c-5.4-3.6-10.7-4.2-8.1-.6s20.8,14.9,27,13.1c3.6-1-3.2-2.1-9.3-5.5A73.68,73.68,0,0,1,303,208.8Z"/><rect class="f506fd47-7cfb-48ad-8b10-1879dceb5e03" x="202.6" y="307.1" width="7" height="35.7"/><rect class="e0c6c9ef-d0ab-4c66-b242-496152265bd6" x="202.6" y="307.1" width="7" height="11.3"/><rect class="f506fd47-7cfb-48ad-8b10-1879dceb5e03" x="265.5" y="307.1" width="7" height="35.7"/><rect class="e0c6c9ef-d0ab-4c66-b242-496152265bd6" x="265.5" y="307.1" width="7" height="11.9"/><rect class="f506fd47-7cfb-48ad-8b10-1879dceb5e03" x="202.6" y="307.1" width="69.9" height="7"/><path class="e0c6c9ef-d0ab-4c66-b242-496152265bd6" d="M166.3,310.5H146.8V314H181v-3.5Z"/><path class="b44c2765-576a-4b40-b773-7825385f271b" d="M174,267.1c6.5-24.7,22.3-38.3,22.3-38.3l15.1,61.5c-27.3,0-35.6,21.1-35.6,21.1S167.3,292.5,174,267.1Z"/><path class="b742eb48-bc10-4fb6-a3d6-3fd9fe9b015f" d="M187.2,303.1H175.4s-21.1,2.1-21.1,7.7H186Z"/><path class="b44c2765-576a-4b40-b773-7825385f271b" d="M262.6,289.4s27.5.7,37.1,20.3c0,0,20.1-44-21.5-82.3a312.41,312.41,0,0,1-7.2,35.9C266,282.2,262.6,289.4,262.6,289.4Z"/><path class="bceab78c-889b-44af-a22d-083965a172fb" d="M284.1,175.5c.6-11,.9-22.6,1.1-34.8.3-24.9-4.5-45.5-11.2-62.2a57.62,57.62,0,0,1-75.7.4,206.44,206.44,0,0,0-11.5,59.8c-2.3,50.6,15.9,125.3,24.1,151.1a62.06,62.06,0,0,0,3,8.2h49.4c1-2.4,1.9-5,2.9-7.9,5.3-15.8,10.4-38.9,14-69.2Z"/><path class="ec9118e9-4753-4a74-9100-30e4453dc47b" d="M279.7,221.1a62,62,0,0,1-6.2-.6s.6-10.4-7.8-10.4c-7.1,0-7.4,10.9-7.4,10.9l-11,.1V205.8s-11.8,1.7-11.8-7.8c0-8.9,11.4-7.8,11.4-7.8l-.3-13,11.1-.4s.7,9.8,8.8,9.8c8.3,0,9.2-10.4,9.2-10.4s7.9-.2,7.9-.5C283.5,175.7,281.3,218.2,279.7,221.1Z"/><path class="b44c2765-576a-4b40-b773-7825385f271b" d="M274,78.6c-14.7-36.5-38.7-53.7-38.7-53.7C223,32,208.3,51,198.3,79a57.62,57.62,0,0,0,75.7-.4Z"/><path class="f506fd47-7cfb-48ad-8b10-1879dceb5e03" d="M266.2,290.1c-1,2.9-1.9,5.5-2.9,7.9H214a62.06,62.06,0,0,1-3-8.2h55.2Z"/><path class="e0c6c9ef-d0ab-4c66-b242-496152265bd6" d="M258.4,298h-40l4.3,9.5h32.1Z"/><path class="b44c2765-576a-4b40-b773-7825385f271b" d="M239.6,226.4c-3.6,2.4-12.7,56,.2,81.4,0,0,5.3-15.8,4.5-41.4S239.6,226.4,239.6,226.4Z"/><circle class="effcdcd9-c110-487b-a542-4d4cb258b173" cx="235.9" cy="131.9" r="26.3" transform="translate(67.92 343.63) rotate(-80.78)"/><circle class="b44c2765-576a-4b40-b773-7825385f271b" cx="235.6" cy="132" r="20.7" transform="translate(67.57 343.41) rotate(-80.78)"/><path class="b742eb48-bc10-4fb6-a3d6-3fd9fe9b015f" d="M189.2,122.8c8,1.2,21.6,12.1,22.9,13.5s.1,20.3-1.4,21.8c-.3.3-14.1-7.4-14.1-7.4Z"/><path class="e0c6c9ef-d0ab-4c66-b242-496152265bd6" d="M196.9,132.8s4.1,11.7,4.4,15.3-7.3,3.1-7.3,3.1Z"/><path class="a630d62d-f653-4bf8-bc07-cff7f6ef6615" d="M212.1,136.2c1.2,1.4.1,20.3-1.4,21.8a18.76,18.76,0,0,0,4.4,1.7c3.5,1.1,8.3,2.4,10.5,2.5,9,.2,16.7-24.4,17.9-27.8s5.1-9,4.6-10.1-2.5-.9-4.2,1.7c0,0,3.1-5.1,1.2-5.6s-4.6,3.9-4.6,3.9,2.8-6,1.1-7-4.9,4-4.9,4,1.7-5.1.3-5.9-5.1,9.1-5.1,9.1-.8-4.3-2.3-4.3-1.2,4.2.8,11.8l-7,13.5Z"/><path class="e0c6c9ef-d0ab-4c66-b242-496152265bd6" d="M215,159.8a18.76,18.76,0,0,1-4.4-1.7c1.5-1.5,2.6-20.4,1.4-21.8,0,0,3.8,14.2,3.6,17.7A56.08,56.08,0,0,1,215,159.8Z"/><path class="a630d62d-f653-4bf8-bc07-cff7f6ef6615" d="M165.6,121.6s-.4-18.3,2.5-25.1c4.4-10.3,23.8-10.8,23.8,1,0,7.9,1.7,16.2-1.5,18.2s-8.6,1-8.6,1l-.5,5.2S165.2,121.2,165.6,121.6Z"/><path class="e0c6c9ef-d0ab-4c66-b242-496152265bd6" d="M165.4,117s-.2,2.5,6.9,2.5c5.4,0,7.6-2.5,7.6-2.5s3.4-5.2,3.9-7.9c0,0-3.4-.2-3-4.4s3.4-3.9,3.9,0c0,0,3.7-.7,3.2-6.4,0,0,12.2-1.4,10.3-8.6-1.2-4.7-7.6-2.2-7.6-2.2s3.4-4.9-1.5-6.4c-6.1-1.8-13,6.1-13,6.1s0-5.2-2.7-4.4-6,4.3-4.7,9.5c0,0-4.1-3.2-6.1-.2C160.4,95.6,165.4,107.9,165.4,117Z"/><path class="b742eb48-bc10-4fb6-a3d6-3fd9fe9b015f" d="M150.7,126.6c6.5-3.3,11.8-5,15-5h15.7s14.8-1,16.7,12c.9,5.9-4.7,55.5-4.7,55.5H146.7l1.5-28,.7-32.2A3.71,3.71,0,0,1,150.7,126.6Z"/><path class="e0c6c9ef-d0ab-4c66-b242-496152265bd6" d="M149.7,170.2c6.5-5.6,12.4-11,13.5-16.4a36.9,36.9,0,0,0,0-16.2Z"/><path class="b742eb48-bc10-4fb6-a3d6-3fd9fe9b015f" d="M138.5,146.2c4.2-15.1,10.6-18.5,13.4-20.1,4.1-2.4,10.1-5.3,11.3,11.5.7,9.6-6.4,19.6-6.4,19.6Z"/><path class="a630d62d-f653-4bf8-bc07-cff7f6ef6615" d="M156.8,157.2l-18.4-11-7.3,23.3L121,193.6s-9.5,4.9-10.1,8.4c-.9,5.5,6.4,12.1,8.1,10.1.4-.5-.9-2.8-1.6-5.2,0,0,.8-6.3,5.1-4.4,2.5,1.2,4.4,6.6,4.4,6.6s1.5-6.4,1.2-8.8,11.1-14.2,16.7-22.1S156.8,157.2,156.8,157.2Z"/><path class="e0c6c9ef-d0ab-4c66-b242-496152265bd6" d="M191,198.5c0,8.1-4.8,52.8-4.8,52.8l.9,51.9h-20s-2.6-25.6-5-46.5c-1.9-16.3-3.6-38.5-3.9-40-.6-3.6-1.4-11.4,8.6-16.1S191,198.5,191,198.5Z"/><path class="e0c6c9ef-d0ab-4c66-b242-496152265bd6" d="M193.4,189.1H146.7s-17.6,16.9-20.1,24.1,12.2,55,12.2,55l21.4-3.6-8.9-44.5s17.8-6.4,21.7-8.3,17.5-3.6,20-16.4Z"/><path class="af4f9bb2-4893-4d5e-b8bc-563c2eb056cf" d="M151.3,220.2s17.8-6.4,21.7-8.3,17.5-3.6,20-16.4"/><path class="b742eb48-bc10-4fb6-a3d6-3fd9fe9b015f" d="M146.8,270.8l-1-3.8,14.4-2.4s2.2,9.5.3,10.8-21.7,4.2-27.8,2.8C132.7,278.2,133.7,272.4,146.8,270.8Z"/><polygon class="e662f5f9-dbca-404b-9964-7c8b233f64fc" points="126.3 227.4 124.3 237.4 102.9 342.4 111.4 342.4 131 244.6 132.3 238.4 126.3 227.4"/><polygon class="e0c6c9ef-d0ab-4c66-b242-496152265bd6" points="124.3 237.4 126.3 227.4 132.3 238.4 131 244.6 124.3 237.4"/><polygon class="e0c6c9ef-d0ab-4c66-b242-496152265bd6" points="132.7 278.2 132.7 281.7 163.4 281.7 163.4 277.6 132.7 278.2"/><path class="e662f5f9-dbca-404b-9964-7c8b233f64fc" d="M119.2,212c.4-.5-.9-2.8-1.6-5.2,0,0,.8-6.3,5.1-4.4,2.5,1.2,4.4,6.6,4.4,6.6l65.6,135.6h-9.9Z"/><path class="b7843a23-fc06-44ee-b5d4-df0a766ca246" d="M319.6,196.1l10.6,12.3,8.4-28.1C338.6,180.2,324.7,179.5,319.6,196.1Z"/><path class="b7843a23-fc06-44ee-b5d4-df0a766ca246" d="M338.6,180.2c-7.1,2.7-13.5,9.6-11.1,27.2s4.3,32.9,4.3,32.9l35.8-3.6s3.4-46.4-1.7-52.4S346.8,177.1,338.6,180.2Z"/><path class="bc301727-9470-4dde-af64-eacf8fe6146b" d="M328.1,193.2a67,67,0,0,0,0,15.5l3.7,31.7"/><path class="e0c6c9ef-d0ab-4c66-b242-496152265bd6" d="M347.6,224.6c2.6,1.4,11.9-2.8,16.9-9.9,0,0,4-2.4,2-10.3S347.6,224.6,347.6,224.6Z"/><path class="e0c6c9ef-d0ab-4c66-b242-496152265bd6" d="M335.7,152.5c-3.1.2-4.1,6.2-1,9.9,0,0,5.5-2.4,6-5.5S335.7,152.5,335.7,152.5Z"/><path class="a630d62d-f653-4bf8-bc07-cff7f6ef6615" d="M337.4,155.2c-2.7,1.1-6.7,16.1-5.5,18.2s4.8,3.5,7.1,3.6l-.3,3.2s-3.6,3.4-1.2,4.1,11.1-3.4,12.5-4.8l.7-5.3,1.2-5.6s1.9-6.2,0-8.8S342.2,153.3,337.4,155.2Z"/><path class="e0c6c9ef-d0ab-4c66-b242-496152265bd6" d="M338.6,180.2l.3-3.2a43.43,43.43,0,0,0,6.1,1.1Z"/><path class="e0c6c9ef-d0ab-4c66-b242-496152265bd6" d="M335.5,146.8c-3.2,1.7-1.4,5.8,1.9,8.4a23.87,23.87,0,0,0,7.5,3.7s0,3.9,3.1,4.1c0,0-1.3,8.6-.1,9.3s2.9-3.4,2.9-3.4,7.9-.3,7.2-6.5c-.2-2.2-3.4-1.7-3.4-1.7s2.9-3.1-1-9.4c-4.4-7.1-8.6-1.9-8.4,1C345.3,152.3,343.2,142.7,335.5,146.8Z"/><path class="b7843a23-fc06-44ee-b5d4-df0a766ca246" d="M349.4,200.6s10.8,6.7,14.2,12c0,0,12.7-13.7,4.1-26.4S349.4,200.6,349.4,200.6Z"/><path class="bceab78c-889b-44af-a22d-083965a172fb" d="M293,220.1a1.58,1.58,0,0,0,1.5-1.7v-.1c-.3-3.2-.3-9.8,5.4-10.9,6-1.2,9.2,3.4,10.5,7.2a3.64,3.64,0,0,0,3.9,2.3l8.8-1.4-4.5-36.6a1.56,1.56,0,0,0-1.7-1.4l-9,.9a1.65,1.65,0,0,0-1.5,1.7c.2,3.2,0,10.1-6,11.3-7,1.4-9.5-5.7-10-9.8a1.59,1.59,0,0,0-1.8-1.4l-8.6.8a1.75,1.75,0,0,0-1.5,1.8l1.2,12.2s-11.4-.9-10.5,8.8,11.5,6.1,11.8,6.6.8,6,1,8.8a1.65,1.65,0,0,0,1.7,1.5Z"/><path class="e0c6c9ef-d0ab-4c66-b242-496152265bd6" d="M310.7,195.1c-1.7.3-3,2.1-1.3,4.8s4,3,3.2,1.5A50.3,50.3,0,0,1,310.7,195.1Z"/><path class="a630d62d-f653-4bf8-bc07-cff7f6ef6615" d="M299.9,207.4c2.6,2.6,26.2,21.8,43.3,18.3,10.6-2.2,18.8-14.2,18.8-14.2s-5.3-9.9-10.8-9.9c0,0-7.7,10.6-10.6,10.8s-18.3-3.6-25.7-10.3c0,0-2.4-7.7-4.1-7s.7,5.8.7,5.8l-6.7-6c-3.8-3.4-2.4,2.9.5,5.3,0,0-4.6-4.6-5.8-4.1s1.7,5.5,4.1,7c0,0-5.3-4.8-6-4.1s2.4,4.2,4.3,6.2c0,0-3.9-2.9-4.3-2.2C296.6,204.7,299.9,207.4,299.9,207.4Z"/><path class="e0c6c9ef-d0ab-4c66-b242-496152265bd6" d="M317.1,321.9l3.5-.1,8.9-.2s.1-31.3,2.6-38.6c3.8-10.9,34.3-30.2,35.7-46.3l-35.9,3.6s-12.9,22.4-16.6,33.4c-1.4,4.1-1.9,9.7-1.9,15.5C313.3,304,317.1,321.9,317.1,321.9Z"/><path class="a630d62d-f653-4bf8-bc07-cff7f6ef6615" d="M320.5,321.8l8.9-.2-.2,2.9s-5.5,1.2-7.8-.2Z"/><path class="e0c6c9ef-d0ab-4c66-b242-496152265bd6" d="M305,330.8c3.9-6.3,16.4-6.5,16.4-6.5,2.4,1.4,7.8.2,7.8.2s.6,4.5,0,5.6S305,330.8,305,330.8Z"/><path class="e0c6c9ef-d0ab-4c66-b242-496152265bd6" d="M331.8,240.3s11,28.6,25.8,40.3a206.92,206.92,0,0,0,39.8,24.1l6-11.4s-21.5-19-30.9-24.7c-3.7-2.2-2-21.9-4.9-31.9Z"/><path class="a630d62d-f653-4bf8-bc07-cff7f6ef6615" d="M349.9,173.7c1.4.6,3-.2,3.8-2.8.4-1.5-.6-3.8-2.7-1.6"/><path class="bb4f138e-8ba5-4fd5-be69-e48b03b17bad" d="M62,109.7h54.7A2.26,2.26,0,0,1,119,112v11.7a2.26,2.26,0,0,1-2.3,2.3H62a2.26,2.26,0,0,1-2.3-2.3V112A2.33,2.33,0,0,1,62,109.7Z"/><circle class="a08a8deb-527a-4cb5-a3e9-dde4fe7f1855" cx="60.5" cy="123.9" r="6"/><line class="f609afbb-75af-413a-8d97-2d99ac63739b" x1="51.8" y1="134.1" x2="56.6" y2="128.8"/><circle class="bd9225d0-2acf-49fb-a789-b745b5e57d31" cx="310.9" cy="42" r="11.7"/><line class="bd9225d0-2acf-49fb-a789-b745b5e57d31" x1="327.8" y1="61.8" x2="318.6" y2="51.5"/><path class="bc301727-9470-4dde-af64-eacf8fe6146b" d="M138.5,146.2s3.2-22.8,27.1-24.6a150.94,150.94,0,0,1,15.7,0"/><path class="bc301727-9470-4dde-af64-eacf8fe6146b" d="M195.7,128.5c3.5,5.1,1.6,12.6.9,22.2s-3.2,38.5-3.2,38.5"/><path class="bc301727-9470-4dde-af64-eacf8fe6146b" d="M156.8,157.2s8.4-11.5,5.4-25.7"/><path class="bc301727-9470-4dde-af64-eacf8fe6146b" d="M189.3,123s8.6.2,22.8,13.2"/><line class="bc301727-9470-4dde-af64-eacf8fe6146b" x1="135.5" y1="144.7" x2="156.9" y2="157.4"/><path class="bc301727-9470-4dde-af64-eacf8fe6146b" d="M210.7,158.1s3.2-17.4,2.1-25.7"/><path class="bc301727-9470-4dde-af64-eacf8fe6146b" d="M223.4,145.5s4.4,3.1,4.7,6.4"/><line class="ba18d4b5-9c94-412b-b290-54243fc30752" x1="143.5" y1="171.5" x2="150" y2="175.1"/><line class="ba18d4b5-9c94-412b-b290-54243fc30752" x1="142" y1="174.4" x2="148.6" y2="178.1"/><line class="ba18d4b5-9c94-412b-b290-54243fc30752" x1="87.9" y1="114.4" x2="114.1" y2="114.4"/><line class="ba18d4b5-9c94-412b-b290-54243fc30752" x1="87.9" y1="119.9" x2="114.1" y2="119.9"/><path class="bc301727-9470-4dde-af64-eacf8fe6146b" d="M117.6,206.8s7.3,16.7,11.2,25.1,54.1,112.8,54.1,112.8"/><polyline class="bc301727-9470-4dde-af64-eacf8fe6146b" points="132.2 241.3 111.4 342.4 102.9 342.4"/><line class="bc301727-9470-4dde-af64-eacf8fe6146b" x1="126.3" y1="227.4" x2="112.1" y2="296.2"/><line class="bc301727-9470-4dde-af64-eacf8fe6146b" x1="125" y1="213.8" x2="187.6" y2="344.4"/><line class="bc301727-9470-4dde-af64-eacf8fe6146b" x1="106.8" y1="338.6" x2="128.9" y2="236.6"/><path class="ba18d4b5-9c94-412b-b290-54243fc30752" d="M79.9,125.8h36.8a2.55,2.55,0,0,0,2.3-2c.6-2,0-11.8,0-11.8"/><path class="ba18d4b5-9c94-412b-b290-54243fc30752" d="M59.7,112.1s-.4-2.3,2.3-2.3h41.1"/><path class="bb4f138e-8ba5-4fd5-be69-e48b03b17bad" d="M434.6,171.7H403.8a2.26,2.26,0,0,1-2.3-2.3V157.7a2.26,2.26,0,0,1,2.3-2.3h30.8a2.26,2.26,0,0,1,2.3,2.3v11.7A2.26,2.26,0,0,1,434.6,171.7Z"/><circle class="a08a8deb-527a-4cb5-a3e9-dde4fe7f1855" cx="436.2" cy="169.4" r="6"/><line class="f609afbb-75af-413a-8d97-2d99ac63739b" x1="444.9" y1="179.6" x2="440.1" y2="174.3"/><line class="bc301727-9470-4dde-af64-eacf8fe6146b" x1="415.4" y1="159.9" x2="406.5" y2="159.9"/><line class="bc301727-9470-4dde-af64-eacf8fe6146b" x1="415.4" y1="165.4" x2="406.5" y2="165.4"/><path class="bc301727-9470-4dde-af64-eacf8fe6146b" d="M424.2,171.3H403.9a2.55,2.55,0,0,1-2.3-2c-.6-2,0-11.7,0-11.7"/><path class="bc301727-9470-4dde-af64-eacf8fe6146b" d="M437,157.6s.4-2.3-2.3-2.3H409.8"/><path class="bc301727-9470-4dde-af64-eacf8fe6146b" d="M369.4,201.6c-.1,2.4-5.2,11.7-5.2,11.7s-1.6-2-5.3-6.4a23.61,23.61,0,0,0-9.6-6.3s4-9.3,7.7-14.5"/><path class="bc301727-9470-4dde-af64-eacf8fe6146b" d="M340.2,225.9c-18.6,1.7-40.3-18.5-40.3-18.5"/><path class="bc301727-9470-4dde-af64-eacf8fe6146b" d="M345.2,225s9.6-2,16.7-13.5"/><path class="bc301727-9470-4dde-af64-eacf8fe6146b" d="M335.1,181.8c-.8,2.4-.8,4.8,2.2,4.8s13.7-4,15.3-6.1"/><path class="af4f9bb2-4893-4d5e-b8bc-563c2eb056cf" d="M334.3,244.4s7.5,18.5,12.2,25.1"/><path class="a6d3d611-f31d-4506-9acb-57dad71b51be" d="M303.7,141.6V116.5a2.8,2.8,0,0,1,2.8-2.8h44.3a2.8,2.8,0,0,1,2.8,2.8h0v18.1a2.8,2.8,0,0,1-2.8,2.8h-41Z"/><path class="bc301727-9470-4dde-af64-eacf8fe6146b" d="M303.7,116.5v25.1c.3-.7,6.1-4.2,6.1-4.2h41s2.8-.3,2.8-2.8"/><line class="bc301727-9470-4dde-af64-eacf8fe6146b" x1="310.5" y1="119.1" x2="348" y2="119.1"/><line class="bc301727-9470-4dde-af64-eacf8fe6146b" x1="310.5" y1="124.5" x2="348" y2="124.5"/><line class="bc301727-9470-4dde-af64-eacf8fe6146b" x1="310.5" y1="129.7" x2="348" y2="129.7"/><path class="ea3dd987-1dad-42da-a972-ae75437852ca" d="M112.1,0h47a1.11,1.11,0,0,1,1.1,1.1V62.9a1.11,1.11,0,0,1-1.1,1.1h-47a1.11,1.11,0,0,1-1.1-1.1V1.1A1,1,0,0,1,112.1,0Z"/><line class="a18c58a0-66e0-4383-99e5-530ab05542d1" x1="120.3" y1="12.7" x2="150.3" y2="12.7"/><line class="a18c58a0-66e0-4383-99e5-530ab05542d1" x1="120.3" y1="23.6" x2="150.3" y2="23.6"/><line class="a18c58a0-66e0-4383-99e5-530ab05542d1" x1="120.3" y1="34" x2="150.3" y2="34"/><line class="a18c58a0-66e0-4383-99e5-530ab05542d1" x1="120.3" y1="43.2" x2="150.3" y2="43.2"/><line class="a18c58a0-66e0-4383-99e5-530ab05542d1" x1="120.3" y1="53.6" x2="150.3" y2="53.6"/><path class="ea3dd987-1dad-42da-a972-ae75437852ca" d="M408.1,218.5h27a.68.68,0,0,1,.7.7v35.5a.68.68,0,0,1-.7.7h-27a.68.68,0,0,1-.7-.7V219.2C407.3,218.8,407.7,218.5,408.1,218.5Z"/><line class="a18c58a0-66e0-4383-99e5-530ab05542d1" x1="412.8" y1="225.9" x2="430.1" y2="225.9"/><line class="a18c58a0-66e0-4383-99e5-530ab05542d1" x1="412.8" y1="232.2" x2="430.1" y2="232.2"/><line class="a18c58a0-66e0-4383-99e5-530ab05542d1" x1="412.8" y1="238.2" x2="430.1" y2="238.2"/><line class="a18c58a0-66e0-4383-99e5-530ab05542d1" x1="412.8" y1="243.5" x2="430.1" y2="243.5"/><line class="a18c58a0-66e0-4383-99e5-530ab05542d1" x1="412.8" y1="249.5" x2="430.1" y2="249.5"/></svg>