<svg id="Слой_1" data-name="Слой 1" xmlns="http://www.w3.org/2000/svg" viewBox="0 0 469.33 341.59"><defs><style>.cls-1{fill:#2a1e17;}.cls-2,.cls-7{fill:none;}.cls-2{stroke:#2a1e17;}.cls-12,.cls-2,.cls-7{stroke-linecap:round;stroke-linejoin:round;}.cls-3{fill:#eaecec;}.cls-4{fill:#ffc7a1;}.cls-5{fill:#1c1c1c;}.cls-6{fill:#29e289;}.cls-12,.cls-7{stroke:#1c1c1c;}.cls-8{fill:#ff5c45;}.cls-9{fill:#f9865f;}.cls-10{fill:#caffe4;}.cls-11{fill:#bcbcbc;}.cls-12,.cls-14{fill:#fff;}.cls-13{fill:#ffd524;}</style></defs><path class="cls-1" d="M330.8,231.72c-2.76-2-4.57-3.39-4.57-3.39.77-1,12.86-13.9,19.85-24.27C346.08,204.06,331.93,232.55,330.8,231.72Z" transform="translate(-30.67 -79.54)"/><path class="cls-2" d="M159.51,137.85c1.35,2.24,2,1.35,5.84,1.05s9.42,2.54,11.37,7.33,1.34,5.53.3,6.13-8.53,1.49-8.83,3" transform="translate(-30.67 -79.54)"/><path class="cls-3" d="M190.92,391.26" transform="translate(-30.67 -79.54)"/><polygon class="cls-4" points="229.62 301.77 226.13 295.88 213.77 316.49 217.01 318.98 229.62 301.77"/><path class="cls-4" d="M178.19,330.21s-6.4-10.42-3.66-15.52L195,316.88Z" transform="translate(-30.67 -79.54)"/><path class="cls-5" d="M178.19,330.21l1.23,2.81-3.78,14.73a5.06,5.06,0,0,0,1.59,5.07h0l18.69-27.64a6.41,6.41,0,0,0-.95-8.3L190.8,313Z" transform="translate(-30.67 -79.54)"/><path class="cls-5" d="M168.19,155.35c5.85-.14,13.27-.51,11.79-5s-7-15.58-19.66-12.24c0,0-4.45,3.71,1.11,10.39S168.19,155.35,168.19,155.35Z" transform="translate(-30.67 -79.54)"/><path class="cls-6" d="M197.82,317.12s-10-29.5-1.54-42.45c7-10.69,29.77,6.7,32.9,9l16.31-29.45s-3.77-5.28-13-10.45S185,223.16,167.1,251.48c-6.64,10.46-6.74,55.37,6,72.58Z" transform="translate(-30.67 -79.54)"/><path class="cls-7" d="M197.82,317.12s-10-29.5-1.54-42.45c7-10.69,29.77,6.7,32.9,9" transform="translate(-30.67 -79.54)"/><path class="cls-6" d="M245.49,254.26c-7.42,7.8-29.42,45.84-34.36,64-6.62,24.31-4.13,44.48,32.23,84l17.58-25.6s-12.36-18.77-10.05-36.46c3.33-25.59,21.54-50.4,30.76-66.13Z" transform="translate(-30.67 -79.54)"/><polygon class="cls-5" points="217.61 178.02 246.84 200.97 255.58 187.68 217.61 178.02"/><path class="cls-4" d="M416.2,233.44q6.84,1.45,10.42,5.21c2.39,2.49,1.3,3.8.43,4.56s-4.23-.11-7.16-2.72S416.2,233.44,416.2,233.44Z" transform="translate(-30.67 -79.54)"/><path class="cls-4" d="M326.23,228.33c.77-1,12.86-13.9,19.85-24.27,0,0,21.16,23.7,23.45,24.46.86.29,6,.22,12.48.15,10.89-.11,25.35-.22,28.56,1.38,5.09,2.55,8.15,3.83,9.43,7.39s1.77,5.9-1.28,6.12c-3.57.26-5.86-4.33-5.86-4.33a71.81,71.81,0,0,1-10.45,4.59s-27.11,10.52-45.23,5.43C352.23,247.86,326.23,228.33,326.23,228.33Z" transform="translate(-30.67 -79.54)"/><path class="cls-4" d="M161.91,133.66c-2.33.89-3.74,2-2.4,4.19s2,1.35,5.84,1.05,9.42,2.54,11.37,7.33,1.34,5.53.3,6.13-8.53,1.49-8.83,3,3,5.91,9.91,5.61l1.65-.3s14.47,14.14,16.56,16.23,17.49,12.52,26,14.64c6.45,1.61,19.5-.47,27.35-2,3.81-.74,6.39-1.35,6.39-1.35s-5.89-10.61-7.08-26.91c0,0-14.09,2.26-23.45,4.31,0,0-21.84-12.17-32.46-17.56,0,0-9.27-11.37-13.61-12.86S165.05,132.46,161.91,133.66Z" transform="translate(-30.67 -79.54)"/><path class="cls-5" d="M249.62,189.53c3.81-.74,6.39-1.35,6.39-1.35s-7.12-9-8.32-25.29c0,0-3.22,3.47-2.22,12.71C246.73,187.2,249.62,189.53,249.62,189.53Z" transform="translate(-30.67 -79.54)"/><path class="cls-8" d="M247.35,161.07s.19,19.92,5.53,28.23l1.92-.76S229.64,218,221.51,237.2c-1.34,3.14,52.22,37.35,60.14,36.88,0,0,26.09-39.83,35-51.64l9.59,7.43s18.81-19.05,19.82-25.81c0,0-18.17-22.12-33-28.59s-28.15-17.57-44.12-17.27C255.1,158.46,247.35,161.07,247.35,161.07Z" transform="translate(-30.67 -79.54)"/><polygon class="cls-5" points="295.59 150.34 286 142.9 287.53 138.74 295.59 150.34"/><path class="cls-4" d="M340.85,151.09c-1.68,5.22-6.53,20.33-11.94,22.2s-11-.48-11-.48l-5.76,2.95c-.65,1.93-5.2,3.59-11.07,3.82-4.35.16-7-5.42-5.71-9.46.59-1.86,2.8-11,2.8-11s4.66-17.16,8.95-20.71,8.33-7.05,19.78-2.42C344.39,143.07,340.85,151.09,340.85,151.09Z" transform="translate(-30.67 -79.54)"/><path class="cls-5" d="M306.09,151.83c-.77,3.21-4.11,9.63-6.29,8.47s-2.95-4.1-1.41-9.75,2.82-18.48,7.18-20.78,6.29.38,6.29.38-1.93-9.37,3.72-10.65c0,0,1.92-.9,1.15,5.52a8.6,8.6,0,0,1,9.24-5.13c7.06.77,9.5,10.65,9.5,10.65a3.55,3.55,0,0,1,3.72-2.7c3.2,0,8.08,4.75,6.93,10,0,0,8.2-2.57,12.57,4s3.85,13.72-6.67,16.55c-11,3-10.91-9.88-12.58-11.55s-3.46-3.59-9.62-1.28-12.57-4.49-12.57-4.49-1,8.21-2.05,9-3.08,1.79-2.57-2.06,1.15-3.46.77-4.49-2.12-4.26-5.77-1.41C303.52,145.29,306.09,151.83,306.09,151.83Z" transform="translate(-30.67 -79.54)"/><path class="cls-7" d="M307.83,153.27c-2.44-2.06-4.14-5.68-2-9.3s5.68-4.11,6.76-2.74,1.49,3.68.48,6.42" transform="translate(-30.67 -79.54)"/><path class="cls-5" d="M247.68,398.52l1.23,2.82-3.78,14.72a5.06,5.06,0,0,0,1.59,5.07h0l18.69-27.63a6.42,6.42,0,0,0-1-8.31l-4.17-3.88Z" transform="translate(-30.67 -79.54)"/><path class="cls-7" d="M311.86,130.15s-1.43-4.66-5.72-5.88" transform="translate(-30.67 -79.54)"/><line class="cls-7" x1="190.25" y1="156.25" x2="242.03" y2="83.92"/><path class="cls-7" d="M294,168.52c-1.86,2.42-2.71,12.86,5.87,13.54A23.19,23.19,0,0,0,314,179" transform="translate(-30.67 -79.54)"/><path class="cls-7" d="M179.41,135.16s5.92,7.83,6.85,10.62" transform="translate(-30.67 -79.54)"/><path class="cls-7" d="M401,240.18s4,3.26,11.83-1c2.86-1.53.82-5.15-2.79-4.24a17.05,17.05,0,0,1-7.91-.45" transform="translate(-30.67 -79.54)"/><path class="cls-7" d="M417.55,233.89s3.8,4.42,3.69,7.05" transform="translate(-30.67 -79.54)"/><path class="cls-7" d="M361.72,233.41s3.43-4.57,7.81-4.89" transform="translate(-30.67 -79.54)"/><path class="cls-7" d="M217.06,173s2-6.24,8.42-7.39" transform="translate(-30.67 -79.54)"/><path class="cls-7" d="M234.45,267.64l-7.65,14.65S201.56,325,210.12,352.6" transform="translate(-30.67 -79.54)"/><path class="cls-7" d="M256.81,316.65l24.84-42.57s32.55-47.21,35.88-53.88L329,199" transform="translate(-30.67 -79.54)"/><path class="cls-7" d="M224.39,240.33s44.16,32.19,57.26,33.75" transform="translate(-30.67 -79.54)"/><path class="cls-7" d="M247.35,161.07s0,20.21,5.4,28.49" transform="translate(-30.67 -79.54)"/><path class="cls-7" d="M344.67,200.85c-1.39,8.33-19.83,25.82-19.83,25.82" transform="translate(-30.67 -79.54)"/><path class="cls-1" d="M340.31,225.38" transform="translate(-30.67 -79.54)"/><path class="cls-9" d="M423,285.15" transform="translate(-30.67 -79.54)"/><circle class="cls-5" cx="176.44" cy="222.42" r="2.62"/><polygon class="cls-7" points="422.48 278.77 421.03 268.74 429.58 274.43 425.11 275.4 422.48 278.77"/><path class="cls-7" d="M169.41,187.07c-16.22-14.3-43,21.37,55,134.91,56.55,65.49,101,71.37,107,48.58,10.8-40.88-28.2-51.21-13.69-35.2,21.1,23.28,81.12,28.2,125.84,6.47,44.13-21.44,17-54.73,14.27-56.67" transform="translate(-30.67 -79.54)"/><circle class="cls-5" cx="413.63" cy="262.09" r="2.62"/><line class="cls-7" x1="375.47" y1="283.49" x2="453.2" y2="239.68"/><circle class="cls-5" cx="140.35" cy="109.65" r="2.62"/><circle class="cls-10" cx="207.22" cy="55.51" r="5.63"/><circle class="cls-10" cx="105.13" cy="15.07" r="2.47"/><circle class="cls-10" cx="436.53" cy="317.31" r="2.47"/><path class="cls-5" d="M423,285.15l-26.59-12.48a2.75,2.75,0,0,1,.06-5L446,245.88a2.76,2.76,0,0,1,2.2,0l34,14.59Z" transform="translate(-30.67 -79.54)"/><path class="cls-11" d="M421.36,244.14c.07,11,1.65,41,1.65,41l59.11-24.69L480.8,218.7a3.6,3.6,0,0,0-5.08-3.15l-50.9,23.19A5.91,5.91,0,0,0,421.36,244.14Z" transform="translate(-30.67 -79.54)"/><path class="cls-7" d="M423,285.15l59.11-24.69L480.8,218.7s-.4-4.56-5.08-3.15" transform="translate(-30.67 -79.54)"/><line class="cls-7" x1="420.95" y1="175.6" x2="424.94" y2="166.17"/><line class="cls-7" x1="424.94" y1="175.6" x2="428.93" y2="166.17"/><circle class="cls-10" cx="115.79" cy="276.03" r="2.47"/><circle class="cls-10" cx="324.32" cy="288.28" r="3.44"/><path class="cls-10" d="M172.09,392.24a73.46,73.46,0,0,0,31.23,6.7,1.4,1.4,0,0,1,1.4,1.58l-2.16,17.13a1.39,1.39,0,0,1-1.14,1.21c-4.38.82-22,3.24-35.22-7.95a1.4,1.4,0,0,1-.43-1.43l4.36-16.33A1.4,1.4,0,0,1,172.09,392.24Z" transform="translate(-30.67 -79.54)"/><path class="cls-7" d="M173.64,397.27S181.27,408,184,409.52s17.39-7.21,17.39-7.21" transform="translate(-30.67 -79.54)"/><line class="cls-7" x1="160.51" y1="328.49" x2="168.52" y2="336.72"/><line class="cls-7" x1="149.38" y1="326.9" x2="140.01" y2="329.45"/><polygon class="cls-10" points="378.93 230.8 381.59 235.41 384.25 240.02 378.93 240.02 373.62 240.02 376.27 235.41 378.93 230.8"/><path class="cls-7" d="M194.55,106.26l.69-20.91c-.07-1.95.72-2.57,1.92-2.84,5.69-1.26,23-5.11,41.74.45,2.42.71,2.35,2,2.31,3.16l-.67,19.93a2.7,2.7,0,0,1-3.29,2.28,144.37,144.37,0,0,0-20.52-1,116.53,116.53,0,0,0-19.68,1.59C195.19,109.29,194.49,107.9,194.55,106.26Z" transform="translate(-30.67 -79.54)"/><path class="cls-7" d="M200.87,103.21l10.93-12.8,12.1,11.94C219.73,101,200.87,103.21,200.87,103.21Z" transform="translate(-30.67 -79.54)"/><polyline class="cls-7" points="187.83 16.79 196.67 9.72 204.12 15.04 204.4 23.35 193.23 22.81"/><ellipse class="cls-7" cx="203.49" cy="89.25" rx="1.83" ry="2.15" transform="matrix(0.1, -0.99, 0.99, 0.1, 63.55, 203.19)"/><path class="cls-7" d="M405.94,378l7.34,13.55c.77,1.21.49,1.9-.17,2.52-3.14,2.91-12.68,11.77-26.68,15.23-1.8.44-2.23-.4-2.64-1.15l-7-12.92a2,2,0,0,1,1.24-2.66,106.66,106.66,0,0,0,13.4-7,84.93,84.93,0,0,0,11.91-8.33C404.41,376.28,405.37,376.91,405.94,378Z" transform="translate(-30.67 -79.54)"/><path class="cls-7" d="M403.06,382.26l-2.18,12.19-12.13-3.09C391.91,390.67,403.06,382.26,403.06,382.26Z" transform="translate(-30.67 -79.54)"/><polyline class="cls-7" points="363.75 313.64 360.76 321.42 354.06 320.81 350.79 315.63 358.08 311.82"/><ellipse class="cls-7" cx="406.59" cy="392.1" rx="1.58" ry="1.34" transform="translate(-156.87 124.97) rotate(-24.56)"/><path class="cls-12" d="M370.24,146.79l29.8,22.8a1.47,1.47,0,0,0,2.08-.3l4.49-6.09a1.48,1.48,0,0,0-.26-2L377,137.67a1.48,1.48,0,0,0-2.11.29l-4.92,6.79A1.49,1.49,0,0,0,370.24,146.79Z" transform="translate(-30.67 -79.54)"/><polygon class="cls-8" points="341.78 66.23 349 71.3 353.27 66.21 346.04 60.18 341.78 66.23"/><polygon class="cls-6" points="351.72 73.28 358.96 79.02 362.84 74.25 355.55 68.33 351.72 73.28"/><polygon class="cls-13" points="361.39 81.22 368.62 86.29 372.06 81.87 365.22 76.14 361.39 81.22"/><path class="cls-12" d="M429.69,114.9,436.48,172a2.26,2.26,0,0,0,2.54,2l11.5-1.58a2.25,2.25,0,0,0,1.94-2.45l-5.57-57.34a2.26,2.26,0,0,0-2.57-2l-12.72,1.86A2.25,2.25,0,0,0,429.69,114.9Z" transform="translate(-30.67 -79.54)"/><polygon class="cls-8" points="402.5 36.7 404.65 50.04 414.79 49.29 413.68 34.92 402.5 36.7"/><polygon class="cls-13" points="405.38 55.14 406.81 69.21 416.19 68.37 414.89 54.07 405.38 55.14"/><polygon class="cls-6" points="406.99 74.24 409.14 87.58 417.67 86.64 416.64 73.01 406.99 74.24"/><path class="cls-12" d="M414.87,127.05l18.8,55.27a1.8,1.8,0,0,0,2.31,1.11l11.77-4.24a1.78,1.78,0,0,0,1.1-2.23L431.2,121.15a1.79,1.79,0,0,0-2.33-1.14L416,124.79A1.79,1.79,0,0,0,414.87,127.05Z" transform="translate(-30.67 -79.54)"/><polygon class="cls-13" points="388.02 48.52 392.9 61.13 402.66 58.28 398.59 44.45 388.02 48.52"/><polygon class="cls-8" points="394.68 65.96 399 79.42 408 76.65 403.76 62.93 394.68 65.96"/><polygon class="cls-6" points="400.22 84.3 405.1 96.91 413.25 94.21 409.41 81.09 400.22 84.3"/><rect class="cls-13" x="142.08" y="117.32" width="105.91" height="23.81" rx="5.48"/><rect class="cls-14" x="153.36" y="124.33" width="55.38" height="3.62" rx="1.81"/><line class="cls-7" x1="153.88" y1="132.65" x2="241.87" y2="132.65"/><path class="cls-7" d="M162,142.6C70,104.47-.8,177.89,172.56,290.32c13.65,8.85,34.58,12,34.58,12" transform="translate(-30.67 -79.54)"/><circle class="cls-5" cx="46.71" cy="65.62" r="2.62"/><polygon class="cls-7" points="30.03 51.23 32.9 48.47 39.49 52.25 42.81 62.48 32.68 58.24 30.03 51.23"/><polygon class="cls-7" points="32.9 48.47 30.03 51.23 28.42 49.28 31.17 46.64 32.9 48.47"/><line class="cls-7" x1="42.81" y1="62.48" x2="36.22" y2="55.24"/><path class="cls-12" d="M89.42,325.6l7.15,36.83a1.47,1.47,0,0,0,1.75,1.16l7.41-1.57a1.47,1.47,0,0,0,1.14-1.69l-6.36-37.08a1.48,1.48,0,0,0-1.77-1.19l-8.19,1.82A1.48,1.48,0,0,0,89.42,325.6Z" transform="translate(-30.67 -79.54)"/><polygon class="cls-8" points="61.08 246.76 63.12 255.35 69.68 254.38 68.28 245.07 61.08 246.76"/><polygon class="cls-6" points="63.84 258.63 65.44 267.73 71.51 266.74 69.98 257.48 63.84 258.63"/><polygon class="cls-13" points="65.8 271 67.83 279.58 73.34 278.56 72.03 269.73 65.8 271"/><path class="cls-10" d="M145.28,251.19c-13.47-9.7-26.71-24.77-20.91-40.26,0,0,9.3-6.19,24,1.55l14.71,7.74Z" transform="translate(-30.67 -79.54)"/><path class="cls-10" d="M124.37,210.93c-5.8,15.49,7.44,30.56,20.91,40.26,8.09,5.82,13.74,8.42,22.46,11.62l-27.88,55s-33.29-13.93-38.71-41S124.37,210.93,124.37,210.93Z" transform="translate(-30.67 -79.54)"/><path class="cls-7" d="M116.84,233.43a33.23,33.23,0,0,0,17.22,23.88" transform="translate(-30.67 -79.54)"/><line class="cls-7" x1="111.72" y1="183.33" x2="127.27" y2="191.66"/><path class="cls-7" d="M119.06,255.65s5,11.1,21.11,18.32" transform="translate(-30.67 -79.54)"/><path class="cls-7" d="M106.29,257.31s.55,11.67,8.33,15.55" transform="translate(-30.67 -79.54)"/><path class="cls-7" d="M124.06,216.77s-1.44,15,21.22,34.42" transform="translate(-30.67 -79.54)"/><path class="cls-7" d="M132.39,219.54s7.22-.55,17.78,7.22" transform="translate(-30.67 -79.54)"/><path class="cls-7" d="M98.44,267.37c-.47,7.43.46,34.35,39.46,51.53" transform="translate(-30.67 -79.54)"/><path class="cls-10" d="M347.47,252.39l-16.54,33.15s11.21,4.13,2.44,17c0,0,20.74,8.6,34.31-13.74S347.47,252.39,347.47,252.39Z" transform="translate(-30.67 -79.54)"/><path class="cls-10" d="M333.37,302.53s20.74,8.6,34.31-13.74L337.76,340s-20.72,31.45-56.41,3.94l32.43-53.73Z" transform="translate(-30.67 -79.54)"/><path class="cls-7" d="M330.93,285.54s12.33,4.36,2.44,17" transform="translate(-30.67 -79.54)"/><path class="cls-7" d="M313.4,289s16.8,15.4,26.11,15.29,20.21-2.32,26.65-13.41" transform="translate(-30.67 -79.54)"/><path class="cls-7" d="M315.46,309s11.54,10.24,24.44,7" transform="translate(-30.67 -79.54)"/><path class="cls-7" d="M327.58,324.26s6.05,4.54,14.51.25" transform="translate(-30.67 -79.54)"/><path class="cls-7" d="M299.74,330.58s14,13.88,35.94,4.72" transform="translate(-30.67 -79.54)"/><path class="cls-7" d="M307.33,317s5.7,4.07,9.27,5.37" transform="translate(-30.67 -79.54)"/><path class="cls-7" d="M350.31,262s12.75,4.17,14.28,21" transform="translate(-30.67 -79.54)"/><path class="cls-7" d="M356.72,282.8s5.87,9.08-4.05,18.17" transform="translate(-30.67 -79.54)"/><path class="cls-7" d="M282.53,346.46s32,27.41,55.25-4.65" transform="translate(-30.67 -79.54)"/><circle class="cls-10" cx="466.86" cy="204.63" r="2.47"/><circle class="cls-10" cx="2.47" cy="86.01" r="2.47"/></svg>