<svg id="a134bf25-0448-4307-a8ce-6f632b5a2f22" data-name="Слой 1" xmlns="http://www.w3.org/2000/svg" viewBox="0 0 469.4 341.59"><defs><style>.a1b0ae81-714c-4592-843e-8ef266634d72{fill:#2a1e17;}.a88e621a-3a94-483d-bbf4-6a50cc54a137,.b0fad1ff-6df5-40da-a29f-34e086b4ab1b,.b1b26dbc-26d1-445a-8585-b74f568bfcbf,.e17431a2-a0fd-4b29-84b9-3ef486ed109a{fill:none;}.b1b26dbc-26d1-445a-8585-b74f568bfcbf{stroke:#2a1e17;}.a88e621a-3a94-483d-bbf4-6a50cc54a137,.b0fad1ff-6df5-40da-a29f-34e086b4ab1b,.b1b26dbc-26d1-445a-8585-b74f568bfcbf,.bb4d1a84-b2fc-4192-8eb2-3e8406c1961b,.e17431a2-a0fd-4b29-84b9-3ef486ed109a{stroke-linecap:round;stroke-linejoin:round;}.fcead3de-dc39-41c6-8dd6-4c48b71a28ec{fill:#eaecec;}.f78d183e-d9ed-4e2e-8f80-ad0968c86e7c{fill:#ffc7a1;}.a6559de5-caa7-4170-ac20-60174c187e85{fill:#1c1c1c;}.a742158d-72d0-4b40-b23b-16b5ef22c721{fill:#29e289;}.a88e621a-3a94-483d-bbf4-6a50cc54a137,.b0fad1ff-6df5-40da-a29f-34e086b4ab1b,.bb4d1a84-b2fc-4192-8eb2-3e8406c1961b,.e17431a2-a0fd-4b29-84b9-3ef486ed109a{stroke:#1c1c1c;}.bc4513d0-0293-4e19-920e-297980723fcd{fill:#ff5c45;}.f5530548-21e5-4b26-af39-4917f2569e2d{fill:#f9865f;}.b1b66969-9fa1-4176-9934-bc2d8092e25e{fill:#caffe4;}.b5c4a41f-1358-4c45-8a62-4e0b2d25ed29{fill:#bcbcbc;}.e17431a2-a0fd-4b29-84b9-3ef486ed109a{stroke-width:0.99px;}.bb4d1a84-b2fc-4192-8eb2-3e8406c1961b,.f018ee4b-ef89-4e37-8860-36b20363e6a5{fill:#fff;}.a62016be-84d7-412a-8f4b-1fe5e7b1828e{fill:#ffd524;}</style></defs><path class="a1b0ae81-714c-4592-843e-8ef266634d72" d="M300.1,152.2c-2.8-2-4.6-3.4-4.6-3.4.8-1,12.9-13.9,19.9-24.3C315.4,124.5,301.3,153,300.1,152.2Z" transform="translate(0 -0.01)"/><path class="b1b26dbc-26d1-445a-8585-b74f568bfcbf" d="M128.8,58.3c1.4,2.2,2,1.4,5.8,1.1s9.4,2.5,11.4,7.3,1.3,5.5.3,6.1-8.5,1.5-8.8,3" transform="translate(0 -0.01)"/><path class="fcead3de-dc39-41c6-8dd6-4c48b71a28ec" d="M160.2,311.7" transform="translate(0 -0.01)"/><polygon class="f78d183e-d9ed-4e2e-8f80-ad0968c86e7c" points="229.6 301.79 226.1 295.89 213.8 316.49 217 318.99 229.6 301.79"/><path class="f78d183e-d9ed-4e2e-8f80-ad0968c86e7c" d="M147.5,250.7s-6.4-10.4-3.7-15.5l20.5,2.2Z" transform="translate(0 -0.01)"/><path class="a6559de5-caa7-4170-ac20-60174c187e85" d="M147.5,250.7l1.2,2.8-3.8,14.7a5,5,0,0,0,1.6,5.1h0l18.7-27.6a6.41,6.41,0,0,0-.9-8.3l-4.2-3.9Z" transform="translate(0 -0.01)"/><path class="a6559de5-caa7-4170-ac20-60174c187e85" d="M137.5,75.8c5.9-.1,13.3-.5,11.8-5s-7-15.6-19.7-12.2c0,0-4.4,3.7,1.1,10.4S137.5,75.8,137.5,75.8Z" transform="translate(0 -0.01)"/><path class="a742158d-72d0-4b40-b23b-16b5ef22c721" d="M167.2,237.6s-10-29.5-1.5-42.5c7-10.7,29.8,6.7,32.9,9l16.3-29.4s-3.8-5.3-13-10.5-47.5-20.6-65.4,7.7c-6.6,10.5-6.7,55.4,6,72.6Z" transform="translate(0 -0.01)"/><path class="b0fad1ff-6df5-40da-a29f-34e086b4ab1b" d="M167.2,237.6s-10-29.5-1.5-42.5c7-10.7,29.8,6.7,32.9,9" transform="translate(0 -0.01)"/><path class="a742158d-72d0-4b40-b23b-16b5ef22c721" d="M214.8,174.7c-7.4,7.8-29.4,45.8-34.4,64-6.6,24.3-4.1,44.5,32.2,84l17.6-25.6s-12.4-18.8-10.1-36.5c3.3-25.6,21.5-50.4,30.8-66.1Z" transform="translate(0 -0.01)"/><polygon class="a6559de5-caa7-4170-ac20-60174c187e85" points="217.6 177.99 246.8 200.99 255.6 187.69 217.6 177.99"/><path class="f78d183e-d9ed-4e2e-8f80-ad0968c86e7c" d="M385.5,153.9c4.6,1,8,2.7,10.4,5.2s1.3,3.8.4,4.6-4.2-.1-7.2-2.7A14.87,14.87,0,0,1,385.5,153.9Z" transform="translate(0 -0.01)"/><path class="f78d183e-d9ed-4e2e-8f80-ad0968c86e7c" d="M295.6,148.8c.8-1,12.9-13.9,19.9-24.3,0,0,21.2,23.7,23.5,24.5.9.3,6,.2,12.5.1,10.9-.1,25.4-.2,28.6,1.4,5.1,2.6,8.1,3.8,9.4,7.4s1.8,5.9-1.3,6.1c-3.6.3-5.9-4.3-5.9-4.3a81.48,81.48,0,0,1-10.5,4.6s-27.1,10.5-45.2,5.4C321.6,168.3,295.6,148.8,295.6,148.8Z" transform="translate(0 -0.01)"/><path class="f78d183e-d9ed-4e2e-8f80-ad0968c86e7c" d="M131.2,54.1c-2.3.9-3.7,2-2.4,4.2s2,1.4,5.8,1.1,9.4,2.5,11.4,7.3,1.3,5.5.3,6.1-8.5,1.5-8.8,3,3,5.9,9.9,5.6l1.6-.3s14.5,14.1,16.6,16.2,17.5,12.5,26,14.6c6.4,1.6,19.5-.5,27.4-2,3.8-.7,6.4-1.4,6.4-1.4s-5.9-10.6-7.1-26.9c0,0-14.1,2.3-23.4,4.3,0,0-21.8-12.2-32.5-17.6,0,0-9.3-11.4-13.6-12.9S134.4,52.9,131.2,54.1Z" transform="translate(0 -0.01)"/><path class="a6559de5-caa7-4170-ac20-60174c187e85" d="M218.9,110c3.8-.7,6.4-1.4,6.4-1.4s-7.1-9-8.3-25.3c0,0-3.2,3.5-2.2,12.7C216.1,107.7,218.9,110,218.9,110Z" transform="translate(0 -0.01)"/><path class="bc4513d0-0293-4e19-920e-297980723fcd" d="M216.7,81.5s.2,19.9,5.5,28.2l1.9-.8s-25.2,29.5-33.3,48.7c-1.3,3.1,52.2,37.3,60.1,36.9,0,0,26.1-39.8,35-51.6l9.6,7.4s18.8-19.1,19.8-25.8c0,0-18.2-22.1-33-28.6s-28.1-17.6-44.1-17.3C224.4,78.9,216.7,81.5,216.7,81.5Z" transform="translate(0 -0.01)"/><polygon class="a6559de5-caa7-4170-ac20-60174c187e85" points="295.6 150.29 286 142.89 287.5 138.69 295.6 150.29"/><path class="f78d183e-d9ed-4e2e-8f80-ad0968c86e7c" d="M310.2,71.5c-1.7,5.2-6.5,20.3-11.9,22.2s-11-.5-11-.5l-5.8,2.9c-.6,1.9-5.2,3.6-11.1,3.8-4.4.2-7-5.4-5.7-9.5.6-1.9,2.8-11,2.8-11s4.7-17.2,9-20.7,8.3-7.1,19.8-2.4C313.7,63.5,310.2,71.5,310.2,71.5Z" transform="translate(0 -0.01)"/><path class="a6559de5-caa7-4170-ac20-60174c187e85" d="M275.4,72.3c-.8,3.2-4.1,9.6-6.3,8.5s-3-4.1-1.4-9.8,2.8-18.5,7.2-20.8,6.3.4,6.3.4-1.9-9.4,3.7-10.7c0,0,1.9-.9,1.1,5.5a8.53,8.53,0,0,1,9.2-5.1c7.1.8,9.5,10.7,9.5,10.7a3.57,3.57,0,0,1,3.7-2.7c3.2,0,8.1,4.8,6.9,10,0,0,8.2-2.6,12.6,4s3.9,13.7-6.7,16.6c-11,3-10.9-9.9-12.6-11.6s-3.5-3.6-9.6-1.3-12.6-4.5-12.6-4.5-1,8.2-2,9-3.1,1.8-2.6-2.1,1.1-3.5.8-4.5-2.1-4.3-5.8-1.4C272.8,65.7,275.4,72.3,275.4,72.3Z" transform="translate(0 -0.01)"/><path class="b0fad1ff-6df5-40da-a29f-34e086b4ab1b" d="M277.2,73.7c-2.4-2.1-4.1-5.7-2-9.3s5.7-4.1,6.8-2.7,1.5,3.7.5,6.4" transform="translate(0 -0.01)"/><path class="a6559de5-caa7-4170-ac20-60174c187e85" d="M217,319l1.2,2.8-3.8,14.7a5,5,0,0,0,1.6,5.1h0L234.7,314a6.41,6.41,0,0,0-1-8.3l-4.2-3.9Z" transform="translate(0 -0.01)"/><path class="b0fad1ff-6df5-40da-a29f-34e086b4ab1b" d="M281.2,50.6s-1.4-4.7-5.7-5.9" transform="translate(0 -0.01)"/><line class="b0fad1ff-6df5-40da-a29f-34e086b4ab1b" x1="190.2" y1="156.19" x2="242" y2="83.89"/><path class="b0fad1ff-6df5-40da-a29f-34e086b4ab1b" d="M263.3,89c-1.9,2.4-2.7,12.9,5.9,13.5a23.13,23.13,0,0,0,14.1-3.1" transform="translate(0 -0.01)"/><path class="b0fad1ff-6df5-40da-a29f-34e086b4ab1b" d="M148.7,55.6s5.9,7.8,6.9,10.6" transform="translate(0 -0.01)"/><path class="b0fad1ff-6df5-40da-a29f-34e086b4ab1b" d="M370.3,160.6s4,3.3,11.8-1c2.9-1.5.8-5.1-2.8-4.2a16.34,16.34,0,0,1-7.9-.5" transform="translate(0 -0.01)"/><path class="b0fad1ff-6df5-40da-a29f-34e086b4ab1b" d="M386.9,154.4s3.8,4.4,3.7,7" transform="translate(0 -0.01)"/><path class="b0fad1ff-6df5-40da-a29f-34e086b4ab1b" d="M331,153.9s3.4-4.6,7.8-4.9" transform="translate(0 -0.01)"/><path class="b0fad1ff-6df5-40da-a29f-34e086b4ab1b" d="M186.4,93.5s2-6.2,8.4-7.4" transform="translate(0 -0.01)"/><path class="b0fad1ff-6df5-40da-a29f-34e086b4ab1b" d="M203.8,188.1l-7.6,14.6S171,245.4,179.5,273" transform="translate(0 -0.01)"/><path class="b0fad1ff-6df5-40da-a29f-34e086b4ab1b" d="M226.1,237.1l24.8-42.6s32.5-47.2,35.9-53.9l11.5-21.2" transform="translate(0 -0.01)"/><path class="b0fad1ff-6df5-40da-a29f-34e086b4ab1b" d="M193.7,160.8S237.9,193,251,194.6" transform="translate(0 -0.01)"/><path class="b0fad1ff-6df5-40da-a29f-34e086b4ab1b" d="M216.7,81.5s0,20.2,5.4,28.5" transform="translate(0 -0.01)"/><path class="b0fad1ff-6df5-40da-a29f-34e086b4ab1b" d="M314,121.3c-1.4,8.3-19.8,25.8-19.8,25.8" transform="translate(0 -0.01)"/><path class="a1b0ae81-714c-4592-843e-8ef266634d72" d="M309.6,145.8" transform="translate(0 -0.01)"/><path class="f5530548-21e5-4b26-af39-4917f2569e2d" d="M392.3,205.6" transform="translate(0 -0.01)"/><circle class="a6559de5-caa7-4170-ac20-60174c187e85" cx="176.4" cy="222.39" r="2.6"/><polygon class="b0fad1ff-6df5-40da-a29f-34e086b4ab1b" points="422.5 278.79 421 268.69 429.6 274.39 425.1 275.39 422.5 278.79"/><path class="b0fad1ff-6df5-40da-a29f-34e086b4ab1b" d="M138.7,107.5c-16.2-14.3-43,21.4,55,134.9,56.5,65.5,101,71.4,107,48.6,10.8-40.9-28.2-51.2-13.7-35.2,21.1,23.3,81.1,28.2,125.8,6.5,44.1-21.4,17-54.7,14.3-56.7" transform="translate(0 -0.01)"/><circle class="a6559de5-caa7-4170-ac20-60174c187e85" cx="413.6" cy="262.09" r="2.6"/><line class="b0fad1ff-6df5-40da-a29f-34e086b4ab1b" x1="375.5" y1="283.49" x2="453.2" y2="239.69"/><circle class="a6559de5-caa7-4170-ac20-60174c187e85" cx="140.4" cy="109.69" r="2.6"/><circle class="b1b66969-9fa1-4176-9934-bc2d8092e25e" cx="207.2" cy="55.49" r="5.6"/><circle class="b1b66969-9fa1-4176-9934-bc2d8092e25e" cx="105.1" cy="15.09" r="2.5"/><circle class="b1b66969-9fa1-4176-9934-bc2d8092e25e" cx="436.5" cy="317.29" r="2.5"/><path class="a6559de5-caa7-4170-ac20-60174c187e85" d="M392.3,205.6l-26.6-12.5a2.7,2.7,0,0,1-1.3-3.7,2.54,2.54,0,0,1,1.4-1.3l49.5-21.8a2.8,2.8,0,0,1,2.2,0l34,14.6Z" transform="translate(0 -0.01)"/><path class="b5c4a41f-1358-4c45-8a62-4e0b2d25ed29" d="M390.7,164.6c.1,11,1.6,41,1.6,41l59.1-24.7-1.3-41.8a3.65,3.65,0,0,0-3.7-3.5,3.53,3.53,0,0,0-1.4.3l-50.9,23.2A6.22,6.22,0,0,0,390.7,164.6Z" transform="translate(0 -0.01)"/><path class="b0fad1ff-6df5-40da-a29f-34e086b4ab1b" d="M392.3,205.6l59.1-24.7-1.3-41.8s-.4-4.6-5.1-3.1" transform="translate(0 -0.01)"/><line class="b0fad1ff-6df5-40da-a29f-34e086b4ab1b" x1="421" y1="175.59" x2="424.9" y2="166.19"/><line class="b0fad1ff-6df5-40da-a29f-34e086b4ab1b" x1="424.9" y1="175.59" x2="428.9" y2="166.19"/><circle class="b1b66969-9fa1-4176-9934-bc2d8092e25e" cx="115.8" cy="275.99" r="2.5"/><circle class="b1b66969-9fa1-4176-9934-bc2d8092e25e" cx="324.3" cy="288.29" r="3.4"/><path class="b1b66969-9fa1-4176-9934-bc2d8092e25e" d="M141.4,312.7a73.31,73.31,0,0,0,31.2,6.7,1.37,1.37,0,0,1,1.4,1.4v.2l-2.2,17.1a1.38,1.38,0,0,1-1.1,1.2c-4.4.8-22,3.2-35.2-8a1.28,1.28,0,0,1-.4-1.4l4.4-16.3a1.45,1.45,0,0,1,1.7-1C141.3,312.6,141.3,312.7,141.4,312.7Z" transform="translate(0 -0.01)"/><path class="b0fad1ff-6df5-40da-a29f-34e086b4ab1b" d="M143,317.7s7.6,10.7,10.4,12.2,17.4-7.2,17.4-7.2" transform="translate(0 -0.01)"/><line class="b0fad1ff-6df5-40da-a29f-34e086b4ab1b" x1="160.5" y1="328.49" x2="168.5" y2="336.69"/><line class="b0fad1ff-6df5-40da-a29f-34e086b4ab1b" x1="149.4" y1="326.89" x2="140" y2="329.49"/><polygon class="b1b66969-9fa1-4176-9934-bc2d8092e25e" points="378.9 230.79 381.6 235.39 384.2 239.99 378.9 239.99 373.6 239.99 376.3 235.39 378.9 230.79"/><path class="b0fad1ff-6df5-40da-a29f-34e086b4ab1b" d="M163.9,26.7l.7-20.9c-.1-1.9.7-2.6,1.9-2.8,5.7-1.3,23-5.1,41.7.4,2.4.7,2.4,2,2.3,3.2l-.7,19.9a2.63,2.63,0,0,1-3,2.3h-.3a140.77,140.77,0,0,0-20.5-1,118.11,118.11,0,0,0-19.7,1.6C164.5,29.8,163.8,28.4,163.9,26.7Z" transform="translate(0 -0.01)"/><path class="b0fad1ff-6df5-40da-a29f-34e086b4ab1b" d="M170.2,23.7l10.9-12.8,12.1,11.9C189.1,21.5,170.2,23.7,170.2,23.7Z" transform="translate(0 -0.01)"/><polyline class="b0fad1ff-6df5-40da-a29f-34e086b4ab1b" points="187.8 16.79 196.7 9.69 204.1 14.99 204.4 23.39 193.2 22.79"/><ellipse class="e17431a2-a0fd-4b29-84b9-3ef486ed109a" cx="172.3" cy="10.63" rx="1.8" ry="2.1" transform="translate(144.41 180.98) rotate(-84.23)"/><path class="b0fad1ff-6df5-40da-a29f-34e086b4ab1b" d="M375.3,298.5l7.3,13.5c.8,1.2.5,1.9-.2,2.5-3.1,2.9-12.7,11.8-26.7,15.2-1.8.4-2.2-.4-2.6-1.1l-7-12.9a2,2,0,0,1,1.1-2.6.1.1,0,0,0,.1-.1,113.72,113.72,0,0,0,13.4-7,81.73,81.73,0,0,0,11.9-8.3C373.7,296.7,374.7,297.4,375.3,298.5Z" transform="translate(0 -0.01)"/><path class="b0fad1ff-6df5-40da-a29f-34e086b4ab1b" d="M372.4,302.7l-2.2,12.2-12.1-3.1C361.2,311.1,372.4,302.7,372.4,302.7Z" transform="translate(0 -0.01)"/><polyline class="b0fad1ff-6df5-40da-a29f-34e086b4ab1b" points="363.8 313.59 360.8 321.39 354.1 320.79 350.8 315.59 358.1 311.79"/><ellipse class="a88e621a-3a94-483d-bbf4-6a50cc54a137" cx="375.88" cy="312.61" rx="1.6" ry="1.3" transform="translate(-95.93 184.49) rotate(-24.56)"/><path class="bb4d1a84-b2fc-4192-8eb2-3e8406c1961b" d="M339.6,67.2,369.4,90a1.47,1.47,0,0,0,2.1-.3h0l4.5-6.1a1.44,1.44,0,0,0-.3-2L346.4,58.1a1.55,1.55,0,0,0-2.1.2h0l-4.9,6.8A1.36,1.36,0,0,0,339.6,67.2Z" transform="translate(0 -0.01)"/><polygon class="bc4513d0-0293-4e19-920e-297980723fcd" points="341.8 66.19 349 71.29 353.3 66.19 346 60.19 341.8 66.19"/><polygon class="a742158d-72d0-4b40-b23b-16b5ef22c721" points="351.7 73.29 359 78.99 362.8 74.19 355.5 68.29 351.7 73.29"/><polygon class="a62016be-84d7-412a-8f4b-1fe5e7b1828e" points="361.4 81.19 368.6 86.29 372.1 81.89 365.2 76.09 361.4 81.19"/><path class="bb4d1a84-b2fc-4192-8eb2-3e8406c1961b" d="M399,35.4l6.8,57.1a2.27,2.27,0,0,0,2.5,2h.1l11.5-1.6a2.14,2.14,0,0,0,1.9-2.4l-5.6-57.3a2.27,2.27,0,0,0-2.5-2h-.1L400.9,33A2.23,2.23,0,0,0,399,35.4Z" transform="translate(0 -0.01)"/><polygon class="bc4513d0-0293-4e19-920e-297980723fcd" points="402.5 36.69 404.6 49.99 414.8 49.29 413.7 34.89 402.5 36.69"/><polygon class="a62016be-84d7-412a-8f4b-1fe5e7b1828e" points="405.4 55.09 406.8 69.19 416.2 68.39 414.9 54.09 405.4 55.09"/><polygon class="a742158d-72d0-4b40-b23b-16b5ef22c721" points="407 74.19 409.1 87.59 417.7 86.59 416.6 72.99 407 74.19"/><path class="bb4d1a84-b2fc-4192-8eb2-3e8406c1961b" d="M384.2,47.5,403,102.8a1.82,1.82,0,0,0,2.3,1.1h0l11.8-4.2a1.75,1.75,0,0,0,1.1-2.2L400.6,41.7a1.81,1.81,0,0,0-2.2-1.2h-.1l-12.9,4.8A1.73,1.73,0,0,0,384.2,47.5Z" transform="translate(0 -0.01)"/><polygon class="a62016be-84d7-412a-8f4b-1fe5e7b1828e" points="388 48.49 392.9 61.09 402.7 58.29 398.6 44.49 388 48.49"/><polygon class="bc4513d0-0293-4e19-920e-297980723fcd" points="394.7 65.99 399 79.39 408 76.69 403.8 62.89 394.7 65.99"/><polygon class="a742158d-72d0-4b40-b23b-16b5ef22c721" points="400.2 84.29 405.1 96.89 413.2 94.19 409.4 81.09 400.2 84.29"/><path class="a62016be-84d7-412a-8f4b-1fe5e7b1828e" d="M147.6,117.3h95a5.55,5.55,0,0,1,5.5,5.5v12.9a5.55,5.55,0,0,1-5.5,5.5h-95a5.55,5.55,0,0,1-5.5-5.5V122.8A5.48,5.48,0,0,1,147.6,117.3Z" transform="translate(0 -0.01)"/><path class="f018ee4b-ef89-4e37-8860-36b20363e6a5" d="M155.2,124.3H207a1.79,1.79,0,0,1,1.8,1.8h0a1.79,1.79,0,0,1-1.8,1.8H155.2a1.79,1.79,0,0,1-1.8-1.8h0A1.79,1.79,0,0,1,155.2,124.3Z" transform="translate(0 -0.01)"/><line class="b0fad1ff-6df5-40da-a29f-34e086b4ab1b" x1="153.9" y1="132.59" x2="241.9" y2="132.59"/><path class="b0fad1ff-6df5-40da-a29f-34e086b4ab1b" d="M131.3,63.1C39.3,25-31.5,98.4,141.9,210.8c13.6,8.9,34.6,12,34.6,12" transform="translate(0 -0.01)"/><circle class="a6559de5-caa7-4170-ac20-60174c187e85" cx="46.7" cy="65.59" r="2.6"/><polygon class="b0fad1ff-6df5-40da-a29f-34e086b4ab1b" points="30 51.19 32.9 48.49 39.5 52.19 42.8 62.49 32.7 58.19 30 51.19"/><polygon class="b0fad1ff-6df5-40da-a29f-34e086b4ab1b" points="32.9 48.49 30 51.19 28.4 49.29 31.2 46.59 32.9 48.49"/><line class="b0fad1ff-6df5-40da-a29f-34e086b4ab1b" x1="42.8" y1="62.49" x2="36.2" y2="55.19"/><path class="bb4d1a84-b2fc-4192-8eb2-3e8406c1961b" d="M58.8,246.1,66,282.9a1.54,1.54,0,0,0,1.7,1.2h0l7.4-1.6a1.39,1.39,0,0,0,1.1-1.7l-6.4-37.1a1.48,1.48,0,0,0-1.7-1.2H68l-8.2,1.8A1.51,1.51,0,0,0,58.8,246.1Z" transform="translate(0 -0.01)"/><polygon class="bc4513d0-0293-4e19-920e-297980723fcd" points="61.1 246.79 63.1 255.39 69.7 254.39 68.3 245.09 61.1 246.79"/><polygon class="a742158d-72d0-4b40-b23b-16b5ef22c721" points="63.8 258.59 65.4 267.69 71.5 266.69 70 257.49 63.8 258.59"/><polygon class="a62016be-84d7-412a-8f4b-1fe5e7b1828e" points="65.8 270.99 67.8 279.59 73.3 278.59 72 269.69 65.8 270.99"/><path class="b1b66969-9fa1-4176-9934-bc2d8092e25e" d="M114.6,171.6c-13.5-9.7-26.7-24.8-20.9-40.3,0,0,9.3-6.2,24,1.5l14.7,7.7Z" transform="translate(0 -0.01)"/><path class="b1b66969-9fa1-4176-9934-bc2d8092e25e" d="M93.7,131.4c-5.8,15.5,7.4,30.6,20.9,40.3,8.1,5.8,13.7,8.4,22.5,11.6l-27.9,55s-33.3-13.9-38.7-41S93.7,131.4,93.7,131.4Z" transform="translate(0 -0.01)"/><path class="b0fad1ff-6df5-40da-a29f-34e086b4ab1b" d="M86.2,153.9a33.46,33.46,0,0,0,17.2,23.9" transform="translate(0 -0.01)"/><line class="b0fad1ff-6df5-40da-a29f-34e086b4ab1b" x1="111.7" y1="183.29" x2="127.3" y2="191.69"/><path class="b0fad1ff-6df5-40da-a29f-34e086b4ab1b" d="M88.4,176.1s5,11.1,21.1,18.3" transform="translate(0 -0.01)"/><path class="b0fad1ff-6df5-40da-a29f-34e086b4ab1b" d="M75.6,177.8s.6,11.7,8.3,15.5" transform="translate(0 -0.01)"/><path class="b0fad1ff-6df5-40da-a29f-34e086b4ab1b" d="M93.4,137.2s-1.4,15,21.2,34.4" transform="translate(0 -0.01)"/><path class="b0fad1ff-6df5-40da-a29f-34e086b4ab1b" d="M101.7,140s7.2-.6,17.8,7.2" transform="translate(0 -0.01)"/><path class="b0fad1ff-6df5-40da-a29f-34e086b4ab1b" d="M67.8,187.8c-.5,7.4.5,34.4,39.5,51.5" transform="translate(0 -0.01)"/><path class="b1b66969-9fa1-4176-9934-bc2d8092e25e" d="M316.8,172.9,300.3,206s11.2,4.1,2.4,17c0,0,20.7,8.6,34.3-13.7S316.8,172.9,316.8,172.9Z" transform="translate(0 -0.01)"/><path class="b1b66969-9fa1-4176-9934-bc2d8092e25e" d="M302.7,223s20.7,8.6,34.3-13.7l-29.9,51.2s-20.7,31.5-56.4,3.9l32.4-53.7Z" transform="translate(0 -0.01)"/><path class="b0fad1ff-6df5-40da-a29f-34e086b4ab1b" d="M300.3,206s12.3,4.4,2.4,17" transform="translate(0 -0.01)"/><path class="b0fad1ff-6df5-40da-a29f-34e086b4ab1b" d="M282.7,209.5s16.8,15.4,26.1,15.3,20.2-2.3,26.6-13.4" transform="translate(0 -0.01)"/><path class="b0fad1ff-6df5-40da-a29f-34e086b4ab1b" d="M284.8,229.5s11.5,10.2,24.4,7" transform="translate(0 -0.01)"/><path class="b0fad1ff-6df5-40da-a29f-34e086b4ab1b" d="M296.9,244.7s6,4.5,14.5.2" transform="translate(0 -0.01)"/><path class="b0fad1ff-6df5-40da-a29f-34e086b4ab1b" d="M269.1,251s14,13.9,35.9,4.7" transform="translate(0 -0.01)"/><path class="b0fad1ff-6df5-40da-a29f-34e086b4ab1b" d="M276.7,237.5s5.7,4.1,9.3,5.4" transform="translate(0 -0.01)"/><path class="b0fad1ff-6df5-40da-a29f-34e086b4ab1b" d="M319.6,182.5s12.8,4.2,14.3,21" transform="translate(0 -0.01)"/><path class="b0fad1ff-6df5-40da-a29f-34e086b4ab1b" d="M326,203.3s5.9,9.1-4,18.2" transform="translate(0 -0.01)"/><path class="b0fad1ff-6df5-40da-a29f-34e086b4ab1b" d="M251.9,266.9s32,27.4,55.2-4.6" transform="translate(0 -0.01)"/><circle class="b1b66969-9fa1-4176-9934-bc2d8092e25e" cx="466.9" cy="204.59" r="2.5"/><circle class="b1b66969-9fa1-4176-9934-bc2d8092e25e" cx="2.5" cy="85.99" r="2.5"/></svg>